<mxfile host="app.diagrams.net" agent="Mozilla/5.0 (Windows NT 10.0; Win64; x64) AppleWebKit/537.36 (KHTML, like Gecko) Chrome/126.0.0.0 Safari/537.36 Edg/126.0.0.0" version="24.7.4">
  <diagram name="第 1 页" id="iqUaWge5NL4z9ixCXABe">
    <mxGraphModel dx="1676" dy="1054" grid="1" gridSize="10" guides="1" tooltips="1" connect="1" arrows="1" fold="1" page="1" pageScale="1" pageWidth="1169" pageHeight="827" math="0" shadow="0">
      <root>
        <mxCell id="0" />
        <mxCell id="1" parent="0" />
        <mxCell id="yaO0gMrAGKgGc8faX4ho-1" value="" style="shape=image;verticalLabelPosition=bottom;labelBackgroundColor=default;verticalAlign=top;aspect=fixed;imageAspect=0;image=data:image/png,iVBORw0KGgoAAAANSUhEUgAABtwAAATaCAYAAADR+cLMAAAAAXNSR0IArs4c6QAAAARnQU1BAACxjwv8YQUAAAAJcEhZcwAAFxEAABcRAcom8z8AAP+lSURBVHhe7P3/kxznnSf4+U8aT4TFH7SmZ32MtUM628uwdSHt7YGKg3gWRBuSidUaQY0B8UCMwBMxGvZwSRAzgEYQR+CQEO6ap2vqCB4W5JKtW/aRC1EDDNnilxZFcEUQhwYaaHxpfEnPp5AFFrKf7K6syqqs6n69Ij4hsSvzeTKzqwpd+a7nef4377777g/+sTKllFJKKaWUUkoppZRSSimlVLWanZ39cQRuyQeVUkoppZRSSimllFJKKaWUUqvX7cANAAAAAAAA6J7ADQAAAAAAAPogcAMAAAAAAIA+CNwAAAAAAACgDwI3AAAAAAAA6IPADQAAAAAAAPogcAMAAAAAAIA+CNwAAAAAAACgDwI3AAAAAAAA6IPADQAAAAAAAPogcAMAAAAAAIA+CNwAAAAAAACgDwI3AAAAAAAA6IPADQAAAAAAAPogcAMAAAAAAIA+CNwAAAAAAACgDwI3AAAAAAAA6IPADQAAAAAAAPogcAMAAAAAAIA+CNwAAAAAAACgDwI3AAAAAAAA6IPADQAAAAAAAPogcAMAAAAAAIA+CNwAAAAAAACgDwI3AAAAAAAA6IPADQAAAAAAAPogcAMAAAAAAIA+CNwAAAAAAACgDwI3AAAAAAAA6IPADQAAAAAAAPogcAMAAAAAAIA+CNwAAAAAAACgDwI3AAAAAAAA6IPADQAAAAAAAPogcAMAgBIHDhzINm7cmH3ta19r1ebNm7Pp6en8UdYyv3sA1pLFxcVsz5492Y4dO25X/Hf8HACoh8ANAABKtMOWzoqbU6x9fvcArCXxpZHUv23Hjh3LtwAA+iVwA4ABOHHiRGt0RPvbo5OTk9n8/Hz+6Hhai+fEaBjl51bqxpTQZX3wu4e1xd8xaa7L+hHBWurfNoEbANRH4AawTpw+fbp1o7D9YXrYdfDgwWxpaSk/mrVtbm4u+WF2y5YtY3sN1uI5MRpG/bmVOjahy/rgdw9rh79j0lyX9UXgBgCDJ3ADWCci8Ep9wBpmxTdo14NDhw4lzz8qbmyMo7V4ToyGUX9upY5L6LI++N3D2uHvmDTXZX0RuAHA4AncANaJiYmJ5AesYdZ6+TAXN2RT5x81rqHjWjwnRsOoP7dSxyV0WR/87mHt8HdMmuuyvgjcAGDwBG4A68RKH6iHVevlw9xKowlnZ2fzrcbLWjwnRkOdz61Tp061bhC2qw6p4xK6rA9+94N5TeG6NsHfMWmuy/qy1gI376UAjCKBG8A6EQugpz5gDbPiQ9F6MDMzkzz/TZs2je16GGvxnBgNdT23UtNibd68OX+0d8U2owRu68N6/90P6jW13rmuzfB3TJrrsr6spcDNeykAo0rgBrBOxIfmzm8AdlPT09PLPshEbd26Nbn9SrXe1oGID4Gx4Hxcrw0bNmS7du1qXYdxthbPidFQx3OrbBRvv1JtCtzWh/X+ux/Ua2q9c12b4++YNNdl/VhLgZv3UgBGlcANgFKnT59OfpDZsWNHvgXAaBjUjZdUm+spdFnP1vvv3s3MwXBdgaYI3ABg8ARuAJQSuAHjYlA3XlJtrqfQZT1b7797NzMHw3UFmiJwA4DBE7gBUErgBoyLQd14SbW5nkKX9Wy9/+7dzBwM1xVoisANAAZP4AZAKYEbMC4GdeMl1eZ6Cl3Ws/X+u3czczBcV6ApAjcAGDyBGwClBG7AuBjUjZdUm+spdFnP1vvv3s3MwXBdgaYI3ABg8ARuAJQahcBtdnY2O3To0O2anp7O5ufn80erOXHiRKs622vX8ePHs8XFxXzL8RPXJM6h85yOHDnSun7jahTOKZ4v8Zxr9x/HEz9bWlrKt2BUDOrGS6rNlUKXeB8pvs+M42sx3v/jPOLYO89lamqq9fNTp07lWzZjGO8PVX/3a01TNzPjdzgzM3PH77b9vIvn5bhbSzeJ432g89/IeA3283sqthcVr/Ne/+4blji+1Ptl/KzuvxeG2deg+PuuHnGsccwRlrXPY3JysvWzss80gw7cou+o9vF0VlzjOj9rDfu9dJjnBsB4E7gBUGpQgdvu3bvvaG/r1q3LPuDGB5r4eed2nbVv3758y3LxgT4+eMbxptpI1ZYtW1o39vr90FT8ELhx48bWzYRudXONQlyniYmJO7Yt1qZNm7IDBw44py5E33Gc0X6q36oV7dR5A2lubi7bsGHDHX3Ef8dx9yKuf+p11s+Nl7iBVWwvXlcrqfrcit995/b91MGDB/NW01L7xPEWNfm8rUs8v+L44veVOv5ibd68uXUten3+dRrF94dU26nffduuXbuWbR/nVYf43RTfl+L61xVEDPM1lRI3K+Paxms/1WZnxfMzbnBWOffYNq5Xsa14nvX6PEnduI5j62yv6etaVbevwwhEV/vbKtrq9t+/utsrU/XfmpXEa7J4vcpq27Ztff27Oui++r0u3T5vmvx3MvqO4yy+j/Za0c4wA8JO8X4Z17H492CxYpviv8+p962oXp+fw/qs1cR7aZOfIwEYbwI3AEoNKnBLtdn5bej4kJ/aplhl4hvSxZsHVStuNvRzcyTV5ko3aotS+3deo/ggV/Uc45wiDOlVqs1xP6e2+FBd5QN1leomHO5W3JRM9VHl99ApbsSk2osbdr1KXce4KbSS4vZRK53TajeZqlQ8h1aS2qfz2Jp83tYlnv9Vz6FY8XuPm8K9SrU5bu950V9qnzpuypadez/XvNMwX1Od4t/rVFDZTUU/cTO0G3Hzv+z308t7dBx36ppF0NCpqevaq1S/na/DeK+o+vta6TXTS3vx+0qFOd1ItbfS8aXEMccxpNpareJmfOf1XM2w+krtX+W6pPb39139ermOUbFP7BvqCtyG/VlrmO+lo/A5EoDxJnADoFR8WE59iBhk4BbfWk89nqqU+NZiatteK46nF6m24sNbt1L7t69RhCT9fEO31w+AqbbG/ZxC3LCOD8apduuouJlYl7jJmLrpsNrNgzIrvd7aN2eqiH1SbcW3yleS2mel51Zq+35qJant28cWz52mnrd1iW/K1/n8r/P9Zdze8+Kx1D7xzfx+lIVFMWKrLsW2+61uxO8ltW/VivfYbgKYlfqrGoqW3cAvjiZJbdNPDVqqz87XYa/vFanXTT/vPav9m1Im1dZKr+miuBHf7/tlt/0Ns69+9g2p/f19V6+4nqlRut1W7BttlL0PVrnOTXzWSu3XT5UZlc+RAIw3gRsApeKDWerDw6ACt/gma+qxsioqG/3TT0W40csIglRbddy8iBtUdXzL0zndEjdp41vgqfY6K0YtpH7eTfV7s72obDRA8UZvN1Y6r15ucpW9hldrK7XPSs+tfm7eFSt+/ytJ7RPH1uTzti5lN976rW5HHXVKtTNu73nxGkztE8/XfpT921bnFIPDfE2FKl+u6abivaybLwmUBWXFkWkrKXvdpJ4bw76u/Ur1W9frMKZZa6vjvaeX53+qnW7/jom/F2L0d6qNdsU1Wm2bbv6GHmZfIbVvt9clpPb391194r2tm3NZrSJ0K5uasdu/+Zr6rDWM99JR+hwJwHgTuAFQKj4spz48DCJwW+lDeXzIij47v9kZ31gtKruBF+3GjYO42RM3RONbwyH+N/479lvpg1wv36ROtdPvzYuYajN1jeJnsU5DnEcEHvFhuuymYruc0y1lUzXF8ytuPhQ/JMdzJsKE1DFHxfWIY+6smM6oTmU3KqOvKspGo7Urrn9Vcf6ptla7Bql9VnpuxXMing+dVfYaLm5XrGhrJak242ZNk8/bOsTxpY6nXe0bc/Ee2VnxXh2/m9VGDcR2VaTaGMf3vLIRCFWvR6c411Sb7X/L6jDM19RK00ZHgBC/13iutQO0uHEe/x37rRQwrPa7CXHNyt6/OwOhMvFelrou8bPU+9wwr2sdUsdV9jqM84h/Q+PxuHbxGis7t6j2NSr7N6xqe3FMVf99TbXTzfMmxPtMav94zad+N/G8bb9fdl6/+F2uZph9hc4+2tXtdQmp/cueN/Ezf99Vs9q0q3F94ngiMIrXTlzTsn+LyqrbwC36Se0f1y2u0aA+aw3jvbSpcwNg7RG4AVBqmIFb6uZt3Fhrf6hpi/+OD8TxQb6o+EEpvrUa23XzrffYZqVpROJDbBWpNvq9eZGqaLPsA3/cTFjpA+Awb1SF1P6pGtY5xc2pVBvxvIvn/krieZj6tvEwPlTHORb7jaoyQiOs9k3eVKi9mtTruJv3i+I+UVWeWyG2T7XTr1SbqRrma7Ff0V9ZYNa+GbmauMG70ntmnG+V80q1kaphXudUG6s9L8tu2FV9PrfFdU7dAK76eu/FIF5T8d5ZdkM7bpDH+a5ktedd3PxczUo3VVd7jpTdxO/2ZnUYxHWtS+q4ihXXKX4Hqb+t4vezUjiQCkz7aS/2qyLVRjevzTi21L5xPqs9Z0P7b8w413gOrWSYfbWl+qvynpXaP1XR5jDev8f177uUlf5Wi1AtrluZeF/qNnjrNXBr8rNW3e+lo3RuAIw3gRsApYYZuBWr6k2UEDfaYt/4gNTrB5v4QF08lqgqNx5Cv22k9u+suJFS9g3NTvE7LPuwHd+ArSLVxjifU9mNv25v6sSaP8X9o4bxoTp17FGr3UjqVHajorO6uXndVnY9upleMLVf1ddc2fn0K9VmZzXxWuxX2Q3suNlZ5TkU4sZmXINUe1XOK7V/Z43Le170n9ovjr+bm+VFcc6p9uKb9oM2iNdU/P2QajP1JZqVxM3hVDvd/H0Sv4ey6dlWuqle9h5X9W+iQb1X1SF1XJ0Vz+N4za9ktZCss7ppL5SN8iybGq5Mqo1u/q0pC3Cqvl92c+N+mH21pfrr5rq0pfbvrGG/f4/z33ed4rVUFkLGl2NWCtva4nlQ9r7bWd0GbqP0Wavu99JROjcAxpvADYBSZTcOBx249fOhpMo3YFNi//hQXjymqudc3D+qrpsX8SE7bgZ0K25klrVTRaqNcT2n+D2n9q96Qz51EzBu9AxahFjFfqOq3LQuu6nVWVWC77JRI93cJEztV/V9ILZPtdOvVJvtauq12I+yG4nxvtfNzbuUsvOKNru96Zvav11NXedUG908L8tubnZzw7moLGjo99+6btT9mornV6q9XkeOxE3RVHvdPI/bN1ZTlQqA4sZ3qr94jhdH4q9mUO9VdUgdV7vi9dPte0TZ77qzqrRX9vdoVJXXQmr/bl7TqX9zIwgZhGH21VbsL6qb69KW2r9dw37/Hve/7zpF6FM8hqh436nyhah4/yp732lXlVG6/f77E/vX8VlrEO+lo3JuAIw3gRsApZoI3EbhA0nqm9kRTlRR3D+qjpsXVT9kh5W+IVvlRmFq/3E9p7JRI93e/GtLjbKI8xm0OMdiv1Hd3rhe6eZlZ8UN5m6lvlHe7eiD4n5RVZ5bYRA3XkKqzagmX4v9KLtOcXOxH2Xn1e1IrNS+UeP4nlc2+qpqsBRhZZx/sZ34N2oY6n5NlbVX9X23rexmdLdfFCg7nvj3Pp5Dncq+5BBfNKiq7utap9RxRfXyOiwbiR3VS3tlQXaVdlL7d/OaTv3OBhW+DLOvtmJ/Ud1cl7bU/lFNvH+P+993ncpGS1UND0Nc15VGnlYJ3OpQx2etUX0vrePcABhvAjcASg07cItvr3YzGmbQytZoqSK1fx03L3oZIRHK1hWoMmVKav9xPacIAVL7Fm+yrqZstNAwwpPUCLW4GdTNOaS+QV52M7Ob12QEA6l9u70Zndq3ynMrDOrGS6rNqCZfi70qC3Cieg092srOq9sbxal9o8bxPS9eg6nrHD/rdsRfKAvuhnVjtM7XVNk16XV0W1tqashu/0aJkQhlN/Y737viPTB17NF31X8zwqDeq+qQOq6oXl6HZSOVoupsr8rrIbV/N6/p1Aju+Ju1l9//aobZV1uxv6hurktbav8of9/1bqV/r6uMGOwUbZaNDB524FbHZ61RfS+t49wAGG8CNwBKDTtwG/aHvTJl32SvEgam9u/35kU/I1DipkeqzWHcqGpL7d/UOaVuaPXy7dOy10jVb3T3ouyGVDfr4aS+NR03cFI3d7q5nrFNcb+obm8Kpfat8twKg7rxkmqz6ddir+JmZarvfkOPEDchU23Hc6qbG52pfcf5Pa/s+RihQbdS35Lv9nrWoc7XVLwnptrq9YZ8W+q9rMo1KnvvijbaN9bLRoX0etN7UO9VdUgdV6+vw7Lfed3tdfvFjpDav5vXdNl7Z/w7XLdh9tWW6q/b97qQ2t/fd/0pC/yqrltYVPaeN4y/QTrV8VlrVN9L6zg3AMabwA2AUmUfNgcRuPXbZp3KPoxW+aCU2r/fmxdV9i+K0SupNrud7i2k9h/Xcyr7BnlVZTdEhnFDpuzmYzdTDcW5du7TvhmVurHcTRiTuukRI0e6Vdw3qupzI3UMUf1KtdnU87Zf8dxI9d1NSNuNslGS3YyeS+3X9HVO7d/tMZW9Prv9t65sdEM/N7GrqvM1VXYDspvnxkrKRhJU+fe67Hkb74dlN/6j314N6r2qDqnj6vV1WBbC191eld9Fav9ujidGQ6b2jepler+VDLOvtlRfVX5P/e5ftN7/vgtxrqn+qwTMKaMSuNXxWSueY6k2mlbHuQEw3gRuAJQaZuDWzwfzuq3FwK3sdzmMb4a39bt/UT/nVPY7rrpYetkUV8OacqgYnEWt9k3u1E2k9u8hdYOnm9EiqeMYxk3QTrF9qp1+pdps6nnbr34CsW6UhR/d3MhL7df0dU7tX+WYUtO+RnXzb0nZe0td4Wg36nxNlY1E61dZkFflpni8X6fCzajUz+PLBFWmBi0a1HtVHVLH1evrMK7RqLXXz/5lIx2j4r21ziBmmH2FVD/Duq4p/r4r//e0yrTIKWXXp5t/p+tUdhzd/PvYFs+xVBtNq+PcABhvAjcASpV94F0rgVvcsIiKD9XxIb5dqRuDUVU+KKX2H9ebF22p/cf1nMq+PV31hkMqwIjwqekp31a6IRTXp7h9+7zLrulKN/fisdQ+VYKB1P5Vnxtl16JfqTabet72qywA6ic86JR6bkVFKLKa1H5NX+fU/lWOqZ/rkXpvqTJqtA51vqZiLb9iOxFmxXn2U6k13KKqBhJlwV2q+p0Gc1DvVXVIHVc/r8NRa6+f/Vda869d8TyPf0/7/RtgmH2FVPvDuq4p/r4r/4JMr1PZtsV1SLVb9fp0a5CfteI5lmpjWAZ5bgCMN4EbAKXKPvDGh8B+pNrs54P5SuKDcXwbNL4putLNuW6qygel1P7jevOiLbX/OJ9T6mZWlZELZeusDHPKt7JjWOmGfuomTudzO/UaWWkaq7jexe2r3pQq7h9V9bkR26fa6VeqzaZfi71K9Ru/q7qU3cjr5txS+zV9nVP7VzmmsinwVluDp2xKuUFNJ1emztdUWdg7qKoauMX71datW5NtdVaMPOrXoN6r6pA6rn5eh6PWXr/7x7+5ZaMhOyveV+Pvzs5/W6saZl+pdod5XYv6ff9eC3/fpb6kENXP7zkMInBr6rNWPMdSbdSpqXMDYLwJ3AAoVfaBdxwCt7hhGTcnu7lZ0W1V+aCU2n+cb16E1P7jfE5l0wXFN1NXuykT3zAu+/Z5v98+riJuBKSe42Wv0dT2cZO5U7xuOh+PWikgSN2krnpTqrh/VNXnRmyfaqdfqTabfi32In73qX5XC3+qiFGNqT66uV697ldmFN7zQtlN05VGoZa9Nw3zvSXU+ZqKUCDV1qCql2sV+6Taale8d1b5O6BMnde1bqnj6ud1OGrt9bt/iBFUVW66x98UvU7bO6y+Um0N+7p28vdd+ZcU+lVn4Nb0Z614jqXaqEPT5wbAeBO4AVCq7APvqAduMd1TnR+Q2lXlg1Jq/3G+eRFS+4/7OZWNaIibLfE8ig/cneJG1kpTjw06NElJrfUSz//UTaVUIFIcNRMjQ4rbRKWe/2UjcareuEm1UfW5Edun2ulXqs2mn7e9KOu33/fzTmXPnW6uV6/7lRmF97xQduP34MGD+RbLxe+kuH2dwWi36nxNpdoZVMWN6giYq4r395X+dojHeg1OOtV5XeuWOq5+Xoej1l6/+7fF86vqzfhe3+OH0VeqjSaua5u/79KBWzwH+lVX4DYKn7XiOZZqo1+jcG4AjDeBGwClBnWDNtVmPx/MO8VNzFT7qYoPs3EuxSr7NnGVD0qp/cf95kVq/3E/p7Kb4cXqZqqxGMnSy03efpXdPIkbBkVx0664XUyV0ynOITUaZWpqKt/ic6m+4yZFt9M2tRXbiKr63IjtU+30K9Vm08/bXsTvJNVvvA/WpWwarm7OLbVf09c5tX/VY4rrnrpxV3bdm3p+pNT5mkq9p8TP4rzqrHjf6/V9uGw0YmcVRwT3YlDvVXVIHVc/r8NRa6/f/Yvi9R3Pu7IRUcWK51jVfx/bBtlXav8mr6u/78pHuPV7HHUEbqPyWSueY6k2+jEq5wbAeBO4AVCq7ANvfJjoR6rNfj6Yt5V9iIyKG57RRzfTwZS1U+WDUmr/cb95kdp/nM8pvt3c7Y2r1SraaeqDdNkos9S1Td1YSt2QSy34nlq7KKaOLG7Xy/tDsY2oqs+N2D7VTr9SbTb5vO1Hqt94b6xLhLKpPlZaU7AttV/T1zm1fy/HlHqdRKXWGSsbYdHE+0udr6nUzeN43xwVZc/dVKW+fFDFoN6r6pA6rn5eh6PWXr/7ryS+cFD2Wu+sOtYBq7uv1L5NXld/36VHOkf1eyz9Bm6j9Fkr+kq10atROjcAxpvADYBSZR94RzFwiw/XqVEEUREUVPlGcR0flFL7VznHfvcvKvtdrufALXUzo+o6Q/Gci/6aGNnWKTUyo3gzOxXMlb2WU6+BONfO84z/n7pe8a3yqoptRFV9bsT2qXb6lWqz6ddir8qe33U9f1MjKKPi+bSa1H5NX+fU/r0cU9nadvv27cu3+Fzqtdzvv7m9qvM1VTaKpOn3zlD290PZ6yW2jX16Naj3qjqkjquf1+Gotdfv/t2I956y33G7unlP7EZdfaX2a/K6+vuu/H2i33Xkyj7jdPM8GbXPWmXXqBejdm4AjDeBGwClyj7wjmLgVvbt9F6mganjg1Jq/3G+eRFS+4/rOaWmGopRXfFciefSat+Mjg/l8c3xfm661qlsVEznjZnU87rsWsV5FbeN6px+sspab6tJtVP1uRHbp9rpV6rNpl+LvSoLPXr5naWUjbjoZt2r1H5NX+fU/r0eU+o9JW4Ad/77VHbMvYTYdajzNZVaazKqrudeP8qOLd4/yx6Lfy96Naj3qjqkjquf1+Gotdfv/lXE+15ZyFPH1KSd+u0rtV+T17Wf9++18vdd2dSG8QWOfpR9xomfr2bUPmvFcyzVRi9G7dwAGG8CNwBKlX3gHcXArexGcjc3eovq+KCU2n9cb160pfYf13NKjSIp/n7juROhUrQXFTdx4r+rfMt1WE6dOrXsfKI6r0Vc6+LjqSnt2lKvqc4ROambQb3eRCy2E1X1uZE6v6h+pdps6nnbr7JrVFegk1q3JG4Cd6O4X1TT1zm1f6/H1M3N01RwHjd/m3rPqfM1Fdc91dZK70HDEGu+pY6r/XuO99ayUQ+pdTK7Ued1rVvquPp5HY5ae/3uX1W8D6UCnnhOVb2Jv5p++iruE9Xkde3n/Xut/H1XFgClRkZX0U/gNmqfteI5lmqjF6N2bgCMN4EbAKXKPvCOYuBWdpOhFwK3tNT+43hOcUOluE+3ocAoS62R1BmAFR9f7SZcXMfO7aOijbbUzYkqz6dOxXaiqj43YvtUO/3e1Ey12fRrsVdlN/B6DUo7xejHVNsxQqgbqX2bvs6p/Xs9prJQvHONpVRg2c9Iqn7V+Zoqe37Ec7Ip8W9B6m+H+Fnn6JbUe2F7u15u0A/qvaoOqePq53U4au31u38vyn7fvdzIX02vfaX2afK6+vuu/D2z8++wXpS9n3UTuI3aZ62y53sv76Wjdm4AjDeBGwClyj7wjlrgFh+sUm3Gt1x7IXBLS+0/jucUN56K+6yFwK1sBE3cOE6d82o38mM6teI+UREclF37Xm8gptqq+twoO/8qr9uUVJtNvxZ7VfY7jer35m9qVEFUt6PnUvuO+3teUeoatYPvskCu11FUdajzNZW6ER4VNzmbCprid5k6puJzNo4v9YWGqF5GmwzqvaoOqePq5zk/au31u38vykZRdhNwVNVrX6l9mryuvb5/r6W/78quQVSv67iVrScatdpzZBQ/a9X1XjqK5wbAeBO4AVCq7MPeKI5wiw/UxTbjRl4vytYhqvJBKbX/ON686JTaf63ckOlmv1EX0yGlzis++KdGNnUzsiT1uopp71I3E/r51nWxraiqz42y0Vv9TlmXarPp12I/yqZN6meaqrLX1GqjKDul9h/397yiCHJSbcbrKY6r+PN4/TUVRoW6X1MR8qfaa2KUW9n7Zdloz7LRJlFVb34P6r2qDqnj6uc5P2rt9bt/L8pe94P4fffaV2qfJq+rv+9uKfsiSwRNVcW1iX+TU+1Fxb9Dqxm1z1p1vpeO2rkBMN4EbgCUKvvAO4qBWxxTqt2qi57HcaTaiaryQSm1/zjevOiU2n8czyluYJfddIgbwvEN4F6/Pdy01A2DOKfUje64+bKa1OshXmup9g4cOJDvVV2xraiqz42yb/b3e6Mt1WbTr8V+lN2QjepcT6xbcT5lIV6V50Rq/6avc2r/fo4pRnml3nti2s3UdJL9rtXTr7pfU2WhVdzUrPpvdT/i34DU9Y5a6X2xLDCM53+VYHRQ71V1SB1XP8/5UWuv1/37eX7G6zjVb1mbw+yrLbXPMK5rGX/f3ZJa17Nd8X7arTjn1N+HndVN4DZqn7XqfC8dtXMDYLwJ3AAoVfaBdxQDt7ix20+7cSM0bnqm2mhXlQ9Kqf2rnGO/+xf1evOiU2r/cT2nsptS3VTcXI3XQFR8yzhuiMS3aXtZy6ducT2Lxxs3WYo3oLr91m5qJFu0lbqh1c+39YttRVV9bsQNpVQ7cWO9n1FCqTabfi32I65F/P5TxxDPlSqh20o38aqGKKk2mr7Oqf37OaZQFtqkahAjYKoYxGuqbGrG+HmVf2OLYkrOeD8uTgeZUjYN2WoBZxxf2c38Ks+rQb1X1SF1XP0850etvV72b/++YrRR1ddkBLip98j4XacMs69OxX2iBn1dV+Lvu1vi39Cy95z4eTdfnIpRYGVtdFY3gduofdaq87101M4NgPEmcAOgVNkH3lEM3FLBQLviA/NK4sN02Q3ozqryQSm1/7jevGhL7T+u5xQfjMtG5fRacaMr+m4yeFtp2rPO6va6x7mk9i9WnHs/Um1WfW7EsZbdVIqbIMWbL7F9vG+sdpMp1V7Tr8V+rbSOS1RMhxQBRpm4dqvdxKs6Wi7VRtPXObV/P8cUun2N9jNFa10G8Zoqu0Ea1X4P7fZGaTxH43nYOe3aau9FcYM6dU7xN0Ac/2rKRpxEmyu9ZjoN4rrWJXVM/TznR629XvaP6965ffwNHCNrVhN/W5YFzGV/lw6zr06p/QZ9XVfi77vPlQVBUfE7LxvpFs+JeP6k9ovzKf6sm/eX4vOzs5r4rFXne+monRsA403gBkCpsg+8oxi4xYeqsrUOouLDd3xYjg9F7YoPUGUfylMfRqt8UCruGzWuNy/aUvuP8znFB+8qo026rXjudDPKYhDidVB286Gzurmx0lZ2w6az+n391tXmSjemouI9Is6nyg36zv3b1fRrsQ6rXauo+JZ43LSKY4uKIK6b50Mv55Jqp+nrnNq/3+d6vEa7uTHXyxo9gzCI11T8DjrbSFXn8y7+vY73rPZ/x2Nl4ULUSsr+ze/2PTF+f/G6SLVR5W+jQVzXOnQeQ7v6ec6PWnu97F82DW+8jtvP03j+xPM0to3/XinwWel5Msy+OqX2HfR1XYm/7z4Xo9xWer+Livek+F3H9Yn/Xek5EdvE76b4827eA0fts1ao6710FM8NgPElcAOgVNkH3m4/wJdJtdnPB/O2ON7UB5yqVfZhtMoHpeK+UeN88yKk9h/3cypbcL2O6uZb6YMQN+VSx9NZVZ7LcT1TbXRWv+eaarOX58ZK0y+tVCtJbd/087YucR6pY+mnej2PVFtNX+fU/v0cU1s3YWe3o6UGbRCvqdDNNeilIpgoU/Z+HzdZq1hphGi3wd2grmu/Un3285wftfZ62X+1EcFVKoKTlUZJDbOvTqn9B31dV+LvuzvFvwd1fL5ph4Xxuyk+1u17V/xuRuWzVqjzvXTUzg2A8SVwA6BU2QfeUQ3cQkyt0ssHr6jYr/2Bs98PSsV9o6qcY7/7F5X9Lod587nf/Yv6PaeydT7iW9HRRlnFjeLVvkEcFc+nmD5t2OI5nDqednWznkunmIIt1U674jzjm8H9SLXb63Oj6o38lW7Qh9Q+Tb8W6xTf0E4dT9WKm1T9fPM/1ea4v+eVWe01Fe8to6Tu11Rb2Wiefqrs9xvPh7K/DbpZB6mobPRMvA7iBnA3BnVd+5Hqt5/n/Ki118v+q4186bbiubHac22YfXVKtTHo67oSf98tF/3Fe0DqeFar2K9zmuf43RS36TZwC6PyWautzvfSUTs3AMaTwA2AUnHTqPhhIarfwC31QaafD+ZF8YEmpj4r9rFSxYfwzptk/X5Q6vcc675G/d68CGvpnMq++Vx1Grd4zsQ+qXOLitFmw7bat317mapupemM4rXTr7qfG3HDo9tvKa92/KP0vB2U+PZ8WYCwWsX1iedUtyMpyozida77mDqtdEM33p9GTZ2vqU7xe4prmmqn24rjijZiiq8yZTfg40ZtL1Z6n63yHBvUde1V3c/5YltNt9fr+UUQFr/XXgOP6KPzb8yVDLOvtn5/73U/b/x9lxb/znYzi0FnxXtf8d/n+N0Ut2sHRd2K31HTn7U61fleOmrnBsD4EbgBsKL4Bnp8uIuQLSo+QHR+S7IX8aGo3V5UfKgZxDdFo834ABR9FD/0REWIEDfbUt8C7tw3qupNuX7PcRDXKEaydLYZv8sqH/7WyjnF77vum0Pxmki1GR/+mxDHE9e389pExc2qXoKRuGZx06bYXvys6o29lEE8N+K42secugkTP48bc6tdj1F8LQ5K/J7j2FYbYdEOOGJarX5HN7atxfe8law0RVgdr6lBqOs1lRK/l/h7I67xakFD9B1/l8T72UohW6d4T+z8Nz0q9u/n+Rt9F9uM51jV58ggr2tVdT/nh9FelZFcdRxPjICJvwnL1vKLirbjuRG/t35ez8Pqq9/rUvfvOfj7rlz7b7Kyf0Pi801cv7LnQ+zf+d4Vv69e31/i99xuq+xYBvVZq6ju99JROjcAxovADYB1Iz5gxQ2y1Acj1o+4sVD80Bw3s/oNDuLDdLHdqFFZi4lbN8jrCojWi7hpFNctqp8bx9wp/h1KvV80MWqiH4N8TcXzrf3ci1pPBnldqVfn83TQv7Nh9jWO1uvfd3Ec8ZwYheMZtc9adb5WfI4EoFsCNwBg3YgPy6lvKsc3XvsV30Qvths17MX1gdFXdgPX+wVAdf6+AwBGhcANAFg3YrRO6qZJ/LxfMaVSqu1+p2AF1pb4tn1ququ4WWzUCkB1/r4DAEaFwA0AWDfi28ipmyZ1TA9TNmLF1DNAp7Kbt/2sMwSwnvn7DgAYFQI3AGDdKPsG9KFDh/ItehML+adGrMSC6gCdtm3btuy9IirWhgGgOn/fAQCjQuAGAKwbMV1bao2PuHHS62LzsW5ILMpfbDOq3xs9wNoS7zOp94pNmzblWwBQlb/vAIBRIXADANaVHTt2JG+exDeYY6q3uMHSjdhucnKydaM81V7c5LEeE9CpbGqygwcP5lsA0At/3wEAo0DgBgCsK2XrJ3XW7t27W99ejhsuMc1bZ8XPJyYmklMMtSu+ZW16OKBT3KAtu4Hb6wgMAG7x9x0AMAoEbgDAulM2yqSOipsxx48fz3sCuGV6ejr5nrF169Z8CwD64e87AKBpAjcAYF2amppKrvfRT8V0RkaqACll053FexEA9fD3HQDQJIEbALBuzc/Pt74NvdL0Qd3Url27spmZmbxVgDudPn06+d4RN4XjfQiA+vj7DgBoisANAOAftdfviJsrW7ZsSd54aVd80zlu5MR6IXEjHWAlcfM3po7sfB+J9xlrAQEMlr/vAIBhErgBAAAAAABAHwRuAAAAAAAA0AeBGwAAAAAAAPRB4AYAAAAAAAB9ELgBAAAAAABAHwRuAAAAAAAA0AeBGwAAAAAAAPRB4AYAAAAAAAB9ELgBAAAAAABAHwRuAAAAAAAA0AeBGwAAAAAAAPRB4AYAAAAAAAB9ELgBAAAAAABAHwRuAAAAAAAA0AeBGwAAAAAAAPRB4AYAAAAAAAB9ELgBAAAAAABAHwRuAAAAAAAA0AeBGwAAAAAAAPRB4AYAAAAAAAB9ELgBAAAAAABAHwRuAAAAAAAA0AeBGwAAAAAAAPRB4AYAAAAAAAB9ELgBAAAAAABAHwRuAAAAAAAA0AeBGwAAAAAAAPRB4AYAAAAAAAB9ELgBAAAAAABAHwRuAAAAAAAA0AeBGwAAAAAAAPRB4AYAAAAAAAB9ELgBAAAAAABAHwRuAAAAAAAA0AeBGwAAAAAAAPSh9sBtdnY2O3HiRO01NzeX91Dd6dOns8nJyezAgQPZjh07btfu3buzQ4cOZdPT0/mWo6GJ4x23awQAAAAAADAqag3cZmZmsq997WsDq6qhWxzPtm3bkm0Va+PGjdm+ffuyxcXFfO/ha+J4x+0aAQAAAAAAjJpaA7cYCZUKauqqY8eO5T2tLAKhPXv2JNtYrTZt2tQapTdMTRzvuF0jAAAAAACAUVVr4HbkyJFkQFNXdRO4LS0tZVu3bk3u321t2LBhaIFSE8c7btcIAAAAAABglNUauMU6YDH6KRXQ1FHdBDwTExPJfTdv3twagXf8+PHb68LFf2/ZsiW5fZzH/Px83urgNHG843aNAAAAAAAARlmtgVtdIsSJEVTFcCdGZq2kbITd1NRUvkXa5ORkcr/du3fnWwxGE8c7btcIAAAAAABg1I1k4JYKdw4cOJA/Wi41ui4Cpm7ESK7ivhH6DXIEVxPHO27XCAAAAAAAYNSNXOAWo9hSodBqoc7MzMyyfXbs2JE/2p3UumbdBH29aOJ4x+0aAQAAAAAAjIORC9yOHTu2LNDpZtrCCI6K+3Wz5lunVN+xrtkgNHG843aNAAAAAAAAxsHIBW6pEVSrhUKLi4vL9tm4cWP+aPeineLacVGnT5/Ot6hHE8c7btcIAAAAAABgXIxU4Hb8+PFlQU4EcKtJTZU4MTGRP1rNrl27lrUVo7rq1MTxjts1AgAAAAAAGBcjFbjF1JG9BDmxhlgv+6UcPHhwWVt1r1HWxPGO2zUCAAAAAAAYFyMTuM3NzS0LcTZt2pQtLS3lW5RLjbjqdYrDI0eOLGurmzXkqmjieMftGgEAAAAAAIyLkQnc9u3btyzEOXToUP7oyrZs2bJs316dOHFiWVvdTGtZRRPHO27XCAAAAAAAYFyMROA2Pz+fbdiw4Y4AJ/47ft6N4r4bN27MH6kuRn11thUVI+3q1MTxjts1AgAAAAAAGBcjEbjFSLZigDMxMZE/urJU+LN58+b80eoWFxeXtRdVlyaOd9yuEQAAAAAAwDhpPHCLNdpidFQxvIk13bpRd5gUiu1F1aWJ4x23awQAAAAAADBOGg/cpqamlgU327Ztyx9d3alTp/raP6XYXlRdmjjecbtGAAAAAAAA46TxwG3r1q3LgpuZmZn80dWdOHFi2f47duzIH+1NjP4qtlmXJo533K4RAAAAAADAOGk0cItgrRjaxPSSMc1ktwRuArdR135tKaWUUkoppZRSSimllFKq2RqUdvuNBG67du1aFtrEFJNVpMKkfqdLLIZJGzduzB/pXxPHO27XaK1pv7aUUkoppZRSSimllFJKKdVsDUq7/aEHbnNzc3cENlEbNmzI5ufn8y26k1qfLMKgfsRx1NlepyaOd9yuEQAAAAAAwDhpLHDbs2fPHYFN1L59+/JHu3f69Oll7fQb/hTb63f6xU5NHO+4XSMAAAAAAIBx0kjgFqPYiiOkomLUW1XRVrGdaLtXi4uLy9rbvXt3/mj/mjjecbtGAAAAAAAA46SRwO3AgQPLAptYz61XqfCuV6mpLmM0Xp2aON5xu0YAAAAAAADjYuiB29LSUrZp06Zlgc3MzEy+RXVbtmxZ1l5Mo9iL6enpZW0dPHgwf7QeTRzvuF0jAAAAAACAcTH0wG1qampZWNPvemIxOq7Y5vHjx/NHq5mcnFzWVvysTk0c77hdIwAAAAAAgHEx9MAtNdIqQrh+pKaoPHToUP5oNTt27FjW1uzsbP5oPZo43nG7RgAAAAAAAONiqIFbTBtZDGpibbGYZrIfqXZ7WRNucXFx2VpnGzduzB+tTxPHO27XCAAAAAAAYFwMNXBLjYyKkVf9ihCo2G5U1TXKUmuT7d69O3+0Pk0c77hdIwAAAAAAgHExtMBtbm5uWVATderUqXyL/mzbtm1Z21XCvBhlF2vJFduIkWGD0MTxjts1AgAAAAAAGAdDC9xiFFQxqKlzZFRqysSobtcWO3jw4LJ9t27dmj9aLoLEznOLaRq76bOJ423qGgEAAAAAAKxlQwnc5ufnl637FXX8+PF8i3qkRl9t2rRpxUApRm3t27dv2X5RJ06cyLcqlxo11m0I1cTxNtEnAAAAAADAWjaUwC2mLSwGNYMYGRUBXrGfdk1MTLRGeEWwFAFgbHvo0KFsy5Ytye3jsW5s3LgxuX83mjjeJvoEAAAAAABYywYeuMXoqFQoNTU1lW9Rr8nJyWV9Va2YFrJbqf2jujXs4w1N9AkAAAAAALBWDTxwi2CtGNbEFIYRxA1KjLwq9tltxTplVY4tzqXYRvysimEeb1sTfQIAAAAAAKxFAw/cYurIYmAzjKkIY1rE1PpqZRXbxhSKVaWmy4yfVTWs4+3URJ8AAAAAAABrzcADtwh1ImBr1/T0dP7IcJw+fbo1ym7Pnj3Zjh077qjdu3e3pleMbfpx7Nix2+cX/78fwzjeoib6BAAAAAAAWCsGHrgBAAAAAADAWiZwAwAAAAAAgD4I3AAAAAAAAKAPAjcAAAAAAADog8ANGGk3LpzJLh3dky3svz87+/Bd2f/6//vftv7/4tRj2bVP3sm3AgAAAACA5gjcgJF1+Y3nb4dsZbX4ws7s5rWr+R4AAAAAADB8AjdgJF08vD0ZsKXq/JNfzW5eXsj3BAAAAACA4RK4ASPn8vQzyWBtpbr43NZ8bwAAAAAAGC6BGzBSbsyfWnUaybK6evJo3goAAAAAAAyPwA0YKZdemkiGad3Uwv7781YAAAAAAGB4BG7ASIn12FJh2q364+xM8ue3KkbGAQAAAADAsAncgJFSNp3kSkFbZ1149rvZlbd/md24cCZvEQAAAAAABkvgBoyUVIhWrDN/mv55sWK0XExRee2jt/PWAQAAAACgfgI3YKSce/zeZHjWb53deXd24WcPZpffeD67MX8q7w0AAAAAAPoncANGysXD25OBWd0Vwd7i1GPZ1ZNHs5vXrua9AwAAAABAdQI3YKREAJYKyLqrP0r8rLtaOPBAdnn6mezaJ+/kRwIAAAAAAN0RuAEjJ6Z+TIViw6r5R+9pjbS78vYvs5uXF/KjAgAAAACANIEbMHJuXDiTze/+cjIMS1Wsz7Y092YrIIugLAKz1Ha91vknv5pdemkiu/bR2/kRAgAAAADA5wRuwEi6MX8qO793QzIA66xYiy01DeT1zz5sTREZU0Wm9uu1Ity7+NzW7PIbz7eOEQAAAAAABG7ASItgKzXaLUaxXXp1f3bz2tV8y3KxzdLs69ni1GOtgK7YVj8V7UW70X43xwIAAAAAwNojcAPGQis0+2CmVTHlZD9iZFoEeTFSLUaspYK0XitG1MXIuhhhBwAAAADA+iBwA9a9WJst1miLtdpSIVqvFaPwYk25WFvu5uWFvDcAAAAAANYagRtAhwjGIiCLoCwCs1SQ1mvFmnQR7EXABwAAAADA2iFwA1jBtU/eaU0RGVNFpkK0XiumsowpLWNqy5jiEgAAAACA8SVwA+hSrCN39eTRbHHqsezc4/cmg7ReK9qLdpdmX897AwAAAABgXAjcAHoUI9NihNqFnz3YGrGWCtJ6rRhRFyPrrn/2Yd4bAAAAAACjSuAGUJNYmy3WaDv/5FeTIVqvNb/7y6015WJtuVhjDgAAAACA0SJwAxiAGxfOtAKyCMrmH70nGaT1Wuf3bsguHd3TCvgAAAAAAGiewA1gCK598k526dX9rakiUyFarxVTWV58bmt25a3J1hSXAAAAAAAMn8ANYMhuXruaXT15NFt8YWd27vF7k0FarxXtLU49li3Nvp73BgAAAADAoAncABoWI9Muv/F8duFnD2ZnH74rGaT1UtFWjKi7PP1Mdv2zD/PeAAAAAACom8ANYMTE2myXXprIzj/51WSQ1mvN7/5ya1RdrC138/JC3hsAAAAAAP0SuAGMsBsXzrQCsouHt2fzj96TDNJ6rfN7N7TWlYuADwAAAACA3gncAMbItU/eaYVkC/vvT4ZovdbZnXdnF5/bml15a7IV8gEAAAAA0D2BG8CYunntanb15NHWNJExXWQqSOu1zj1+b7Y49Vi2NPt63hsAAAAAAGUEbgBrxI35U9nlN57PLvzswezsw3clg7ReKtpaOPBAdnn6mez6Zx/mvQEAAAAA0CZwA1ijlj6YyS69NJGdf/KrySCt14rRdDGqLkbX3by8kPcGAAAAALB+CdwA1oFYly3WZ7t4eHs2/+g9ySCt1zq/d0NrXblYXw4AAAAAYD0SuAGsQxGORUgWYVkqROu1zu68O7v43NZWuBchHwAAAADAeiBwA1jnbl672poeMqaJjOkiU0FarxXTWS5OPZYtzb6e9wYAAAAAsPYI3AC4w/XPPswuv/F8duFnD2ZnH74rGaT1UtFWtHl5+plWHwAAAAAAa4XADYAVxei0Sy9NtEarpYK0XitG08WouhhdF6PsAAAAAADGlcANgK7FumyxPlus0zb/6D3JIK3XivXkYl25WF8OAAAAAGCcCNwA6FmEYxGSRViWCtF6rQjzItSLcC9CPgAAAACAUSZwA6AWMS1kTA8Z00TGdJGpIK3XiuksY1rLmN4SAAAAAGDUCNwAGIjrn32YXZ5+Jrvwswezsw/flQzSeqloK9q8/MbzrT4AAAAAAJomcANgKGJ02uLUY63RaqkgrdeK0XQxqi5G18UoOwAAAACAYRO4ATB0sS5brM8W67Sd3Xl3MkjrtWI9uVhXLtaXAwAAAAAYBoEbAI2LcCxCsgjLUiFarzX/6D3ZxcPbW+FehHwAAAAAAIPQWOB24sSJ7NChQ9mOHTuW1Z49e1qPzc7O5lv3bn5+Ppuens4OHDiQ7GtiYiI7cuRIdurUqXyP5sWxTE5Otq5D8Xj37duXHTt2LFtcXMy3rkcTfQKk3Ly80JoeMqaJjOkiU0FarxXTWV56aSJb+mAm7w0AAAAAoH9DD9ympqayjRs3Zl/72te6qk2bNmUzM9VvjEY4FKHdhg0bku2mKsK306dP5y0MXwSDW7ZsSR5bseK84nj7DcGa6BOgiuuffZhdnn4mWzjwQHb24buSQVovFW1d+NmD2eU3ns9uzI/Oly4AAAAAgPEztMDt+PHjXQc7xdq8eXPeSnci1IugLtVWNxWj4YYpAqwIslLHslrFecZowaqa6BOgDkuzr2eLU49l5x6/Nxmk9Voxmi5G1cXoupvXrua9rS6mqrx0dE+2sP/+24Fg/P84RuvIAQAAAMD6MJTAbffu3cngpkp1K6aHTO1ftWJ03DAsLS1lW7duTR5DtxUjz6pMv9lEnwCDEGFXrM928bmt2dmddy8L0fqpCM1iXbmVQrMYHbfaqLsI8aoEeAAAAADA+Bl44Hbw4MFkYBPTSsbaYDFSqj1aKqZzjP8fU0jGKLP2iLjYthuxDllqCskYIRdTJ87NzeVb3lrbLfqKflL7RA1jFFdZGBmBWIzUa1+fqFhjrSwoi1Fn3U6H2USfAMNw7aO3WyHZ+b0bkuFXrzX/6D3ZxcPbsytv/7IV8oX479S2qYq142JtOgAAAABgbRpo4BbBWSqoicAnRll1I0KyCNK6sW3btmV9Rai3mgjfUtNdRtA0SGWj8eLnKynbL67raproE6AJEXBFQBYjzGK6yFQQ1mvN//CfJX++UsUoPAAAAABgbRpY4FY22mzPnj35FvWK6Q2LfUWIViXYSx1vt/tXFe2m1plbLfhqiykvi/tGrRRONtEnwKi4/tmH2eXpZ7KFAw+sOg3koCrWhwMAAAAA1p6BBW4TExPLgpmYXnJQYurDYn8xPWIVqakWB7VOWRxbsa9du3blj3YnNdVjTJFZpok+AUbV0uzr2eLUY9m5x+9NhmNldTbxs24r1oUDAAAAANaegQRuMUVjcbTYoKdnjJFznf1FxRpkVaRGcB07dix/tF6p4KrqSLE4tmIbsV5dmSb6BBgHN+ZPZVfemmxN+3h2593JsKxdZ7elf36r/jg7k/z5rTr7/f9d3iMAAAAAsJYMJHAbZnDVlhpRF9NEVpEaAXb8+PH80fosLi4u66eX0CraSU2Defr06XyLzzXRJ8C4uvbR29mlo3uy83s3JIOzVK0UtBUr2o3RdbHGXIR9AAAAAMB4qz1wS60TtnHjxoGthdYW01V29hlVNeRLjZKL0Xp1m5mZWdZPr2vbxZSQxbZS591EnwBrwc3LC61g7OLh7dn87i8nA7RinfnT9M/Lav7Re1qj62KNuQj7AAAAAIDxUnvgFmueFcOYYazxNT09vazfKuuTpYLC+O9B2Ldv3x39RPUaWKWCxtT1bqJPgLXo3J//p8nQrO6K9d4uvTSRXT15tBX6AQAAAACjq/bALTUtY4Rwg5ZaNy6q21ApFUjFqLBBSI0Q63VKxiNHjixra/fu3fmjn2uiT4C1KEa6pQKyQde5x+9t9X35jeeza5+8kx8NAAAAADAKag/cUsFVrPs1DDHKqth3hHAx+m0lqZBw69at+aP127Jly7L+enXixIllbaWOvYk+AdaiGHGWCsS6qz9K/Ky3OvvwXdnCgQdaa80tfTCT3bx2NT9CAAAAAGDYag/cInjpDGJi/baVxCirubm5/L/6E9NCbt68+Y7+2xVhXGodudT0iNFGr6O/ulEcibfaNVpJHGdnW1GpqTCb6BNgrbrwsweTIdhKdXbHF1trtaUeq6vOP/nVbPGFndmVtyazG/On8qMFAAAAAAat9sCtGOx0jnyKaR9jNFlMPxiBT+d27dq2bVsrBOs1hIswqCx0i1CoPdotprkshoNRgw7bUmFV9NmrGD1YbC+qUxN9AqxlNy6cyeZ3fzkZeqXq7M67b08DGUFYBGIRjEVAltq+roqAL8LBS6/ub42CAwAAAAAGo9bALUaQFUOYiYmJ1hSEqTXEVqvYt5fpKFcK3aJS0ytGxTEOMmwLdYdfodheVKcm+gRY6yI4O793QzLo6qxYe22lNddiKsgIw2JqyJgiMqaKTLVTV8UxX3ppojU1ZgSHAAAAAED/ag3cUsFOccRb1YpgqJcQLMK/GCnXTf8x2u7YsWP5noN16tSpZf3HqL5+FNuL6tREnwDrxeU3nk+OdovRZTGyrJe11SKgi3YvHt7eCuyKbddZcewXn9uaXZ5+Jrv20dv5EQAAAAAAVQw8cCurCHx27NjRqpVGo0XFiLTU+mvdiGOKqSRT7bYrjiGmmByGGO2X6r8fqevXqYk+Adab9ki1qLpHjt28vJAtzb7eGpm2sP/+ZHBWV8UIu+gjRtxFn9E3AAAAALCyWgO3CK2KIUy7YqTZnj17suPHj5eGZzMzM6Xh2IEDB/Ktuhd9lU0fmaqYwjLWmRskgdv6035tKaVUnfX+a7/IPpr8UfYf9z2Qnd71z5LhWV11+odfzj75m/9PNjf1dPbezL9NHo9SSimllFJKKaWUUuNQg9Juv5bALRXsRO3bt6/rtdhiuwiDim3EtI/djnKLUW1la8a1R9alHouKYHB6ejpvqX6pa9Tv9I7F8CuuVacm+uRz7deW6q3e+vt3s70v/UP20HMns/v2ncj+87860fr/E1P/kL3y5jvJfZRaj/XeW69lH/6PP84+/tvvZZ9O/GfJ4KyuOrPjn2T/8amvZ79/fmf2wav/bfbuyb9PHpNSSimllFJKKaWUUqNWg9Juf2CBW4xqq2pubm5ZO1ExYm01Mcouwp/ivhEQxQi6tvj/W7duXbZduyYnJ/Mt65VaTy2OrR/FdeqK7TXRJ9Th5ZNns6/vP9kK2cpq/2ufZEvXb+Z7AJ1iestYR+7Czx7Mzu68Oxme1VXn927IFqcey668/cvsxvyp/AgAAAAAYH2oNXBLreEW0zT2Yvfu3cvaOnLkSP5oWoxMKwZBUTEdZdnouGPHjiUDuvZ+dUtdo37DqmJ7xekim+gT+vX0K6eSAVuqHjr8frZ49Xq+J1Dm+mcfZlfemswWX9iZnX/yq8ngrK6af/SeVtB3efqZ7NpHb+dHAAAAAABr08ADt16DmAjCim2tFIDFqLhi2Bb/vVpIF+K4Y4rFzn3bFaP26hRrxBX7iOPsVUzBWWwvwspOTfQJ/XjxN2eSwdpK9cTRj/O9gW7dvHb11ii4o3uyhf33Z2cfvisZntVV0cellyayqyePZjcunMmPAgAAAADG38gGbjF9ZLGtlUKd1Lps3YRtbTECLhW6xUiwbteO61ZqFF6vUtNvpqbxbKJP6MXphaVVp5Esq5kPF/JWgF5d++Sd7PIbz2cXD2/Pzj1+bzI4q6ui/egn+ot+AQAAAGBc1Rq4pUY+9Tp1YWrdsbLwLqaS7HbblURgmAqmulk7rootW7Ys6yP67kXq3A8dOpQ/+rkm+oRePPvGp8kwrZt65BdzeStAXWIkWoxIi5FpMUItFZzVVTHCrjUK7uie1si7GIEHAAAAAOOg1sAtpIKdXkaIzc7OLmunbD24ffv2Ldt2ZmYmf7SaVFtTU1P5o/XYtWvXsj56Pd7JycllbaWOt4k+oRexHlsqTLtVK49827DvRPbbTy/lLQGDEmuyxdpsF5/b2lqrLRWe1VWx1lysORdrz8UadAAAAAAwimoP3GLax2IYE1MQVpUaRRVBT0pqKshYt6wXqbXjIoSrU6xFV+yj1xFiqak0U9e7iT6hF71OJ1msGO3201/9IXvl3fns1PyVvHVgEG7Mn8quvP3LbHHqsez83g3J4KyuioDvws8ezC69ur81Cg4AAAAARkHtgdvBgweXhTG9jH5KtVM2Imvjxo3Ltu3ViRMnlrVV9/pkcR7FPnqZAjOm8CxOgRnXIqWJPqEXqfCsjoogL0K4mLIy1nqLteKAwYkwLKaGXDjwQHZ2593J8KyuipAvwr6Y+jKmwAQAAACAYas9cEuNTIvpDKvaunXrsnZiXbeUTZs2Ldu21xFXR44cWdZWjA6rU2qtu6iy8yuTutZl02420Sf04rvPv5cMzDrrX/51+udV6/6fvJM9+uLvsp+/eTr79e8vZOcuXcuPAqhbTAcZ00LG9JAxTWQqOKur5nd/uTXdZUx7GdNfAgAAAMCg1R64xXptqRFnVQKw1GisCODKpKaUjKkhe5GaejFCuLqljrlKsBfXefPmzcvaWOk6N9EnVPX0K6eS4diw6jvPzmY/OvJRK4Q7+cnFbOn6zfzIgDrdvLyQLc2+fmsU3P77s7MP35UMz+qoaDv6iL6iz+gbAAAAAOpUe+AWUqFVt9MXxtprW7ZsWbb/8ePH8y2WS00/GaPeqq7jNjs7u2y6xKiV2ol9Oo83Aqn42WpSoWJUN/uG1DnH+nkraaJPqCqme0wFYd3V3yd+1n/FqLsnjn6cvfibM60QDhiMa5+8k11+4/ns4uHtrVFqqfCsrjr3+L2tfmLUXYy+AwAAAIB+DCRwixFPxWAmKtZCi1FSZSL4SU0PuVqoE/sV94mKEV2nT5/Ot1pZrN2W6nu19dtSo8ZWGo3XKTVtZowOXCkAi+u3b9++ZftFdTPSrIk+oaoYYZYKvlaqb/703WzHfz/XmiYy9XjdtX3yg2z/a59kL588m82duZwfOVCnWI8t1mW79NJEa4RaKjirq2KduVhvrjUK7oOZ7Oa1q/lRAAAAAMDqBhK4hQiqUgFNjAY7dOhQa7RVhGER9ExNTbXWAUuNLoufdbPOWLRZ3LddcSwRqBXDofhZHEeMvkvtF+HUSgFhSE2fGdWN6D91zlFxPeLYYpv2ccY5pkb/RcVj3WiiT6gq1lKLqR1TQVeqImTrDL1OLyxl0++dy55949PskV/MZV/ffzK5X90Vff30V39o9X1q/kp+NECdYk22S6/uzy787MFs/tF7kuFZXXV+74Zsceqx7Mrbv8xuzFdb8xQAAACA9WVggVsEVWVBVrcVwdD09HTe4uoiMEq100tFkNbN6LjUvlHdirAxtX+V2rVrV95ad5roE6qK0CxGkaWCrc6K6R67GWEW27zy7nwrEOum3Toqgr4I4WI9uJgqM84JqFcEYRGIRTAWAVkqOKurIuCLoO/y9DOt4A8AAAAA2gYWuIXFxcXklIvdVEzvGKOsqoiQr2zqwyoVI7q67Ts1DWX8rIrJycnSUWerVayrFuddVRN9Qi9iysbUaLdvPfNu9sLxz7Kl6zfzLav77aeXWu0//cqp7KHD7y/rYxAVx/3oi79rhXC//v2FbPHq9fxogDrEVJAxJWRMDRlTRMZUkanwrK6KqS5jysuY+jKmwAQAAABgfRpo4NYWo9Q2b96cDG+KFSPLYqrCfgKdGJl24MCByoFSBG0RRFXpO/opthM/qyqmzawyIjCCzOPHj+d796aJPqFXEayd/ORiq2LKyUGJ9iPIe+Lox63Rc6nQrO6KQDHWrYt+o/9+QkRgueuffZhdeWsyu3h4e3bu8XuTwVldNb/7y61+Lr/xfHbtk3fyIwAAAABgrRtK4NbWXhMsRqFF0NNZ8bO6w5wYYRcj1aLPqGKfURGOHTt2rKt14srE/u0+4v/3Y35+Pjty5Ehr3bnise7evbsVCHYz1WUVTfQJ4yJGoEUIFiPSYmRajFBLhWZ1V4R9MfLuxd+cafUP1Ofm5YVsafb1W6Pg9t+fnX34rmR4VkdF261RcP/YV/QZI/AAAAAAWHuGGrgBrAUxwi7WZIsQ7pFfzGX3/+SdZGhWd8Xac/tf+6Q1DWY369YB3YvRaLE228XntrZGqaXCs7rq/JNfzRZf2NkadRej7wAAAAAYfwI3gBqcmr+STb93Lnv2jU9bIVwqMBtERV8//dUfWn3HMQD1iPXYYl22WJ8tRqilgrO6KtaZu/CzB7NLr+5vrT8HAAAAwPgRuAEMSIxCe+Xd+daotBidlgrM6q6v7z/ZCuFi9F2Mwhvkenew3kQYFqFYhGPzj96TDM/qqvN7N2SLU49lV97+ZSv861XsW5w6M/5/tG2NOQAAAID6CNwAhui3n15qrcsW67M9dPj9ZGhWd8W6c7H+XIRwsR5crEsH9O/G/KlWIBbTQ8Y0kcXQrM6KaS5jusuY9vLaR2/nR7Cyy288v+r6dHHs1pUDAAAA6J/ADaBBS9dvtkKwF45/lj1x9OPsO8/OJkOzuiv6if6i3+g/jgPoTwRXrVFwMaLswAOtqSJTIVddFSPVoq+l2dezm5cX8qO45eLh7cl9UhVhYXF/AAAAAKoRuAGMmBiBFiFYjEiLkWkxQi0VmtVdMeIuRt7FCLwYiQf07/pnH7ZGmkUAdu7xe5OBV10V7Uc/F579bvLxlSpGzwEAAADQO4EbwBiItdhiTbYI4WKNtvt/8k4yNKu7Yu25WIMu1qKLNemA/sRIshiR1l5XLRV+NVVXTx7NjxIAAACAqgRuAGPq1PyVbPq9c9mzb3zaCuFSgdkgKvqKPqPvOAagP7EmW6zNFqPMYq22VBjWbZ1N/KzbigAQAAAAgN4I3ADWkBiF9vLJs61RaTE6LRWY1V0x2i5CuBh9F6PwYjQe0LsbF860RpstTj2Wnd+7IRmOldXZbemf36o/zs4kf36rzj58V34EAAAAAFQlcANY42I9uFiXLdZn++7z7yVDs7or1p2L9ecihIv+Y106oHdLH8xkl17dn1342YPZ/KP3JAOzlWqloK2zLv/PB7Ob167mvQIAAADQLYEbwDqzdP1mKwR74fhn2Y+OfJR959nZZGhWd0U/Txz9uNVv9B/HAfTmxvyp7Mpbk9niCzuz809+NRmeldWZP03/vF0x0i2CvWg/1pwDAAAAYHUCNwBaI9B+/fsLrRFpMTItRqilQrO666HD77dG3sU0mL/99FJ+NEBVMSotRsHN/+CfJkO0firWdos15iLkAwAAACBN4AZA0umFpdaabBHCxRptX99/Mhma1V2x9txPf/WH7JV351tr0gHdu3h4ezI0q6tiNN2lo3uya5+8k/cIAAAAQBC4AdC1U/NXsun3zrUCsQjhUoFZ3RVBX/T17BuftvqOIBBIu3ryaDIo667+KPGz8prf/eVsceqx1sg6AAAAgPVO4AZAX2IUWkwJuf+1T1qj01KhWd11/0/eaYVwMfoupsI8d+lafjRArL+WCsgGWfOP3tMaXReBX0xvCQAAALDeCNwAqN3JTy5mL/7mTGt9tu8+/14yNKu7Yt25Hx35qBXCRf+xLh2sRzcunGmNPksFY6k6u/Pu7NLrP80WX9jZCs5S21Spsw/flV18bmt25a3J7OblhfyoAAAAANY2gRsAA7d0/WYrBHvh+GetUOw7z84mQ7O6K8K+J45+3Oo3+of14sb8qez83g3JQKyzzj1+77L12OK/Y6rIeCy1T9VaOPBAdvmN51vHBAAAALBWCdwAaERMAxnTQcaItEdf/F1rmshUaFZ3PXT4/dbIu5gG87efXsqPpndxHnEOMcVlrDcXfcT/j3XuYrpNaFIEXanRbjGS7dKr+1ed/vH6Zx+2tjv/5FeXtdFLRTvRXrQLAAAAsJYI3AAYGacXlrKZDxeyZ9/49I4Aa9AVa89FQPbKu/OVQrII7VY7xljbLkb4QZMiWFv6YKZVMeVkL2K/CPBixFoqTKtaMYIuRtJd++jtvAcAAACA8SVwA2CknZq/0grCIhCLEC4VatVdEaJFXxH8Tb93rhUEFsUoudS+qYpRddaUYy2JtdlijbZYqy3WbEsFalUqRtzFGnJXTx7NewAAAAAYLwI3AMZOTAUZo8ti9FiEWamQq+6KKS9j6suYPnLfv+s+bGtXrCUHa1UEZRcPb28FZ6lArUpFgBdB3pW3f9kK9gAAAADGgcANgDXh5CcXsxd/c6YVbH33+feSoVfTFdNlwloX01bGVJGpteN6qQs/e7A1lWWvU2ECAAAADIPADYA1KdZNixAuRqT96MhH2XeenU2GYMOsGI0Xx5SaohLWouuffZhdOronO//kV5NhWtWKdi5PP9NqFwAAAGCUCNwAWDfOXbqW/fr3F1ohXEwPGdNEpoKx3utk4mcrVxxDrBfXrji2dsWIuAjohHSsBTfmT7XCsoX99yfDtKp17vF7s0svTWTXPnkn7wEAAACgOQI3ANa1CLIi2Hr2jU9bgdfX91cPzYZd33rm3dsBXXtduXZFoNgO6SJghFEUa7NdeWuyNV1krNmWCtSqVKwdt/jCzmxp9vW8BwAAAIDhErgBQMGp+SvZK+/OZz/91R+y7ZMfJEOvcavOkC6m2OwM6doBXdTi1ev5VYDhuHntanbl7V9mFw9vz87uvDsZqFWpaCPaijajbQAAAIBhELgBQBd+++ml7OWTZ7uahvJf/nX65+NWse5dO6R74ujHtwO6F45/dkdIF+vlQV2WPphpjVab3/3lZKBWtWIUXYymu3HhTN4DAAAAQP0EbgBQwdOvnEqGU+pWfff595Ih3Yu/OXNHSAfdiPXZYp22WK8tFaZVrfN7N7TWkYv15AAAAADqJHADgApivbdU0NRNPfh3v70dRqUeX6/10OH3b1+XCDRTIV2MMGR9i5AswrIIzVJhWtWKEO/S0T2tUA8AAACgXwI3AKgo1kBLBUcrVYz8Kpt6ce7M5dvBUkxb2Q6c9r/2ye0gaq2sJVdXxfVoX5u4Tu1rFtevfS3jurI2xfSQl994vjVdZCpMq1oxfWVMYxnTWQIAAAD0QuAGABWdu3Sttb5ZKghKVaz7Vnf4EyO+2sFSjARrB04xQqwdRMXIsdTxrNdqX5eon/7qD7ev2Svvzq/ZkC6eq3GOcc5f33/y9nWI818r53rz2tXsytu/zC4+tzU7u/PuZKBWpaKNi4e3Z1dPHm21DQAAANANgRsA9OD0wlJXo85iZNuoBBvtUKkY0sVaa+0gKo43dR7rsSKgal+XqGff+PT2NZt+79zta3lq/kp+hUdLjPZrh2xlFaMDy0Zejqul2ddbo9XmH70nGahVqbMP39UaRXflrcns5uWFvAcAAACA5QRuANCHCDVSo92+9cy72QvHPxvrMCOOvTOki/NpB04xrWY7iKoy2m+tVzGka1+vqFj/r30tI7AdpBjpmDq+VMVIyMWr1/M915ZYn21x6rHWem2pQK1qLey/vzWVZawnBwAAANBJ4AYANegMp2Iav/Uqgpv2dYjqDJw6Q7oIJFPhz3qsmHK0LKT79e8vVH5exejFVD8rVYxyXOuuf/Zhdnn6mez8k19NhmlVK9q5dHRPq10AAAAAgRsA0KgIktqhUgRMnYHToy/+TkiXqLgW7esS16h9vQ5M/yG7b9/K00iWVYzAWy9uXDjTGqm2cOCBZJhWteZ3f7k1km7pg5m8BwAAAGC9EbgBAGMnpmRsh3QRFHWGdO0gKipGj6XCJbW84nqtR7E225W3f5ldfG5ra822VKBWpWLtuIuHt2dXTx7NewAAAADWA4EbALAunJq/cjukm37v3O2A7tk3Pr0jpIt12FKB1PjXyuf1L//6ROt6xLX57aeX8qu2/kRQFoFZBGepQK1KRYAXQd6VtyZbwR4AAACwdgncAABKdIZ0r7w7fzuk++mv/nBHSJcKsNZCfefZ2db5xTm/fPJs6zrEeoXrxbWP3m5NFRlTRqYCtaoVU1jGVJYxpSUAAACwtgjcAABqNHfm8u2QLkKqdki3/7VPbgd02yc/SAZc41IxVWecRwSPLxz/rHWusRbfWnb9sw+zS0f3ZOef/GoyTKta0c6lV/e32gUAAADGn8ANAKBhMYVjKqR7+pVTt0O6hw6/nwy/qlZMHZn6eV0VxxrHHcf/699faAWQa82N+VOtkWoL++9PhmlV69zj97ZG0l375J28BwAAAGDcCNwAAMZQO6CLevE3Z1oBV12h3CAqju3RF3/XOs5YJy6Oey2ItdlijbYLP3uwtWZbKlCrUrF23OILO1tryQEAAADjQ+AGALBGzHy4kAy7uqu/T/xs8NVeJ+7ZNz69vU7c4tXr+RmNl5vXrraCsouHt2dnd96dDNSqVLRx8bmt2ZW3f9kK9gAAAIDRJXADAFhDfnTko2SwtVJ9+9nfZv9udr41+iz2H4WRcu114mLtu/Y6cacXlvKzHA9LH8y0RqvN7/5yMlCrWjGKLqayvHHhTN4DAAAAMCoEbgAAa8i5S9dao8ZSIVaqItgqW2ft1PyV1jpsnevJpdoYdm2f/CB74ujHreOKUX3jsE5crM926eie1nptqTCtap3fuyG7PP1Mdv2zD/MeAAAAgCYJ3AAA1pgYCRahVCqs6qzvPv9eT2FVhHox4ixGnv30V39oBXER3KX6GGbF+bTXiXvl3fmRXSfuxvypVlgWoVkqTKtaEeJdemmiFeoBAAAAzRC4AQCsUbEmWmq027eeebcVli1dv5lvWY9oL0Ku6DdCrwjiqoy2G1TF+bbXiXvxN2dGap24mB7yyluTrekiU2Fa1YrpK2May6XZ1/MeAAAAgGEQuAEArHHtICwqRqc14befXsqm3zs3UuvEfX3/yVYQF9NlxnHF9YlpNJty89rV7Mrbv8wuPrc1O7vz7mSgVqWijYuHt7fajLYBAACAwRG4AQDQmFFeJy6CwTiuWCcuAsNhi1FqMVpt/tF7koFalTr78F2tUXQxmi5G1QEAAAD1ErgBADByRnmduDiWCOLa68TVPTVnSqzPtjj1WGu9tlSgVrUW9t/fWkcu1pMDAAAA+tdY4HbixIns0KFD2Y4dO5bV7t27W4/FNnVrqt8q5ubmWsexa9euZce4b9++7NixY9ni4mK+dT2a6BMAoKpRXycuwsEICQc5fef1zz5shWXnn/xqMkyrWhHiXTq6pxXqAQAAAL0ZeuA2NTWVbdy4Mfva177WVcW2Efb0q6l+q5iens62bNmSPJ5ibdiwIZuYmMjm5+fzvXvTRJ8AAIMwiuvERUUQ114nLqbPrHOduJge8vIbz2cLBx5IhmlVa373l1sj6ZY+mMl7AAAAALoxtMDt+PHjXQc7xdq0aVPeSnVN9VtFjByL0XWpY1it4hjjHKtqok8AgCaM6jpxEQi214mLoLDfdeJuXl7Irrz9y+zic1tba7alArUqdXbn3dnFw9uzqyePZjevXc17AQAAAFKGErj1Gux0Vi+a6reKCL42b96c7LtKVZkGs4k+AQBGzaiuExdTZMaxRBAXU2f2uk5cBGURmM0/ek8yUKtSEeBFkHflrclWsAcAAADcaeCB28GDB5NhTUzZGGuDRWhz6tStxdqXlpZa/z0zM5MdOHDg9si02LaqpvqtqiwU3Lp1a2sazDiudsUUl7GmWmr7ONbTp0/nra6siT4BAMbFqK4TF2FgHMv+1z65vU7c6YWl/KhXdu2jt1tTRcaUkalArWot7L+/NZXljflbf08DAADAejfQwC0CrFRQE6FWhFzdmJubux2Mdaupfqs6cuRI8jjj5yuJECzWUyvuF0HaaproEwBgrRjldeKeOPpx67hi+sy5M5fzI17u+mcfZpeO7snOP/nVZJhWtaKdS6/ub7ULAAAA69XAArcIq1IBTYRhg9RUv1VF8BdroRWPc7Xgqy1GohX3jYqgsEwTfQIArAejvE7coy/+rnVcERTGqLhOMUItRqrFiLVUmFa1YgRdjKSLEXXduHHhTCv8i/7b687F/2+18ck7+VYAAAAw+gYWuE1MTCwLZiKwGbSm+q0qFV7t2rUrf7Q727ZtW9bGnj178keXa6JPAID1bNTXiXv2jU+zF39zpnWMi+fnW2u0XfjZg7fDr34q1o6LNeRiLbmUCPpW62fxhZ3ZzWtX8z0AAABgdA0kcJufn182yizWBxu0pvrtRRxX53FGVZ3CMqZ5LLaxefPm/NHlmugTAIDlRnWduK/vP9k6lr959XfZK7/477JTf/u97H995O5kGFalIli7+NzW7Mrbv8xuXl5oBXGp7VIVU1bGPgAAADDKBhK4HTp0aFkoE0HNoDXVb1WLi4vLjrOX0GppaSk5febp06fzLT7XRJ8AAFQ3iuvEbf/LQ9krE1uzj3b+n5OhWLX6o8TPVq4I6wAAAGCU1R64RSBTXCcs/jt+PkhN9duLWE+u8zijep2Wcffu3cvaSoWMTfQJAEB9RmWduH/9b6ayZx7bkZ18+EvJcGxQVTY1JQAAAIyC2gO32dnZZWHMgQMH8kcHp6l+e7Fv375lx9prYHXw4MFlbaXOu4k+AQAYvCbXidu851j2V3/+WPbmI19JhmTFOpv4Wbe1sP/+/IwBAABg9NQeuE1NTS0LYyIMG7Sm+u3Frl27lh1rr1MyHjlyZFlbMQKtqIk+AQBozrDXifvmnuls4i+eyo794P5kYBZ1dlv657fqj7MzyZ9/XhG6xfSSl47uya68NZktfTCT3bhwJj9jAAAAaE7tgVtqJFWsHzZoTfXbiy1btiw71l6dOHFiWVtbty5f46KJPgEAGE2DXifuvr3Hs92P/3V25Affyj7e/sVkeNZZqwVt3dT5J7/aCuQWpx5rBXJLs6+3AjkAAAAYhtoDtwheOoOYjRs35o+kzc3NtQKcfjXVby82bNhQ6VhXEqPUOtuKirXriproEwCA8TKodeIemTiYvfDov0oGZcU686fpn/dV378r+8Oe/zI7/5MHWmHc5elnWmHc9c8+zM8cAAAA+lN74FYMdrZt25Y/8o8f4E+dyiYnJ7MdO3bcsU1nxUisWA8sArEqmuq3qlRYtXnz5vzR6mIUX7G9qE5N9AkAwNpR1zpxJx/+UjoQa7h+/1//0+y9x+/LTvzV/zd782//PPtfXvx59tuZf5e9M/eH1nnH9JwAAACwkloDt6WlpWUhzMTERDYzM9MKwIqPrVaxLlg364w11W8v6g6/QrG9qE5N9AkAwNpXdZ24qV3fTgZeo15v7/jn2b/f+S+yv/vhtuzQ4zuz/T/7RfZXB19qne+zb3zaOveouA5xPdolqAMAAFg/ag3cUsFOvxXB0GrhV1P99iJG2xX76hyN14tie1GdmugTAID1LbVO3K7Hf5IMtLqrP0r8rPn6dNsXWmHcsR/cnz3z2I7syR9NZNv/8lD24FMv3xE2fuuZd1sBXbsEdQAAAGtLY4FbBD4xxWNUhFupbdoV0z0uLS3lvSzXVL+9iHXjiv3EsfQjdR6dmugTAACKYl24CKZSwdVKFVNRfvfJX7aCrL/688dawdZrf3ZfK+hKbT9KNfv9f9Y6zljDLo47Qsc4j288PXNHIFdWgjoAAIDxUGvglgp22hVrrO3Zsyc7fvx4aYgVU0Bu2rQpuX+sr1amqX57IXBbf9qvLaWUUkqp9V6Tr7+TfXPPdCuESoVTqfp4+xezf/1vprL/109PZA89d7JV9+1bHkxFiPXIxMFWqPXz/+ahVsg1qmvGddabj3yldaxx3D/evat1Ht97YnLZ+VWt/+pvPr9eUXtf+ofb9Xev/EP20hvv3K7U70oppZRSSiml1moNSrv9gQZuEVotLi7mW60stoswqNjGxo0bSwOzpvrtRepY+53esRh+xTF3aqJPPtd+bSmllFJKqXezHf/tyWzznmOtoCkVQHVWBGYRtn37b09mJ/4h3d5bf//uHeHR/pc/D5Z+9D/8Qyts2vmzX2VP7j+UPfH4U61g68gPvtUKuea+/yfJfkelImyM44zjjeNuT1cZ1y8VstVRD3QEm+s9qIvnVpx3XId2yBv/f2LqH7JX3hRUKqWUUkopNa41KO32Bxa4xeiyqubm5pa1ExWj1FKa6rcXqfXUIrzqR4ziW6m9JvoEAICUc5euZd95drYVXkSAlBrtFkFYjPa6b+/x7P6fvJPNnbmc712fOI72VIyzb/+H7NiRl7OZZ/8ye/Nv/zyb/dF92W9++F8sO65RqwgkI5CLEX2d01XGdesM0YZR8TuNKS/b1Z72MuqVd+fvmPpyHMR0nV/ffzJ5ru3a/9onpvEEAABuqzVwS62lNjExkT9aze7du5e1deTIkfzROzXVby9Sx9pvWFVsrzhdZBN9AgBAmdMLS9n2yQ9uBxcREEVQFBVTTrZ//t3n3xtI2FbFzWtXs6UPZrKrJ49ml47uyeYP78j+sOe/zE7v/r8lQ7BRqgjjYq27zukqY8Rg+/qOQo1iUBdrDaaONVUPHX4/W7x6Pd8TAABYzwYeuPUaxBw7dmxZW2XrqTXVby/m5+eXtR+jxXoVU2EW24vQsFMTfQIAwGpiFFF7tFtnfeuZd7MXjn82FqOHbsyfagVyl994vhXIXXxua7aw//7s7M67kyHYqFSMIuycrnLiL55aFniOcg0qqHvxN2eS/a1UTxz9ON8bAABYz0Y2cEtNE1kW6jTVb6+K0zFG9So1DWZqOs0m+gQAgG5EsNYOR2Kqx7Xk2kdvtwK5COOiIow7v3dDMgQbpXp7xz+/Y7rKRyYOtgK5VOA0TrVSUPeLX5/J7tu38jSSZTXz4UL+GwcAANarWgO3paWlZUHMpk2b8kerSa07VhaiNdVvr7Zs2bKsjwgNezE9Pb2srUOHDuWPfq6JPgEAgHI3Ly+0wrgrb/+yFcYtvrCzFcjN7/5yMgQblfp02xfumK7yr/78sVYY9+BTLyfDqPVQEd4BAADrW62BW0gFOxGIVTU7O7usnZXWZWuq316k1ombmZnJH60mgq5iW1NTU/mjn2uiTwAAoHfXP/vwjukqL/zswVvTVT58VzIIG5VqT1c5tevbrUBu9+N/3QrkvvH0TDKsGo9aeeTb1/efzH9rAADAelV74JYKdmIKwqpSo6gmJyfzR5drqt9epAKrXkeIxei7Ylup826iTwAAYHAijLs9XeVLE7emq3zyq8kQbJTq7x+5txXI/d0Pt7UCuQjjvvfEZDLIGqc6vVD9C58AAMDaUXvgdvDgwWVhTC+jn1LtrDQiq6l+e5FaJ66XaSsXFxeXtbNx48b80Ts10ScAANCMGxfO3DFd5cXD229NV/noPckQbFTqzPe/kL3/+Nezd598IJt5Znd2eP/T2f6f/SJ74tDr2beeeTcZdA2qvrlnuhUIRjgY02jG8bXXtfvX/2Zq2fYCNwAAWN9qD9xSI8R27dqVP9qdmAoy1mArthPrq5Vpqt9eRD8bNmzou5/UOZdNf9lEnwAAwGi6PV3l9DOtQG7hwAOtQK4YgI1axfp2cZwXJndmH73wl9n7r09lv535d9m//fVH2c/fPN2qZ9/4tLWmWrt6Ceqe/NHE7ZCtrF549F9l9+09fnufxavX86sLAACsR7UHbhHsxIinYihTZcrBGJlW3H/r1q35o2lN9durCAOLfe3bty9/dHVxvqlwcKXzbaJPAABg/LSmq5x9vRXGLU491gq5zj1+bzJ4GqU6v3dD61hb02y+ur91Htc+ejs/q388r+s3s5OfXLxdL588ezuo2/rz91vBWaw9l2o7VW/v+Oetten+yx//g8ANAADWudoDt3DgwIFlocy2bdtagc1qTp8+nQx1YkrE1TTR7+zsbLZly5bb22/evLn1s9XENJWd/bSrm/MMEZQV94117FbSRJ8AAMDacnu6yrcmb01X+dzWsZiu8uzOu1vHGccbx335jedb53Fj/tasHzMfLmR/9eePJfddqY784FvZf/5Xf59959nZbO7M5VZbAADA+jOQwC1GPBWDmaiYenCl8CuCn9QotW5DnSb6jUCvuF+3o+Jiu+K+cRwrBWCxhtqePXuW7RfVzUizJvoEAADWj2ufvNMKsmKEWWu6yv33tyoVVo1SnfvR/+Uf//ePl/28m9r1+E9ao+O+vv9kNv3eufxKAAAA68lAAreQGm0WFSPA4rFjx461Qp6oQ4cOtcKt1Bpj8bMq64wNu99UUBfVjTiGVN9RMf1jrJfWPtYjR460jj81Ci8qpsPsRhN9AgAAhJvXrrbCuKsnj96arvKFna0wbhSmqzyb+Fm39e93/ovba7lF/fRXf8jPGAAAWC8GFriF1JphVSqCoQiAqhpmv6n9o7qVWjeualWd1rGJPgEAAFYT0ztGIBfTPXZOVxnTQaaCrjrr7Lb0z2/VH2dnkj+/VZ9u+8IdgVvUI7+Ys64bAACsIwMN3GIaxx07diQDm9UqRlXFKKteDLPf1Oiv+FkVk5OTpaPOVqvYtxdN9AkAANCPax+9fWu6yqN7bk9XeX7vhmQIVletFLR11uY9x5aFbtZ1AwCA9WOggVvb8ePHk2uHpSqmaIypHldac61bw+g3NYVl/KyqmL6yysi8GGE2Ozub792bJvoEAAAYhJuXF1ph3JW3f3nHdJXzu7+cDMh6qTN/mv55VCpwi7KuGwAArA9DCdzaIqyJ6Qwj2IoRaO2amJho/WxQYc6g+43pJ6OdqJmZmfynvVlcXGytMxdtRRjWebzxsziP+fn5fOt6NNEnAADAMF3/7MM7pqu88LMHb01X+fBdyQCtan3j6Zlk4NYu67oBAMDaNtTADQAAAEbRwoEHkkFat/XGE/9q1dDNum4AALB2CdwAAABY966ePJoM0rqrP2r973985P+Ybf/LQ8mwrV3WdQMAgLVJ4AYAAAD/KKaZXB6mVa/Df/797L69x5OBW5R13QAAYO0RuAEAAMA/unHhTDa/+8vJEK2szvxp+uezj/yn2YNPvZwM3NplXTcAAFg7BG4AAACQuzF/Kju/d0MyROuss9//QmnY1q7T27+Q/Xj3rmTY1i7rugEAwNogcAMAAICCy288nxztNv/oPdmlV/dnNy5fyC4e3r7s8VT9+53/Ivvmnulk4BZlXTcAABh/AjcAAAAocfPa1Wzpg5lWxZSTRUuzr7dCuFTQ1lkfb/8n2cRfPJUM3KKs6wYAAONN4AYAAAB9iCBu4cADyaCtWEd+8K3sG0/PJEO3KOu6AQDAeBK4AQAAQA2uvDWZnd15dzJo66y57/9J9sjEwWTgFmVdNwAAGD8CNwAAAKjJ9c8+zM7v3ZAM2or1dz/clt2393gydLOuGwAAjBeBGwAAANTs0qv7kyFbsU4+/KXse09MJkM367oBAMD4ELgBAADAAFz76O3s3OP3JoO2zvp02xeyH+/elQzdoqzrBgAAo0/gBgAAAANy89rVbPGFncmgrVhvPvKVbPOeY8nQzbpuAAAw2gRuAAAAMGBLs69n84/ekwzaOuvj7V/MJv7iqWTo9q1n3s1+++mlvEUAAGCUCNwAAABgCG5eXsgu/OzBZNBWrGM/uD/7xtMzy0K3WNft5ZNn8xYBAIBRIXADAACAIbry1mR2dufdyaCts+a+/yfZIxMHl4VuUftf+yRbun4zbxEAAGiawA0AAACG7Mb8qez83g3JoK1YLzz6r7L79h5fFrptn/wgO3fpWt4iAADQJIEbAAAANOTSq/uzsw/flQzaOuvkw1/KvvfE5LLQzbpuAAAwGgRuAAAA0KBrn7yTnXv83mTQVqwf7961LHSzrhsAADRP4AYAAAANu3ntanbppYlkyFasNx/5SvbgUy8vC96s6wYAAM0RuAEAAMCIWJp9PZt/9J5k0NZZH2//YjbxF08tC92s6wYAAM0QuAEAAMAIuXl5Ibv43NZk0Fas1/7svuybe6bvCN2s6wYAAMMncAMAAIARdOWtyezszruTQVtnzX3/T7JHJg7eEbpZ1w0AAIZL4AYAAAAj6saFM9nC/vuTQVuxpnZ9O7tv7/E7gjfrugEAwHAI3AAAAGDEXXp1f3b24buSQVtnnXz4S9n3npi8I3SzrhsAAAyewA0AAADGwPXPPszOPX5vMmgr1t/9cNsdoZt13QAAYLAEbgAAADAmbl67ml16aSIZshXrzUe+kj341Mu3QzfrugEAwOAI3AAAAGDMLH0wk80/ek8yaOusT7d9IXvyRxN3jHazrhsAANRP4AYAAABj6Oblhezi4e3JoK1Yr/3Zfdk390zfDt2s6wYAAPUSuAEAAMAYu/L2L7OzO+9OBm2d9fH2L2aPTBy8HbpZ1w0AAOojcAMAAIAxd+PCmWzhwAPJoK1YU7u+nX3j6ZlW6GZdNwAAqIfADQAAANaIS6/uz84+fFcyaOus2e//s+x7T0zeHu1mXTcAAOiPwA0AAADWkOuffZid37shGbQV6+9+uC27b+/xVuhmXTcAAOidwA0AAADWmJvXrmaXXppIhmzFevORr2QPPvWydd0AAKAPAjcAAABYo6599HY2v/vLyaCtsz7d9oXsr/78Meu6AQBAjwRuAAAAsIbdvLyQXTy8PRm0Feu1P7sv++aeaeu6AQBARQI3AAAAWAeunjyand15dzJo66yPt38x2/34X1vXDQAAKhC4AQAAwDpx48KZbOHAA8mgrVhTu76dfePpGeu6AQBAFwRuAAAAsM5cfuP57OzDdyWDts6a+/6fZN97YtK6bgAAsAqBGwAAAKxD1z/7MDu/d0MyaCvW3/1wW3bf3uPWdQMAgBICNwAAAFjHLr00kQzZinXy4S9lDz71snXdAAAgQeAGAAAA69y1j97Ozj1+bzJo66xPt30h+/HuXdZ1AwCAAoEbAAAAkN28vJBdPLw9GbQV69/v/BfZ//uvfmVdNwAAyAncAAAAgNuWZl/P5h+9Jxm0ddbH27+YTfzFU9Z1AwCAfyRwAwAAAO5w48KZbOHAA8mgrVhTu76d/dnh31jXDQCAdU3gBgAAACRdeWsyO/vwXcmgrbPmvv8n2Y+efs66bgAArFsCNwAAAKDU9c8+zM7v3ZAM2or1/GPbs//pN5/mewIAwPohcAMAAABWdenV/cmQrVgnH/5S9szkq9Z1AwBgXRG4AQAAAF259tHb2fzj9yaDts76dNsXsv/uqcey0wtL+Z4AALC2NRK4LS4uZjMzM9mBAweyHTt2LKtdu3Zlhw4dam0zKHNzc60+OmtycrL186bNzs62jqd9PTZu3Jht2bLl9n9PTU1l8/Pz+db1aKJPAAAAxs/Na1ezxRd2JoO2Yv2HnV/J3nnvo3xPAABYu4YauC0tLbVCnQ0bNmRf+9rXuqoIfo4dO5a3UI/jx48n+2pXU8FSBH6bN29OHlOqIpg8ffp0vndvmugTAACA8bc0+3p25gf/STJo66yPt38xm/nv/zbfCwAA1qahBW7T09PZpk2bkiHOahX71SVCvxi5leqnXcMOlGLEXwRZqWNZrSKQjGtbVRN9AgAAsLbcvLyQnf3xt5JBW7F+PfGt7OrF8/meAACwtgw8cIuAq9dgp7PqEiO6Uu131jADtwi+qowwK6sq02820ScAAABr1+L/8t9lf3j4nySDts766OF/mn3261fyvQAAYO0YeOAW67SlwpoYtXbw4MHsxIkTd0zheOrUqdbPYurJrVu3traNEVV1iH66mc5ymIFbWRgZ66ZFoBXXIkLL+N+YWjN+nto+rlFcu2400ScAAABr2435U9lHj/+LZNBWrN8//4PWWnAAALBWDDRwi7AmFdTs2bMn32J1EZLVFepMTEzccRwxteS2bdvu+FnUsAK3qampZX1HILjayLG4rqngcPfu3fkW5ZroEwAAgPXj91NPZ59u+0IyaOusU//N/zW79tHb+V4AADDeBha4zc3NJQOaGPHWhNnZ2WXHcvz48eTorWEEbjGCLLWmXbfTNKaCs6i47mWa6BMAAID1Z/63/yF7b+d/mgzainXh2L58LwAAGF8DC9xi5FMxmIlpIpvSnp6yXe2RWU0FbqnwquposdTovJVGDzbRJwAAAOvT1StXsjf++uFkyFasM0/9F9n1zz7M9wQAgPEzkMAttVZaBDVNOXLkyB3HEsfWDtWaCtyKAWAv/aam7Fxpvbsm+gQAAGB9e+N/+h+zue//STJo66zPdvzvsytvTeZ7AQDAeBlI4BbTRhZDmenp6fzR4YrwrziN4sGDB/NHmwncFhcXl/W5efPm/NHuxRSRqWk7U1M8NtEnAAAAhPc+Op298sMHkkFbsRYOPJDdvLyQ7wkAAOOh9sAttU5Y/Hf8vAnF8K94LE0EbhE+FvvsdVrG1NSdMXVkURN9AgAAQNu5S9eyZ/f9dfbx9i8mg7bOmn/0nmxp9vV8TwAAGH21B26zs7PLwpjOEWXDFKOuiscyMzOTP3pLE4Hbvn37lvUZUzX2Iq5tsa1ov6iJPgEAAKDT0vWb2d8ePZG9+chXkkFbsS4e3p7dvHY13xsAAEZX7YFbjHQqhjERwjWhGKbFfxc1Ebjt2rWrtj6L69NFxQi0oib6BAAAgJSXT57NDvxoV/bpti8kg7bOOvf4vdm1j97O9wQAgNFUe+CWGkkV64cNW2oKxdQ6Y00Eblu2bFnWZ69SIwq3bt2aP/q5JvoEAACAMr/99FK2bf+/zU4+/KVk0FasS0d7WxYBAACGofbALYKXziBm48aN+SPLxVpqJ06caFWdIVdqHblYyy2licCt2F8ca6/iWIvtpa55cZth9AkAAAAriXXd/uv/9t3s7364LRmyFev83g3Z9c8+zPcGAIDRUXvgtmHDhjuCmG3btuWPZNmpU6eyycnJZMjVrhiJFaPkIoTrVXGNsQiXykbZDTtwS4VVmzdvzh+tLs6r2F5Upyb6BAAAgG7Eum77X/sk2/6Xh7K57/9JMmjrrLMP35VdeWsy3xsAAEZDrYFbjCwrhjATExPZzMxMK3grPrZaxbpjVcOv2L4Y+sWaY2XGPXALxfaiOjXRJwAAAFQR67pt+uv/JZva9e1k0FashQMPZDcunMn3BgCAZtUauKWCnX4rgqHU2mtldu/efcf+q60tNuzALUb5FfvrHAXYi2J7UZ2a6BMAAACqinXdvvXMu9nEXzyVfbz9i8mgrbPO7rw7W5p9Pd8bAACa00jgFiPQIuhq12qj3yJ0K5sSstPx48eX7btaWDfswC2myiz2F8fQj7g+xTY7NdEnAAAA9CLWdds++UH2zT3T2Wt/dl8yaCvWxcPbs5uXF/IWAABg+GoN3FLBTrs2btzYWpttdnY233q5eCzWcEvtf+DAgXyrtJjOsrjvnj178kfLCdx6I3DrXvu1pZRSSimllFKquzrxD+9mP/of/iH7z//qRPbj3buyT7d9IRm0ddbpH345e/+1XyTbU0oppZRSql2D0m5/oIHbwYMHuxqhFiI4K04LGRWj4uKxMlNTU8u2n5+fzx8tNwqB22rTXq6mGH5FuNmpiT75XPu1pZRSSimllFKqWv3tv/2H7L59J7IHn3o5e3vHP08GbcX6+NnvZ++e/Ptke0oppZRSSg1Ku/2BBW7djDIriqAsArNiWzFlZEpq+wjgujHswC21nlqEV/0onnuxvSb6BAAAgDq013W7b+/x7O9+uC0ZshXr/N4N2fXPPsxbAACAwas1cEut4TYxMZE/Wk1MP1lsqyxEi1Cvc7sYvbXSaLhOww7cUteo37Cq2F5xusgm+gQAAIC6tNd1iykmv/fEZDb3/T9JBm2ddfbhu7LL08/kLQAAwGANPHDrNYg5duzYsrZS67jNzc0t265sJFzKsAO3GI1X7C9Gi/UqpuosthdTcnZqok8AAACo09L1m9n+1z5phW7feHomm9r17WTQVqyFAw9kNy6cyVsBAIDBGHjgtm3btvzRalLTU6ZCnRhB17lNjG6Lfbut2L5z/6jp6ek7tqk7gCtOxxjVq1TgmJrGs4k+AQAAoG4vnzybfX3/yVbwtuvxn2Qfb/9iMmjrrLM7786unjyatwAAAPWrNXCLaRyLQcymTZvyR6tJrTuWGi0X7Re3q7sirIrjqcuWLVuW9dFrqBfhYLGtQ4cO5Y9+rok+AQAAYBDa67pF6PbNPdPZa392XzJoK9bFw9uzm5cX8lYAAKA+tQZuIRXsdLueWqfZ2dll7aTWg0uN3BpERchUlxipV2x/ZmYmf7SaCLqKbaXWumuiTwAAABiUznXdov7qzx/LPt32hWTQ1lnzj96TXfvo7bwVAACoR+2BWyrYiSkIq0qNopqcnMwf/dzmzZuXbTeI6jWcSkkFVgcPHswfrSa1Bl3qejfRJwAAAAxS57puUQ8+9XL25iNfSQZtxbr00kR289rVvCUAAOhP7YFbXaOfIgwqtpMKvaLtCIB6rY0bNy7rJ9ad69wmQsReRumViXXhUn1Wtbi4uKydOJ+UJvoEAACAYZh+79ztdd2i/u6H25IhW7HOP/nV7PpnH+atAABA72oP3CIUKwYyu3btyh/tToRbqbXZ6lxHrS0CtWI/va5t1q04v9RUmFXP78iRI8va2LNnT/7onZroEwAAAIZl7szl7DvPzt4O3b73xGR28uEvJYO2zjr78F3ZpVf3560AAEBvag/cysKyKlMOxqi14v5bt27NH61XE4FbSE29uW/fvvzR1cVIs6rXuYk+AQAAYFgWr17PHvnF3O3Q7RtPz2RTu76dDNqKtXDggezGhTN5SwAAUE3tgVs4cODAslAmpi+MMG41EXalQp3Z2dl8i3r1G7jFcXWuIxfH3s16b6mRgFEx9WM3YlRZcd8I1FbSRJ8AAAAwbD/91R9uh25Rj0wczD7e/sVk0NZZZ3fenV15a/n68QAAsJqBBG4xTWExmImamJhYMXSL4Ce1ptogQ51+A7cIEov7R+jWjRi1V9w3zv/48eP5FsvFKLPUSLWobkaaNdEnAAAADFtxXbdv7pnOXvuz+5JBW7EuHt6e3by8kLcEAACrG0jgFlKj3KJiNFg8duzYsVbAFnXo0KHWOm+p7WPdsfn5+bzV+vUbuKUCwqhuxOi41LpqUXE9pqenb1+jWDstrltq9F9UTMPZjSb6BAAAgCYU13WLmviLp7JPt30hGbR11vyj92RLH6w+gw0AAISBBW6hLETrtiIYWmnkVR36DdyK+7arWxE8pvavUlVHADbRJwAAADShuK5b1INPvZy9+chXkkFbsS69NJHdvHY1bw0AANIGGrjF9JGpQKubipFww5iusN/ArXP9tnZ1O6VkWwRgZSPlVqvJyd7mlm+iTwAAAGhKcV23qGce25EM2Yp17vF7s2ufvJO3BAAAyw00cGuLUWqptcNSFQHWMKcqTK1NViVwS02dGT+rKvqMNe7KpnssVhx3TA/Zjyb6BAAAgKYU13WL+t4Tk9nJh7+UDNo66+zDd2WXXt2ftwQAAHcaSuDWFmFNhGmxZluMLGtXhD7xs2GMaCtaXFxsjfaK/mPkVi/HEOuexf5RMzP9ze/eeTwxJWfndYqfxfWre027JvoEAACAJqTWdbtv7/Fsate3k0Fbsc7v3ZDduHAmbw0AAG4ZauAGAAAA0LTUum5Rj0wczOa+/yfJoK2zzu68O7vyluUWAAD4nMANAAAAWJdS67p94+mZ7LU/uy8ZtBXr4nNbs5uXF/LWAABYzwRuAAAAwLqVWtctauIvnso+3v7FZNDWWfOP3pMtzb6etwYAwHolcAMAAADWtdS6blEPPvVy9uYjX0kGbcVanHosu3ntat4iAADrjcANAAAAWPfK1nWL+vHuXdmn276QDNo669zj92bXPno7bxEAgPVE4AYAAACQS63rFvW9Jyazkw9/KRm0ddbZh+/KLr26P28NAID1QuAGAAAA0KFsXbf79h7Pfv7fPJQM2op1fu+G7Mb8qbxFAADWOoEbAAAAQEHZum5Rj0wczOa+/yfJoK2zzu68O7vy1mTeIgAAa5nADQAAACBhpXXdvvH0THbsB/cng7ZiLRx4ILt5eSFvFQCAtUjgBgAAALCCsnXdoib+4qns4+1fTAZtnTX/6D3Z0uzreYsAAKw1AjcAAACAVZSt6xb1zT3T2ZuPfCUZtBVr8YWd2c1rV/NWAQBYKwRuAAAAAF1YaV23qB/v3pV9uu0LyaCts849fm927aO381YBAFgLBG4AAAAAXVppXbeof/1vprKTD38pGbQV69LRPXmrAACMO4EbAAAAQEUrret2397j2d/9cFsyZCvW+b0bsuuffZi3CgDAuBK4AQAAAPRgpXXdoh6ZOJj97vt/kgzaOuvsw3dlV96azFsFAGAcCdwAAAAAerTaum7feHomm9r17WTQVqyFAw9kNy6cyVsGAGCcCNwAAAAA+rDaum5RE3/xVPYfH/4nyaCts+YfvSdbmn09bxkAgHEhcAMAAACowUrrukV9c8909h8e/ZfJoK1YFw9vz25eXshbBgBg1AncAAAAAGqy2rpuUc/8xaPZme/flQzaOuvc4/dm1z56O28ZAIBRJnADAAAAqNFq67pFPfjUy9lHu/8fyaCtWJdemshbBgBgVAncAAAAAGrWzbpu9+09nr2y95FkyFas83s3ZNc/+zBvHQCAUSNwAwAAABiQ1dZ1i/rR37yY/a8/+E+SQVtnnX34ruzyG8+32r1x4Ux26eiebGH//a2fx+Px/xenHsuuffJOaxsAAIZH4AYAAAAwQN2s67b5x29mcwceWhaypWr+L//v2dmHv5B8rF2LL+zMbl67mh8BAACDJnADAAAAGLBY1+27z7+XDNs669XJ57KzO+9OhmhV6/yTX81uXl7IjwAAgEESuAEAAAAMQazr9qMjHyWDts7a8z+8nc3/zbcSIdofJX62cl18bmveOwAAgyRwAwAAABiin795Ohm0dVaMhvvD//Q3t9dn66eunjya9wwAwKAI3AAAAACGbObDhez+n7yTDNvaFY8fP/732fm9G7KziSCt21rYf3/eKwAAgyJwAwAAAGjAqfkrXa3r9tz//HE2/+h/kgzTbtUfZ2eSP79VMUoOAIDBErgBAAAANKTbdd1Ob/9CMkxbKWjrrBvzp/IeAQAYBIEbAAAAQMNWW9ctFaIV68yfpn8eJXADABgsgRsAAADACFhpXbeTD38pGaR1WzcvL+S9AAAwCAI3AAAAgBFRtq7b1K5vJ4O0burc4/fmrQMAMCgCNwAAAIARklrXbdfjP0mGad3U+af/Zd4yAACDInADAAAAGEHFdd2O/eD+ZKDWTV08vD1vFQCAQRC4AQAAAIyoznXdvrlnOpv9/j9LBmpldeZPP///l16ayFsFAKBuAjcAAACAERbruv0/D7zbCt027zmWvfnIV+4I1cqqM2xr16Wje/JWAQCok8ANAAAAYMRt/fl7d0wv+eSPJpKj3ea2/x+yD77/T5f9vLOEbgAA9RO4AQAAAIy4r+8/eUfg1q779h7Ptv/loVbFlJPxs288PZO9veOfJ8O2dgndAADqJXADAAAAGHHFoG21itBttfXehG4AAPURuAEAAACMuO8+f+eUkqn6l39953/Hem9CNwCA4RC4AQAAAIy4p185dUeY1m1F6PbBf/1/SoZt7RK6AQD0T+AGAAAAMOJmPlxIBmrd1MEjb2Xzu7+cDNvadXn6mbwnAAB6IXADAAAAGAM/OvJRMlBbrb6+/2T20QcfrBq6XXlrMu8JAICqBG4AAAAAY+DcpWvZd56dTYZqq9X9P3kn++R3HwrdAAAGROAGAAAAMCZOLyxl2yc/SIZqq1WEdZ99/DuhGwDAAAjcAAAAAMbMyyfPJke7/Vc/eSfbsO/On3XWd59/L7t4+qPs7M67k2Fbu4RuAADVCNwAAAAAxtTS9ZvZyU8utiqmnAzT751Lhm3teujw+9nlj/9B6AYAUCOBGwAAAMAaEyPgUmFbux598XdCNwCAGgncAAAAANagn795Ohm2tetHRz7Krn3yzqqh29WTR/MWAQAo00jgtri4mM3MzGQHDhzIduzY0aqNGzdmX/va127/96FDh1rbLC0t5XtVF/tOT09nExMTt9tt97Fnz55WH8ePH8/m5+fzPUZDHFPnMW/YsCHbsmXL7f+emprKTp8+nW9djyb6BAAAAAbrp7/6QzJsa9fTr5xaNXQ7+/Bd2dLs63mLAACkDDVwiwAsQq4IcyL46qZi2wh7qpibm2uFR6n2UhVh35EjR/K9mzM5OZlt3rw5eYypiiDs1KlT+d69aaJPAAAAYHgiVEuFbe2KkXBCNwCA/gwtcIuRZps2bUqGOKtV7NeNGKm2e/fuZBvd1LZt2xoJk+K4I8hKHdNqFYFkXNuqmugTAAAAGL6l6zdba7alwrZ2vfibM0I3AIA+DDxwi1Ftu3btSgY3VWo1ESC1p6XspyLciykvhyWOu8oIs7KK6Te71USfAAAAQHMidNs++UEybGvXK+/O3wrdHr4rGbhFCd0AANIGHrjFOm2psCaCrYMHD2YnTpxYtk7b7OxsaxrJdlDXzQi3GHFV7KO9b4zkir5iOsuoWL9t69atye2j4vFhKRtlFj+PQCuuT4j/jXXWysLLGHXW7ei8JvoEAAAAmrV49Xr20OH3k2Fb1Nf3n8x+/fsLrUBN6AYAUM1AA7djx44lg5oIvboVo7G6CXWKfcX0kPGzYpjXKR4vGxUXQdOgRahY7DdCrNVGjsWxxXbFfWM6zdU00ScAAAAwGk4vLGXfeXY2GbhFRej2208vCd0AACoaWOA2Nze3LKCJ/x5UkBXtRh8xoq3K+mKp44wadJAUQWAca7Hfbq/PkSNHlu0bFedTpok+AQAAgNESodv9P3knGbhFxWNzZy53F7p9YLkJAIAwsMAtAqtiMFMlCKsqwqRof6URbWViusnisW7ZsiV/dDBSI82qhnypqR4nJibyR5drok8AAABg9ESgtlLoFqPgIphbNXTbeXdr3TcAgPVuIIFbTANZHDUWUzyOqjjezmNtVy/hXbdSa8idPn06f7Q7qXXrYorMMk30CQAAAIymWK8tppBMBW5REbrFum9CNwCA1Q0kcDtw4MCyUGaQo9vqkFrLrWoY1a3FxcVlfW3evDl/tHsRCKamw0xN8dhEnwAAAMBom/lwIRm2teuhw+8L3QAAulB74BaBTHGdsPjvQY4Wq0OET53HHDWowC01SmzPnj35o9Wkpu6MqSOLmugTAAAAGH2vvDufDNva9eiLv8uWrt8UugEArKD2wO3EiRPLwphYI23UFUPCqEHZt2/fsr6OHTuWP1pNav25aL+oiT4BAACA8fDzN08nw7Z2RegWrrw1mQzb2iV0AwDWq9oDtxjpVAxjxmG6weIxRwA3KLt27VrWX6+j6SI0K7YVI9CKmugTAAAAGB/PvvFpMmxr19OvnGptJ3QDAFiu9sAtpikshjGxftgoS43Ki4BqULZs2bKsv17Nzs4ua2vr1q35o59rok8AAABgvESolgrb2hWhXBC6AQDcqfbALYKXziBm48aN+SPLnTp1qhV2taspdU632I1iX/2MpotRasX2Ute8uM0w+gQAAADGT0wfmQrb2vXC8c9a260Wus3v/nJ2Y/7WqDgAgLWu9sBtw4YNdwQx27Ztyx+5NTLqwIEDy0K5zoogKEbJDTOAK67fFucwqFF5qbBq8+bN+aPVxXEW24vq1ESfAAAAwHhaun4ze+QXc8mwrV2vvDvf2lboBgBwS62B29LS0rIQZmJiojVaLDWl4Wq1Y8eOntcZ69aRI0eW9RvHPCh1h1+h2F5Upyb6BAAAAMbX4tXr2UOH30+Gbe369e8vtLYVugEA1By4pYKdfitGn83NzeU91Gt+fr41FWKxz0H1F2IazWJ/naMAe1FsL6pTE30CAAAA4+3cpWvZd56dTYZtUV/ffzI7+cnF1rZCNwBgvWskcIspG2P0Wrsi/Elt164YjTWIKR5jJFuxr5jycpBiqsxin3EN+hHXp9hmpyb6BAAAAMbf6YWl7FvPvJsM3KLu/8k72dyZy61tLx3dkwzb2iV0AwDWsloDt1Sw064YSbZv377WOm5l4rGyqSfrDsJmZmaW9RGj6Qa1dlubwG39ab+2lFJKKaWUUkqpcaxX3nwn2/jjk8nALeq/+psT2b//9a1tf//8zmTY1q7Tu/5Z9t5bry3rQymllFJqWDUo7fYHFrjFaLZDhw51HWTFOnC7d+9OthOP1SFG4qWmkozjH7TUNdq6dWv+aG+K4VcEh52a6JPPtV9bSimllFJKKaXUuNZLb7yT3bcvHbhFPfDTE9lbf39rW6GbUkoppUa5BqXd/sACtz179uSPdi/WVouArdjW8ePH8y16F8FfahTdwYMH8y0GK7WeWoRX/VitvSb6BAAAANaWX//+QjJsa9dDh9/PFq9eb2272vSS55/8anbz8kJrWwCAtaDWwC21hlusk9aLmEKy2NbU1FT+aG9ihNyuXbuWtRsj6oYldY3qDr+K00U20ScAAACw9rzy7nwybGvX9skPsqXrN1vbCt0AgPVk4IFbr0HMsWPHlrXV7zpuEf4V24ypFeuaqrIbMXqveAwxmq9XMWKv2F4xQGyiTwAAAGBtevE3Z5JhW7seffF3QjcAYN0ZeOC2bdu2/NFqUtNT9hPqpEbMxSivOOZhS02X2WvoNzs7u6yt1DSeTfQJAAAArE0/f/N0Mmxr19OvnMq3FLoBAOtDrYFbBDjFIGbTpk35o9Wk1h3rdbTcoUOHlrW1cePGRsK2EKPqisfT67FMT08vayvOt6iJPgEAAIC1K0K1VNjWrp/+6g/5llm2+MLOZNjWLqEbADDuag3cwpYtW5aFMb2MpEqNouplPbiysG1ubi7fYvhipF7xmGZmZvJHqzl48OCytlJr3TXRJwAAALC2/ejIR8mwrV0xEq7t4uHtybCtXUI3AGCc1R64pYKdmB6yqtQabpOTk/mj3UmFbTG14vHjx/MtmpE6rgixehFTdhbbSoWJTfQJAAAArG2xVlus2ZYK29r1yrvz+dZCNwBg7ao9cItQrBjG9DLdYGoUVZURWaMatoXU+nS9rHU3Pz+/rJ2yKTyb6BMAAABY+xavXs8eOvx+Mmxr18yHn4doq4VuC/vvz25eu5pvDQAwHmoP3CLQKgYysX5YFTEFZYQ4xXZiXbdujHLYFuL84niKx1h1lFhM41hsY8+ePfmjd2qiTwAAAGB9iNDtO8/OJsO2qK/vP5n9+vcX8q27CN0OPCB0AwDGSu2BW1lYFmuydSsV6nQb2qXCtqiYonKUpKberBJcxUiz1HVeKUBrok8AAABgfTi9sLRi6Hb/T97J5s5czrcWugEAa0vtgVtITQcZgVmEcauJ8KbXUKeJsC2CxM2bN9/uK469m6kvUyMBo7odhRdBWXHfCNRW0kSfAAAAwPoRgVoEa6nALSoei2CuTegGAKwVAwncTp8+vSyYidq1a1e2uLiYb7Xc9PR0ctrDbkKd2Le4X9SgR7bFOmjFPiN060aEkMV94/zjXMrEKLO4jqn9ugklm+gTAAAAWD9+++ml1hSSqcAtKkbBdYZuF372YDJsa5fQDQAYBwMJ3EJqlFtUhFETExPZ5ORkduLEiVZF2JMKdKIi1InAZzWdo8zqqo0bN64YRIXYJrVvN2J0XJxfav8IxmLEXvsaxf+P61bW35EjR/JWV9ZEnwAAAMD6Euu1rRS6PXT4/da6byHCtAjVUmFbu4RuAMCoG1jgFiKsSQU13VYEQ91Md1g2oq6O2rJlS95LWmqfqG6VjcyrUvv27ctb604TfQIAAADryyvvzifDtnZF6LZ0/WZrW6EbADDuBhq4xZptvYZuMWKt2+kKo59UG3VUHMdKUiPrup1Ssi3WfCsbRbZSRSA5NTWVt1JNE30CAAAA68vLJ88mw7Z2Pfri7yqFbjH9JADAKBpo4NYW0xPu2LEjGeAUKwKsXgKd1NpkdVQEhitJTZ0ZP6sqRulFX2XTPXZWbLNnz57s1KlT+d69aaJPAAAAYH35+Zunk2Fbu544+nG+ZXeh28XD2/OtAQBGx1ACt7YYsRbTGcbaYBHeRAgXa7fFf0fI1k+YE6Pc2muP1VmLi4t5D+XivOIcorodlVcmzqN9jQ4cONC6RlExhWP87NixY10dUxVN9AkAAACsH/tf+yQZtrUrHm8TugEA42iogRsAAAAA61OMZEuFbe2KkXBtQjcAYNwI3AAAAAAYuFirLdZsS4Vt7Yo139oidDu/d0MybGuX0A0AGBUCNwAAAACGIkK3hw6/nwzb2jX93rl86yy7eXkhO//kV5NhW7uEbgDAKBC4AQAAADA0i1evZ999/r1k2Bb19f0ns1///kK+tdANABgPAjcAAAAAhur0wlL2nWdnk4FbVIRuc2cu51t3F7otTj2Wbw0AMHwCNwAAAACG7tT8lez+n7yTDNyi4rHYpq2b0O3S0T351gAAwyVwAwAAAKARMYotRrOlAreoGAUXo+HahG4AwKgSuAEAAADQmFivbbXQLdZ9axO6AQCjSOAGAAAAQKNmPlxIhm3teujw+8tCt3OP35sM29oldAMAhkngBgAAAEDjXnl3Phm2tevRF3+XLV2/mW+dZTfmT2Xzu7+cDNvaJXQDAIZF4AYAAADASPj5m6eTYVu7fnTko3zLW4RuAMCoELgBAAAAMDJ++qs/JMO2dj39yql8y1u6Ct1e3Z9vDQAwGAI3AAAAAEZKhGqpsK1dMRKuUzeh25W3JvOtAQDqJ3ADAAAAYKTEWm2xZlsqbGvXi785k299i9ANAGiSwA0AAACAkROh2/bJD5JhW7teeXc+3/oWoRsA0BSBGwAAAAAjafHq9eyhw+8nw7aor+8/mf369xfyrW8RugEATRC4AQAAADCyTi8sZd95djYZuEVF6PbbTy/lW99y7ZN3srM7706Gbe0SugEAdRK4AQAAADDSInS7/yfvJAO3qHhs7szlfOtbhG4AwDAJ3AAAAAAYeRGorRS6xSi4COY6Cd0AgGERuAEAAAAwFmK9tphCMhW4RUXodu7StXzrW1YL3c4+fFe2NPt6vjUAQG8EbgAAAACMjQjdUmFbux46/H62ePV6vvUtQjcAYNAEbgAAAACMlVfenU+Gbe165Bdz2dL1m/nWtwjdAIBBErgBAAAAMHZeOP5ZMmxr16Mv/i7f8nNCNwBgUARuAAAAAIylZ9/4NBm2tevpV07lW34uArUI1lKBW5TQDQDohcANAAAAgLEVoVoqbGtXhHJFQjcAoG4CNwAAAADGWkwfmQrb2hXTTxYJ3QCAOgncAAAAABhrS9dvZo/8Yi4ZtrXrlXfn860/t2rotvPu1rpvAACrEbgBAAAAMPYWr17PHjr8fjJsa9evf38h3/pzQjcAoA4CNwAAAADWhHOXrmXfeXY2GbZFfX3/yezkJxfzrT8ndAMA+iVwAwAAAGDNOL2wlH3rmXeTgVvU/T95J5s7cznf+nNCNwCgHwI3AAAAANaUCNQiWEsFblHxWARzRVfe/mUybGuX0A0AKCNwAwAAAGDN+e2nl1pTSKYCt6iYejIZur01mQzb2iV0AwBSBG4AAAAArEm//v2FFUO3hw6/ny1evZ5v/TmhGwBQlcANAAAAgDXrlXfnk2Fbu7ZPfpAtXb+Zb/251UK3+UfvyW7Mn8q3BgDWO4EbAAAAAGvai785kwzb2vXoi7/rLXTb/WWhGwDQInADAAAAYM37+Zunk2Fbu55+JR2cCd0AgG4I3AAAAABYFyJUS4Vt7frpr/6Qb3knoRsAsBqBGwAAAADrxo+OfJQM29oVI+FSLk8/kwzb2iV0A4D1TeAGAAAAwLoRa7XFmm2psK1dr7w7n299p0tH9yTDtnYJ3QBg/RK4AQAAALCuLF69nj10+P1k2NaumQ8X8q3vJHQDAFIEbgAAAACsOxG6fefZ2WTYFvX1/SezX//+Qr71nboJ3W5eTgd2AMDaJHADAAAAYF06vbC0Yuh2/0/eyebOXM63vtNqodv5J78qdAOAdUTgBgAAAMC6FYFaBGupwC0qHjs1fyXf+k5CNwCgTeAGAAAAwLoWoVtMIZkK3KJiFFyMhksRugEAQeAGAAAAwLoX67WtFLp99/n3Wuu+pSxOPZYM29oldAOAtU/gBgAAAAD/aPq9c8mwrV0PHX4/W7p+M9/6ThcPb0+Gbe0SugHA2iZwAwAAAIDcyyfPJsO2dj364u+EbgDAMgI3AAAAAOjw8zdPJ8O2dj1x9ON8y+VWDd32bshuXruabw0ArBUCNwAAAAAo2P/aJ8mwrV3xeJnVQreFAw8I3QBgjWkkcDt9+nR27NixbM+ePdmOHTta9bWvfa1V7f8+cOBAa5vFxcV8r97NzMxkExMTrXa3bNmyrK9Dhw5lp06dyrduXhPHO27XCAAAAGDQYiRbKmxrV4yEKyN0A4D1ZaiBW4RnEaS1w5xuasOGDdnU1FTeQjUHDx7MNm3alGw3VREsNRkqNXG843aNAAAAAIYl1mqLNdtSYVu7Ys23MkI3AFg/hha4RWi2cePGZIizWkUgVMX8/Hy2bdu2ZFurVT8BX6+aON5xu0YAAAAATYjQ7aHD7yfDtnZNv3cu33q5i89tTYZt7RK6AcDaMPDAbWlpqedgp7O6FUHS5s2bk21Uqenp6bzFwWrieMftGgEAAAA0afHq9ey7z7+XDNuivr7/ZPbr31/It75ThGkRqqXCtnYJ3QBg/A08cIt12lJhTQQ+k5OT2dzcXL7l52ZnZ1sjqHbv3t3attsRbhHuxZSHxb6ioq3jx4/fng4x+o3/3rVrV3L7GMU16KkTmzjecbtGAAAAAKPg9MJS9p1nZ5OBW1SEbr/99FK+9Z2EbgCw9g00cIvQLBXSRNDWrQiIYkRWN8r6O3HiRL5FWoRKsV1x3wigBqmJ4x23awQAAAAwKiJ0u/8n7yQDt6h4bO7M5XzrO3UbugEA42lggVuMUisGNPHfqRFtdYhgLkbCdfYXFUFRN44cObJs36i1dLzjdo0AAAAARk0EaiuFbjEKLoK5lG5Ct4uH///s/f2TXfWdJ3j+Sx0dG+aH3iFqIxwdse0ftv1Dz9qzE7JjKWYLPKFiS+teBdUjmRF0i+7Suq2hXYJpqRqZaTFGMJuMV9RYHkZ4jDxFDl6BC5VIY0hjUmuEWimEHlCmyLPzSc6Bo5Ofe++5T3kf8vWK+AQo73nKm+eee873fb7fs7+cGgCYJWML3KLnUzOYWVxcLF8dvazn1uHDh8tX28mGTux3GW1NYntn7T0CAAAAmEbxvLYYQjIL3KIidIvnvmWEbgAwn8YSuF26dGlLKBNBzTjt3bt3yzpjO/px9uzZLcu47777yldHaxLbO2vvEQAAAMC0WnzvWhq2VfXwC78VugHADjKWwO348eNbQplx9m6LZ7w117d79+7y1fZiyMXsOWWjHjJxEts7a+8RAAAAwLR75e3VNGyr6vGXfles3dkop76b0A0A5svIA7cIZKLHUz2MieeGjdOZM2fuWl/UkSNHylf7kw2FGUMxjtIktnfW3iMAAACAWfD865fSsK2q759+v5xyq41b14qPf/iNNGyrSugGALNh5IHbW2+9tSWMWVhYKF8dj6NHj25ZZwRMgzhx4sSWZcXyR2kS2ztr7xEAAADArPjRL/+Qhm1VPfnKSjnlVkI3AJgPIw/coqdTM4wZ93CD8Xy45jr7fTZZJesJNurnz01ie2ftPQIAAACYJRGqZWFbVdETrhOhGwDMvpEHbjFMYTOMuXHjRvnqeMSzyJrrHNTS0tKWZe3du7d8dTQmsb2z9h4BAAAAzJJ4Vls8sy0L26p66deXy6m3ahO63Xx5sMeDAADjN/LALYKXehDT7flt0fMthqCsKp7/Noj6+nqts5fo9dVcXjyTbpSay9+O7W1OM+3vEQAAAMCsidBt/8K7adhW1Stvr5ZTbyV0A4DZNfLAbdeuXXcFMfv27Stf+bxn1PHjx7eEcvWKIOjw4cPF4uJiOVd3WfgTvbkGFb3xmsuLGpVJbO+svUcAAAAAs+rG7TvFwy/8Ng3bor597Hzxxu8/KafeSugGALNppIFb9FBrhjARnsUzv/bs2bPltV4VYV2ERd2MOkwKzeVFjcoktnfW3iMAAACAWXbp2lrx0LNLaeAWFaHb+YvXy6m3EroBwOwZaeCWBTvDVgxVGENPdhKvNeep96obRHN5UaMyie2dtfcIAAAAYNZF6PbgM2+ngVvU/U9fKJYv3yqn3uqz1ZVi9dDX0rCtKqEbAEyPiQRuMWzkgQMHiiNHjhRHjx7d/P8I1rJpo2L61dV8fOt49ltz+ljeMKL3V3OZozKJ7Z219wgAAABgHkSgFsFaFrhFRSAXwVwnQjcAmB0jDdyyYKeqCM1OnDhRrKyslFNvFa9Fz6ts/gjmMgI3gdu0qz5bSimllFJKKaWU2nn109cuFN86mgduUd/50VvFr/42nzfqnV/9orh08B+mYVtVv3/usXRepZRSSm2tcamWP7bAbdeuXcXCwsLm893aiOniuW/ZcrJlZOvcu3dv+epgmmFShIWjMontnbX3aN5Uny2llFJKKaWUUkrtzDr1v3Tu5Ra158T54o23LqTzRrUJ3ZZPPZnOq5RSSqm7a1yq5Y8tcIthI/sVw0dGwNZc1uLiYjnFl7JhLCMMGsaol1c3ie2dtfcIAAAAYN688vZqGrZV9ehPlou1Oxvl1Fu1GV7y018tlFMDANttpIFbFuxEb7VBHD9+fMuyTp06Vb76pe0Ik4YdfrFuEts7a+8RAAAAwDx68dxHadhW1eMv/a6cMid0A4DpNfbAbdAg5syZM1uWFSFcU/SGa04XveMGdePGjS3LO3ToUPnq8CaxvbP2HgEAAADMq2df+zAN26p68pWVcsqc0A0AptPYA7d9+/aVr/YnG56yU6iTDT/Z9plxTUtLS1uWNciwmN1MYntn7T0CAAAAmFcRqmVhW1URynVz56P3iiuP3ZuGbVUJ3QBge400cIsApxnEPPDAA+Wr/VlZWdmyrE695fbu3btl2gj/BnH27Nktyzp58mT56mhMYntn7T0CAAAAmGcxfGQWtlUVw092s37xgtANAKbISAO3sGfPni1hTAxB2K+sF9XRo0fLV+8WPd+a0y4uLpav9ufEiRNblpU9O24Yk9jeWXuPAAAAAObZ2p2N4tGfLKdhW1WvvL1aTp0TugHA9Bh54JYFOzE8ZL9Onz69ZTkLC/kJQvSuak6bPe+tjRgCs7ms5eXl8tXRmMT2ztp7BAAAADDvbty+Uzz8wm/TsK2qxfeulVPn2oRua0uvllMDAOMy8sAtQrFmGDPIcINZL6pOPbKy573FEIr9Wl1d3bKc3bt3l6+OziS2d9beIwAAAICdIEK3h55dSsO2qG8fO1+88ftPyqlzvUK3K4/cI3QDgDEbeeB27ty5LYFMv8FOPAsunv3WXE481y0T0+/atWvL9P32uophEZvLOHLkSPnq6Exie2ftPQIAAADYKS5dW+saut3/9IVi+fKtcuqc0A0AJmvkgVunsCyeydZWFurEMIbdZENZ9hMERc+tbLvHNVTiJLZ31t4jAAAAgJ0iArUI1rLALSpei2CuG6EbAEzOyAO3kA0HGb3cIozrJcKbQUKdbMjEqOhx10YWRsXPeolhLuvbe9999xVnz54tX+1sEts7qfcIAAAAgN5+8+HNzSEks8AtKnrB9Qzd3n9zM1jLArcooRsAjMdYArdLly5tCWaiDh48WNy4caOcaqsIqrJhD9v2wopQrzlvLK9bABa9tg4cOJDO16bn1p49e7bMGwFcG5PY3kmsEwAAAIB24nlt3UK3h1/47eZz37qJQE3oBgDbayyBW8h6uUVFGHX48OFiYWFhs8dVBD3Hjx/fHDIymz5CnQh82ohnvMX02XIiaDp58uTmOqPi/2M7okdaNv2ZM2fKpXbXaX1tTGJ7J7FOAAAAANp75e3VNGyrav/Cu8XanY1y6pzQDQC219gCtxBhTRbUtK0IeiL46UcM8Zgtq5+KsLCtbP6otrZ7e8Mk1gkAAABAey/9+nIatlX1+Eu/G0noFkNQAgDDG2vgFs9sGzR0i95Wgw5XGM8k69Qrq1tFz69+e23t3r17y3LaDilZ2c7trUxinQAAAAC09/zrl9KwraonX1kpp+ysZ+j22L3F+sUL5dQAwKDGGrhVopda9gywrOKZaKMIdGIYynj2W5tQKaaJaWO4xX5lQ2cO0vtru7a3bhLrBAAAAKC9CNWysK2qH/3yD+WUnQndAGD8tiVwq0SPtXhmWzwbLMKbCOEOHjy4+e9Tp04Vly5dKqccrRhCMdYRz4qLdUZFKBY/i+2JnnjDiN8rtj9q0F55dePe3swk1gkAAABAb98//X4atlUVPeF6EboBwHhta+AGAAAAAPQnntUWz2zLwraqXnl7tZy6s9vnX07DtqqEbgAwOIEbAAAAAEy5G7fvFA+/8Ns0bKvq7DtXy6k7+/RXC2nYVpXQDQAGI3ADAAAAgBkQodt3n3snDduivn3sfPHG7z8pp+5M6AYAoydwAwAAAIAZcenaWvHQs0tp4BYVodvy5Vvl1J21Cd0+W10ppwYAehG4AQAAAMAMWVn9tLj/6Qtp4BYVr8U0vfQK3VYPfU3oBgAtCdwAAAAAYMZEL7bozZYFblHRCy56w/UidAOA0RC4AQAAAMAMiue1dQvd4nlv8dy3XoRuADA8gRsAAAAAzKiz71xNw7aqHn7ht8XanY1y6s5uvfZcGrZVJXQDgO4EbgAAAAAww352/koatlX1+Eu/axW63Xz5SBq2VSV0A4DOBG4AAAAAMOOef/1SGrZV9cTLH5RTdid0A4DBCNwAAAAAYA4c+8XFNGyrKl5vo1Xo9snlcmoAIAjcAAAAAGBORE+2LGyrKnrCtdErdPv4h98oNm5dK6cGAARuAAAAADAn4llt8cy2LGyr6qVft+udJnQDgPYEbgAAAAAwRyJ027/wbhq2VfXK26vl1N0J3QCgHYEbAAAAAMyZG7fvFA+/8Ns0bIv69rHzxRu//6ScujuhGwD0JnADAAAAgDl06dpa8dCzS2ngFhWh228+vFlO3d31F/anYVtVQjcAdjqBGwAAAADMqQjd7n/6Qhq4RcVry5dvlVN3J3QDgM4EbgAAAAAwxyJQ6xa6RS+4CObaELoBQE7gBgAAAABzLp7XFkNIZoFbVIRu8dy3NnqFbteOf6fYWL9dTg0AO4PADQAAAAB2gMX3rqVhW1UPv/DbkYVuH//Vf1bc/Nm/Ka4du7+48sg9mz+L/79x6i+K9YsXyqUAwPwQuAEAAADADvHK26tp2FbV4y/9rli7s1FO3V2n0O1y8rNm3XjxMb3gAJgrAjcAAAAA2EGef/1SGrZV9f3T75dT9tarp1u38rw3AOaJwA0AAAAAdpgf/fIPadhW1ZOvrJRTdhe91OKZbZ+HaH/vrkCtTV3/8d5ySQAw2wRuAAAAALADRaiWhW1VRU+4NjZDt2N/nAZqber2+ZfLJQHA7BK4AQAAAMAOFM9qi2e2ZWFbVS+e+6icurubf/39NExrU9eO3V8uBQBml8ANAAAAAHaoCN0e/clyGrZV9crbq+XUncXz2LIw7fP6+8Xl9Oef15VH7imXAgCzS+AGAAAAADvYjdt3iodf+G0atlX1xu8/KafORWiWhWndgrZ6fbba7plxADCtBG4AAAAAsMNdvblePPTsUhq2RX372Pni/MXr5dRbZSFasy7/s/znUQI3AGadwA0AAAAAKC5dWysefObtNHCLuv/pC8Xy5Vvl1He7+oOvp0Fa29q4da1cEgDMJoEbAAAAALApArUI1rLALSoCuQjmmq6/sD8N0trU6l/8o3IpADC7BG4AAAAAwBdi6MgYQjIL3KJi6MkYgrLu9vmX0zCtVe3/3xVrS6+WSwKA2SRwAwAAAADu8sbvP0nDtqoefuG3xY3bd8qpP/fJv/+zPFBrWZ/+aqFcEgDMHoEbAAAAALDFK2+vpmFbVY/+ZLlYu7NRTl0Un31yuVg99LU0TOtUl//Z3f+++fNj5dIAYLYI3AAAAACA1IvnPkrDtqoef+l35ZSf+2x1pfj4qV13hWidqhm2VXXjxcfKpQHA7BC4AQAAAAAdPfvah2nYVtWTr6yUU37p1mvPpb3dVh//avHJC/uLK4/cs+W1el3/8d5iY/12uTQAmH4CNwAAAACgqwjVsrCtqh/98g/llHeL0Gzt3cXNiiEnK+vvv1lceezeNGyr6trx7xQbt66VcwDAdBO4AQAAAAA9ff/0+2nYVtXzr18qp2xn/eKFns98+/iH3xC6ATATBG4AAAAAQE9rdzY2n9mWhW1VvfL2ajl1O5vPfPvhN9KwraoI5WI6AJhmAjcAAAAAoJUbt+8UD7/w2zRsq2rxvf56pEUPto+f2pWGbVXF8JPRIw4AppXADQAAAABoLUK3h55dSsO2qG8fO1+88ftPyqnbiWe9xTPbsrCtqgjd1pZeLecAgOkicAMAAAAA+nLp2lrX0O2Pn75QHPvFxeLRnyxvBnDxs/j/H/3yD8Xy5VvlUra6/sL+NGyr6soj9xSfvvnX5dQAMD0EbgAAAABA3yI4u//pC1vCtjYVYVw8Ey5z86eH07CtXrdee66cGgCmg8ANAAAAABjIbz68+UUPtn4rngUXw1NmIlDLgrZ6RTAHANNC4AYAAAAADCye1/Z56Pa3W0K1XvXEyx+US9kqho6MISSzsK2qGIISAKaBwA0AAAAAGMpP3ricBmptavG9a+VStlpberW48ti9adhW1bXj3yk21m+XcwDAZAjcAAAAAIChPPvah2mY1qYe/clyuZTc+sULPUO3j5/aVWzc6hzcAcC4CdwAAAAAgKHE89iyMO3z6v6MtxiOspfPVleK1UNfS8O2qj7+4Tc2pwOASRC4AQAAAABD+fwZbnmg1qYuXVsrl9RZ9GCLUC0L26qKUC56xAHAdhO4AQAAAABDyUK0fqpN4BYidItntmVhW1Ux/OT6+2+WcwDA9hhb4Hbu3Lni5MmTQ9WpU6fKpQ1uaWlpc1kHDx4s9u3bV3zzm9+8q/bu3VscPXq0OHPmTDnH5J09e7Y4dOhQceDAgeKBBx74Ylvj31Hx+6ysjLZ7/CTWCQAAAMB8+O5z76RBWr3+03+b/zzqxu075ZJ621i/XVz/8d40bKvqyiP3FGtLr5ZzAMD4jSVwi7CtCmyGrVjWIC5durQZIGXL7FQRvi0uLpZL2F5ra2vFiRMnivvuuy/dtqxie5eXuz9UtptJrBMAAACA+fPkKytpkNam/m8/GqxN8saLj6VhW70+/dVCOTUAjNdYArfoMZaFNYNUvz3PIkQ6fvx4sWvXrnR5bSp6dMVytkv0HMt637Wp+D0H6Qk4iXUCAAAAMJ8W37uWhmnt6m+L759+v1i7s1Eurb2bPz+WBm31imkAYNzGErgdOXIkDWoGqX57nMXQh9lyqtqzZ89moNarV1f8DtthdXX1riEcB60YErKtSawTAAAAgPkWoVkeqLWrh1/4bXH15nq5tPaiF1sWtNUresMBwDhtW+AWQxFWzwNrW9FT7saNG+VSe4vntTXXGxXL6jQMYvSg6xQ+jTtQil50nXqZxXCYMZxm9dy0GCLzrbfeKg4fPpxOH73O4vfvZRLrBAAAAGD+RVj20LNLaZjWth585u1i+fKtcontxfPa4rltWdhWVTz3LZ7/BgDjsG2BWwQ34xRB0u7du7esd2Gh9zjNMW+Ecs15Y3njFMMyNtcZPe96PSMtQq6sh14Eab1MYp0AAAAA7AyXrq0V+xfeTcO0tvXtY+eLs+9cLZfY3vr7bxZXHrs3Dduqunb8O8XGrWvlHAAwOnMTuMXym+vsJwyK3lxZoNRPD7t+RMiX9axr22MseuY1543qFpxNYp0AAAAA7Dw/O38l7e0WPdief/3D4sB/v7zltWa9eO6jcmntrV+8UKwe+loatlX18Q+/IXQDYOTmJnCLnmzNdUZvrn7EkIrNZYxru7OeZv0+Ny7b3hj+sZNJrBMAAACAnWvtzkZx/uL1zWo+n+3YLy6mQVu9nnj5g81l9OOz1ZXNUC0L26qKUC6mA4BRmZvALVtnv88Xy0K76NU1DvFMu+a6opddP+IZc81lRC+9TiaxTgAAAADoJHrCZUFbvWKIyhu375RztBM92D5+alcatlUVw09GjzgAGAWBW00WuJ07d658dXRWV1e3rGeQZ6HFEJHZMJjZEI+TWCcAAAAA9PLG7z8p7n/6Qhq2VRXDUy5fvlXO0c7G+u3NZ7ZlYVtVEbqtLb1azgEAg5ubwC0Ly06fPl2+2k4Mjdhcxjie4ZY9C+3kyZPlq/3JtjkbSnMS6wQAAACANlZWP02f+VavCOUW3+v/2WvXX9ifhm1VXXnknuLTN/+6nBoABjM3gVs21GEMoRg9stqIHmC7du3aMv84HD169K71RA3ak+7EiRNblhXLb5rEOgEAAACgrRg2MoaPzMK2er3068vlHO3d/OnhNGyr163XniunBoD+zU3gFoHZAw88sGW9bXtxHTx4cMu8i4uL5aujla1r0J50Wc+1WH7TJNYJAAAAAP1Yu7NRPPnKShq01evYLy5uTtuPCNSyoK1eEcwBwCDmJnALMaxhc71Rx48fL6fIZds7zgBp9+7dW9Y3qHhOXXNZWc+8SawTAAAAAAYRvdiyoK1ej/5kebNXXD9i6MgYQjIL26qKISgBoF/bHrgtLy9v/v+lS5c2/z1KMXxkBD/NdUcdOHCgWFlZKaf8XPTwyp5HFssYx7PbKs31Rc+8QcX72FzefffdV776peY027FOAAAAABhUPK/t28fOp2FbVfHct3j+Wz/Wll4trjx2bxq2VXXt+HeKjfXb5RwA0Nu2BW6das+ePZthWDwXbGFhYXNoyGFEUNYpdIuK3m4xTQyLmA1BOe6wLQurovfZoGJbm8uLqpvEOgEAAABgWMuXb22GalnYVtX9T18ozl+8Xs7RzvrFCz1Dt4+f2lVs3LpWzgEA3U08cGtW9JSK4C16qw0qAqEI8bLld6sI/YZZbxujDr9Cc3lRdZNYJwAAAACMwtWb68X+hXfTsK1ePzt/pZyjnc9WV4rVQ19Lw7aqPv7hNzanA4BexhK4nTx5Mg1k+qkIhM6dO1cucTBnz55Ne7E1a9++fZvPJdsOMaRmtv5hNJcXVTeJdQIAAADAqKzd2SieePmDNGir17FfXCznaCd6sEWoloVtVUUoFz3iAKCbsQRu8Yy26KlWBTExTGP0OKuqTQgWtWvXri3PXetX9O6qb0tWsT2nT58u5xiveG+a64/3ZBgRTjaXWTeJdQIAAADAqD3/+qU0aKvX4y/9rrhx+045R28RusUz27KwraoYfnL9/TfLOQBgq7EEbm3F0I+Li4vFoUOHtoQ3VUVYN8gwjzHPqVOneoZt9Yp1RTg1TgK3naf6bCmllFJKKaWUUkqp4ev5//nvim8dzcO2qv70vzlf/M0b+fxpnf/b4v93tHvo9h++95Xivf/px/n8SimlZqbGpVr+RAK3uuiJFiFQM8SJimer9SMCpiwQijp8+HDPZ8z1u75+ZOFXBH3DaP6u0WOvbhLr5EvVZ0sppZRSSimllFJKjaZeef1C8Z/9uzxsq+q+vzpf/I+LF9L5O9XFH/3TPGyr1fKpJ9N5lVJKzUaNS7X8iQduIXq8dQrK2vZyO3PmzOZQlM35m89pi4CvW/AWwdwgPet6ifU21xW/8zCay9uzZ0/5yucmsU4AAAAAGKdL19aKh1/4bRq2VfXtY+eLV95eLedo5+bPj6VBW71iGgCom6rALUQo1gxzopaXl8spOjt58mQ6bwwt2UmsL8KibL4Y6nLUtiP8ag4XOYl1AgAAAMC4rd3ZKL5/+v00bKvXj375h3KOdj791UIatNXrxouPlVMDwBQGbiELwM6ePVu+mjt37tyWeeL5bfHzXqJnXfRoa84f1Wu9/VpdXd2yjuiRN6jY9uby4nepm8Q6AQAAAGC7PPvah2nQVq8I5iKga2tt6dXiyiP3pGFbVdd/vLfYWL9dzgHATjaVgVv0LGsGOt2eqxZDP2YhXZuwre7gwYNblhHPJovAapQiCGyuZ9DhK7MegTFUZtMk1gkAAAAA2yWGjowhJLOwraoYgjKGomxr/f03iyuP3ZuGbVVdO/6dYuPWtXIOAHaqqQzcIlzrJ9A5ffp0X9N3EsFaBGzNZS0uLpZTjMbevXu3rGNlZaV8tT/RA6+5rBhas2kS6wQAAACA7fSbD28W9z99IQ3bqnrwmbc3p2tr/eKFYvXQ19KwraqPf/gNoRvADjeVgdvx48e3BDpHjx4tX90qwrXm9G+99Vb5an+ydS8sLJSvjkbWg2/QUC8LJ7Nn1k1inQAAAACw3aIH23efeycN26qKnnBn37laztHbZ6srm6FaFrZVFaFcTAfAzjSVgdu+ffu2BDrdelBlvbfiOWODyHpvjXq4xPhdmuuIoG8Q2Xt16dKl8tUvTWKdAAAAADAJN27fKR5/6Xdp2Fav519v36YVPdg+fmpXGrZVFcNPRo84AHaeqQzcsueNRRDWya5du7ZMP+jzyaJnXHNZow7csnVEaNivGAKzuZzdu3eXr95tEusEAAAAgEn60S//kAZt9Xri5Q+KtTsb5Rzdbazf3nxmWxa2VRWh29rSq+UcAOwUUxe4ZcFQBGrdeqxlz11bXl4uX+1PDI3YXFYMoThKEQZmIWG/25xta6dwcBLrBAAAAIBJ+9n5K2nQVq/9C+8WV2+ul3P0dv2F/WnYVtWVR+4pPn3zr8upAdgJpipwi1Ateks1A514/lg32RCHgz5T7PDhw1uW1a13XSWGVOxnWMXsmWq9fs+66GmW9QTsFqBNYp0AAAAAMGnnL14v7n/6Qhq2VfXQs0vF8uVb5Ry93fzp4TRsq9et154rpwZg3o00cItAZmFhYeDneWWBUJtAJ3s+WfTmWlnp7yGl2fPbevWuW1xcvKuHXQRSbQK6paWlu9ZTVZt5wyDh2STWCQAAAADTYGX10+K7z72Thm1VffvY+WLxvWvlHL1FoJYFbfWKYA6A+TfSwK0eWMUwgzE8ZBsxX9azLSp6nPUSwVo2XOKePXtab8Pp06fTZUSY102sozlPBHBtxDPUmvPGNpw5c6acYqsIM7MefW0DxkmsEwAAAACmwY3bd4pHf7Kchm31eunXl8s5eouhI2MIySxsqyqGoARgvo00cIvebc1QJnp8HThwYDO4iooeYRFuxf9HmJYFVlXFfPHssTbqYV+zYjkxxGSEb9HLK8T/R8U2dwr72vTeykK6qDYirMqGaIyKbYpnx8V7Fb9bvF8HDx7sOH23wKxuEusEAAAAgGmxdmejOPaLi2nQVq8nX1nZnLaNtaVXiyuP3ZuGbVVdO/6dYmP9djkHAPNmpIFbBDVZMDNIRY+qbkM5ZiIsypY1SEX41Gb92bxRbUUAmc3fT8Xv3Y9JrBMAAAAApkn0YsuCtnrtX3h3s1dcG+sXL/QM3T5+alexcav9kJUAzI6RBm7xDLdsyMJ+KnqMRa+zQUUQ1KlHVtuKXl3xu7SR9Y6Ln/UjetrVnwPXtuL3HLSX2STWCQAAAADT5I3ff1Lc//SFNGyr6qFnlzaf/9bGZ6srxeqhr6VhW1Uf//Abm9MBMF9GGrhVYjjCGC4yC2w6VYRUEbS1Dbq6iWEoYwjJLAzrVrHN586dK5fSTgy72FxO9PTrV/zeR48ebRWCRegV08az1YYxiXUCAAAAwDRZvnxrM1TLwraqIpSLcK6N6MEWoVoWtlUVoVz0iANgfowlcKtbXl7e7BEVwVRUPBet/ky3eG2cIU71rLYI4GJ9R44c2Vx//Df+HSFfvN72WXGZeC5a/B5R8f/Diu2p3p8IAaOqf0eYOQ6TWCcAAAAATIMYNjKGj8zCtnrFMJRtROgWz2zLwraqYvjJ9fffLOcAYNaNPXADAAAAAJh2a3c2iide/iAN2up17BcXyzm621i/XVz/8d40bKvqyiP3FGtLr5ZzADDLBG4AAAAAAKUXz32UBm31evQny5u94tq48eJjadhWr09/tVBODcCsErgBAAAAANQsvnet+Pax82nYVtV3n3unuHSt3WNqbv78WBq01SumAWB2CdwAAAAAABqWL98qHnzm7TRsq+r+py8U5y9eL+foLnqxZUFbvaI3HACzSeAGAAAAAJC4enO9ePiF36ZhW1XRE+5n56+Uc3QXz2uL57ZlYVtV8dy3eP4bALNF4AYAAAAA0MHanY3iiZc/SMO2ev3ol38o5+hu/f03iyuP3ZuGbVVdO/6dYuPWtXIOAGaBwA0AAAAAoIdnX/swDdrq9f3T7xc3bt8p5+hs/eKFYvXQ19KwraqPf/gNoRvADBG4AQAAAAC0cPadq5tDSGZhW1UxBOWla2vlHJ19trqyGaplYVtVEcrFdABMP4EbAAAAAEBLv/nwZvHgM2+nYVtV9z99YXO6XqIH28dP7UrDtqpi+MnoEQfAdBO4AQAAAAD0IXqwRU+2LGyrKnrCRY+4XjbWb28+sy0L26qK0G1t6dVyDgCmkcANAAAAAKBP8ay2eGZbFrbVK5791sb1F/anYVtVVx65p/j0zb8upwZg2gjcAAAAAAAG9KNf/iEN2ur1xMsfFGt3Nso5Orv508Np2FavW689V04NwDQRuAEAAAAADOGVt1c3h5DMwraqYgjKqzfXyzk6i0AtC9rqFcEcANNF4AYAAAAAMKTzF68X9z99IQ3bqnrwmbeL5cu3yjk6i6EjYwjJLGyrKoagBGB6CNwAAAAAAEbg0rW14rvPvZOGbVVFT7jF966Vc3S2tvRqceWxe9Owraprx79TbKzfLucAYJIEbgAAAAAAI3Lj9p3i0Z8sp2FbvV4891E5R2frFy/0DN0+fmpXsXGrd4AHwHgJ3AAAAAAARuzYLy6mQVu9nnj5g2LtzkY5R+6z1ZVi9dDX0rCtqqs/+PrmdABMjsANAAAAAGAMfnb+Shq01Wv/wrubveK6iR5sH//wG2nYVlWEctEjDoDJELgBAAAAAIzJG7//pLj/6Qtp2FbVQ88uFcuXb5Vz5CJ0i2e2ZWFbVTH85Pr7b5ZzALCdBG4AAAAAAGO0svrpZqiWhW1VRSi3+F73Z7FtrN8urv94bxq2VXXlkXuKtaVXyzkA2C4CNwAAAACAMYthIx/9yXIattXrpV9fLufo7MaLj6VhW70+/dVCOTUA20HgBgAAAACwDdbubBRPvrKSBm31OvaLi5vTdnPz5SNp0FavmAaA7SFwAwAAAADYRtGLLQva6hW94aJXXDfRiy0L2uoVveEAGD+BGwAAAADANovntcVz27KwrarvPvfO5vPfuonntcVz27Kwrap47ls8/w2A8RG4AQAAAABMwPLlW8VDzy6lYVtVEcqdv3i9nCO3/v6bxZXH7k3DtqquHf9OsXHrWjkHAKMmcAMAAAAAmJCrN9eL/QvvpmFbvX52/ko5R2794oVi9dDX0rCtqo9/+I3is08ul3MAMEoCNwAAAACACVq7s1E88fIHadBWrx/98g/lHLnPVleKqz/4ehq2VRWhXEwHwGgJ3AAAAAAApsDzr19Kg7Z6Pf7S74obt++Uc2wVw0Z+/NSuNGyrKoafjB5xAIyOwA0AAAAAYEqcfedq8e1j59OwrarvPvdOcenaWjnHVhvrtzef2ZaFbVVF6La29Go5BwDDErgBAAAAAEyR5cu3igefeTsN26q6/+kLxW8+vFnOkbv+wv40bKvqyiP3FJ+++dfl1AAMQ+AGAAAAADBlogfbwy/8Ng3bqoqecK+8vVrOkbv508Np2FavW2efKacGYFACNwAAAACAKbR2Z6P4/un307CtXj/65R/KOXIRqGVBW70imANgcAI3AAAAAIAp9uxrH6ZBW70imIuArpMYOjKGkMzCtqpiCEoABiNwAwAAAACYcjF0ZAwhmYVtVcUQlDEUZSdrS68WVx67Nw3bqrp2/DvFxvrtcg4A2hK4AQAAAADMgN98eLO4/+kLadhW1YPPvF0sX75VzrHV+sULPUO3j5/aVWzculbOAUAbAjcAAAAAgBkRPdiiJ1sWtlUVPeHOvnO1nGOrz1ZXitVDX0vDtqqu/uDrm9MB0I7ADQAAAABghty4fad4/KXfpWFbvZ5//VI5x1affXK5+PiH30jDtqoilIsecQD0JnADAAAAAJhBP/rlH9KgrV5PvPxBsXZno5zjbjFsZDyzLQvbqorhJ9fff7OcA4BOBG4AAAAAADPqZ+evbA4hmYVtVe1feLe4enO9nONuG+u3i+s/3puGbVVdeeSeYm3p1XIOADICNwAAAACAGXb+4vXi/qcvpGFbVQ89u1QsX75VzrHVjRcfS8O2en36q4VyagCaBG4AAAAAADNuZfXT4rvPvZOGbVVFT7jF966Vc2x18+UjadBWr5gGgK0EbgAAAAAAc+DG7TvFoz9ZTsO2er3068vlHFtFL7YsaKtX9IYD4G4CNwAAAACAObF2Z6M49ouLadBWrydfWdmcNhPPa4vntmVhW1Xx3Ld4/hsAnxO4AQAAAADMmejFlgVt9YrecNErLrP+/pvFlcfuTcO2qq4d/06xcavzEJUAO4nADQAAAABgDr3x+0+K+5++kIZtVT307NLm898y6xcvFKuHvpaGbVV9/MNvFJ990nmISoCdQuAGAAAAADCnli/f2gzVsrCtqgjlIpzLfLa6Ulz9wdfTsK2qCOViOoCdTOAGAAAAADDHYtjI/QvvpmFbvX52/ko5x91i2MiPn9qVhm1VxfCT0SMOYKcSuAEAAAAAzLm1OxvFk6+spEFbvY794mI5x9021m9vPrMtC9uqitBtbenVcg6AnUXgBgAAAACwQ7x47qM0aKvXoz9Z3uwVl7n+wv40bKvqyiP3FJ+++dfl1AA7x9gCt8XFxeLkyZND1alTp8qljcbKysrmMg8dOlQcOHCg+OY3v3lXxc8OHz5cnD59ulhdXS3n2l5ra2vFmTNnvtjGXbt2fbF999133+bPjh49WiwvL5dzDG8S6wQAAAAAJmPxvWvFt4+dT8O2qr773DvFpWtr5Rx3u/nTw2nYVq9bZ58ppwbYGcYSuJ07d+6LwGbYimUNK8KzCIyy5XerhYWFcgnjF6HX8ePH7wq7etWePXuKpaWlcgn9m8Q6AQAAAIDJW758q3jo2aU0bKvq/qcvFOcvXi/nuFsEalnQVq8I5gB2irEEboOEW50qel4NKgKlCM2il1a27F4V822H6Hm3d+/edBva1CA9ASexTgAAAABgely9uV48/MJv07CtqugJ97PzV8o57hZDR8YQklnYVlUMQQmwE4wlcDty5Ega0gxSg/Zwi7AtemNly+ynxu3SpUvFAw88kK67n4phMNuaxDoBAAAAgOmzdmejeOLlD9KwrV4/+uUfyjnutrb0anHlsXvTsK2qa8e/U2ys3y7nAJhP2xa4RW+qeBZYPxU95W7cuFEutT/xPLLmNkTt27dvs9dcBHJNEUTFa/Ectxhmcffu3eUr4xHbENuTbWe8h2+99dYX2xnvQ/w7ti2bPra3zVCPk1gnAAAAADDdnn/9Uhq01ev7p98vbty+U87xpfWLF3qGbh8/tavYuHWtnANg/mxb4BbBzXaJYSSb64/hIYcZnnIc4vlp2XYuLy+XU+Qi5MqGyYwgrZdJrBMAAAAAmH5n37m6OYRkFrZVFUNQXrq2tTPDZ6srxeqhr6VhW1VXf/D1zekA5tHcBW6xnua62wRK2y16kUUPsea2tu0xFuFhc96obr/nJNYJAAAAAMyO33x4s3jwmbfTsK2qeD2ma/rsk8vFxz/8Rhq2VRWhXPSIA5g3cxe4ZUNJDvocuHE6derUlu2MITT7kf2uMfxjJ5NYJwAAAAAwW6IHW/Rky8K2qqInXPSIa4phI+OZbVnYVlUMP7n+/pvlHADzYa4Ct+hp1VxvBETTaM+ePVu2NZ4h14+zZ89uWUb05utkEusEAAAAAGZPPKstntmWhW31eva1D8s5vrSxfru4/uO9adhW1ZVH7inWll4t5wCYfXMVuGXPJ1tcXCxfnR4RcjW3c/fu3eWr7cUQkdlz1bIhHiexTgAAAABgtv3ol39Ig7Z6PfHyB8XanY1yji/dePGxNGyr16e/WiinBphtcxO43bhxY8vzyQYJlLZD9iy0fod2rMRwjs1lxdCRTZNYJwAAAAAw+155e3VzCMksbKsqhqC8enO9nONLN18+kgZt9YppAGbd3ARu8Zy25jqnNQSKoKu5rYP2xDtx4sSWZWVB2iTWCQAAAADMh/MXrxf3P30hDduqevCZt4vly7fKOb4UvdiyoK1e0RsOYJbNTeAW4VpzndM6zOGBAwe2bGv00BtE9ky1gwcPlq9+aRLrBAAAAADmx6Vra8V3n3snDduqip5wi+9dK+f4UjyvLZ7bloVtVcVz3+L5bwCzaG4Ct2yYw3je2DSKoS6b2zqopaWlLcvas2dP+eqXJrFOAAAAAGC+3Lh9p3j8pd+lYVu9Xjz3UTnHl9bff7O48ti9adhW1bXj3yk2bm0N7ACm3bYHbtHrLP5/1AHc3r1771rfAw88UL5yt0uXLn2x/qoiQNouEQLWt7PbtrYRv09zeffdd1/56ucmsU4AAAAAYH4d+8XFNGir15OvrBRrdzbKOT63fvFCsXroa2nYVtXHP/xG8dknl8s5AGbDtgVunSqCmhjuMOY5efJksbq6Wi6lP83l7tu3r3zl8+e7xfKzXl5V7dq1a3NYxDNnzpRzjUcWVsV2DSoL06LqJrFOAAAAAGC+/ez8lTRoq9f+hXc3e8XVfba6Ulz9wdfTsK2qCOViOoBZMfHArVkRfEXw1s/zxWLa5nJiiMl4rlv05Gq+1quit9y4nv826vArNJcXVTeJdQIAAAAA8+/8xevF/U9fSMO2qh56dqlYvnyrnONzMWzkx0/tSsO2qmL4yegRBzALxhK4RWCWBTL9VARlZ8+eLZfYXRYoDVvR8y56xo1aBHnNdUUPv2FESNlcZt0k1gkAAAAA7Awrq59uhmpZ2FZVhHJv/P6Tco7Pbazf3nxmWxa2VRWh29rSq+UcANNrLIFbPBctAqsqiIkeYxHw1Kse1HSqCHXaPF+tbeC2Z8+ezWEjIxCMiu2In2XTRkXoN+gQl53Ee9NcT2zHMLKhMusmsU4AAAAAYOeIYSMf/clyGrbV66Vfb3022/UX9qdhW1VXHrmn+PTNvy6nBphOYwnc+hG9r7oNQRmBWDwzrJssUKoqgqEYWrJbcBavxTPfsvljaMpRErjtPNVnSymllFJKKaWUUkqpea63/u7t4l/993+XBm31+v7/5+82p63P+8Gz30vDtnq9v/D9u+ZRSqlBalyq5U8scKtE6HXo0KEtIU7U0aNHy6lyWaAUPewiaOtHFvxFL7t+nifXS7at0QNwGM3wK3rm1U1inXyp+mwppZRSSimllFJKKbUT6vjLvUO3h398vnjjrQt3zReBWha01SuCufo8SinVb41LtfyJB24herJ1GuKxWy+3GHayOX2EZ/2K0C97Ntni4mI5xfCy4S8jvBpGc3nxHtZNYp0AAAAAwM61+N61zee2ZWFbVd997p3N57/VxdCRMYRkFrZVFUNQAkybqQrcwsrKypYwJyqGnuwkC5Sit9wgjh8/vmVZ/faU62Y7wq/mcJGTWCcAAAAAsLMtX75VPPTsUhq2VRWh3PmL18s5Pre29Gpx5bF707CtqmvHv1NsrN8u5wCYvKkL3ELWy+3s2bPlq1tlgdKgAdCZM2e2LCtCuFGJXnTN5UevukHFcJfN5TWfOzeJdQIAAAAAXL25XuxfeDcN2+r1s/NXyjk+t37xQs/Q7eOndhUbt66VcwBM1lQGbtmz3E6cOFG+ulUWuO3bt698tT/Z884OHjxYvjoa8Xy55jq6DZnZTdvhNCexTgAAAACAtTsbxRMvf5AGbfX60S//UM7xuc9WV4rVQ19Lw7aqrv7g65vTAUzaVAZuJ0+e7CvQieCo+ey1Bx54oHy1P9mQlqMeLnHv3r1b1hHrHUT0/GsuK96/pkmsEwAAAACg8uK5j9KgrV6Pv/S74sbtO+UcRfHZJ5eLj3/4jTRsqypCuegRBzBJUxm4Zc9RO3r0aPlqLguUYujDfmW9t3qtu19ZD77FxcXy1f5Ez7/msrJnzk1inQAAAAAAdWffuVp8+9j5NGyr6uEXfltcuvbl6FwxbGQ8sy0L26qK4SfX33+znANg+01l4BbDQTYDnV49qOIZYs15YnjIfp0+fXrLckYdJmU9+AZ9Tlz2XsUQm02TWCcAAAAAQNPy5VvFg8+8nYZtVd3/9IXiNx/eLOcoio3128X1H+9Nw7aqrjxyT7G29Go5B8D2msrALXveWK/eWAsLC1vmGWSYw6x33blz58pXRyN7Tlz00OvX6urqluXs3r27fPVuk1gnAAAAAEDm6s31zZ5sWdhWVfSEe+Xt1XKOz9148bE0bKvXp79aKKcG2D5TF7hlwVA8ny2e09ZNhGLN+foNlGId8ey35nIGfdZZJ9kz56JiOMt+RM+75jI6PetuEusEAAAAAOhk7c5G8f3T76dhW72efe3Dco7P3Xz5SBq01SumAdhOUxW4xTPXordUM9CJ54+1kYVl/TynLAuTDh48WL7a3fLy8ma1lT1Tre3vGaKnWRagdduGSawTAAAAAKCbCNSyoK1eEcxFQFeJXmxZ0Fav6A0HsF1GGrhFIBPDOA76PK8sEOon0MmeU7Znz57NIK+X6OmVDWXZa91nz569a74IpM6cOVO+2lkst76eqmJ5vURvtQgCm/P2Cs8msU4AAAAAgF7OvnN1cwjJLGyrKoagvHTty5HQ4nlt8dy2LGyrKp77Fs9/Axi3kQZuEdxUQczhw4db9y6LgCrr2RZ19OjRcqresueLRR04cGDztU5Onz6d9tyK57n1EoFec77oadfGvn37tszbK7CL4S07zddm6MtJrBMAAAAAoJfffHizuP/pC2nYVtWDz7xdLF++Vc5RFOvvv1lceezeNGyr6trx7xQbt66VcwCMx0gDt4WFhS2hTPT+isDrxIkTmz3Qqop/x887BW1R0aMqelb1I9uGqAjBYnmx7njeW4Rs8eyxLDCLiu3uFtJVsqAuqo3oCZj1qouK9yXeo9jOCDJju2P7O03fNtycxDoBAAAAANqIHmzRky0L26qKnnDRI66yfvFCsXroa2nYVtXHP/xG8dknl8s5AEZvpIFb9JLKgplBKsKwfsO2SvSKy5bZtiJgajuMZTZ/VFsR/mXz91MRjPVjEusEAAAAAGjjxu07xeMv/S4N2+r1/OtfPtros9WV4uoPvp6GbVVFKBfTAYzDSAO36BG2d+/eNKBpWzF0YTxPbRgR1A0aukWvu36eQZf10Iuf9eOtt97a7IHXXE6vimBw0F5mk1gnAAAAAEBbP/rlH9KgrV5PvPxBsXZnY3P6GDby46d2pWFbVTH85O13/qa4+fKR4tqx+794Blz8/41Tf7HZWw5gECMN3CoR5kQPtX4CnQipYhjDUYpeaocOHUrX16wI2gYJkqKnV3NZMSRjv27cuLE5nGMW4DUr3td4vlybIS+7mcQ6AQAAAADa+tn5K5tDSGZhW1X7F94trt5c35x+Y/325jPbmkFbVZeTnzXrxouPbS4HoB9jCdzqVlZWNoeajGAqKgKwCLeqf8dr/fQoG0QEbxECxvPdqmfHxX9j/RGODRsixe8Yy4+K/x9WLKd6fw4fPrwZXsb/nzp1aujef51MYp0AAAAAAL2cv3i9uP/pC2nYVtVDzy4Vy5dvlXMUxfUX9qdhWtuKZ75FjzmAtsYeuAEAAAAAwDBWVj8tvvvcO2nYVlWEcovvfRmS3fzp4VqI9vdq/9+urv94b7kkgN4EbgAAAAAATL0bt+8Uj/5kOQ3b6vXSry+XcxTFrbPPpGFa27p9/uVySQDdCdwAAAAAAJgZx35xMQ3a6vXkKyvF2p2Nzek/+W/+72mY1qauHbt/cxkAvQjcAAAAAACYKdGLLQva6hW94aJXXDyPLQvTPq+/X1xOf/55XXnknnKNAN0J3AAAAAAAmDlv/P6Tzee2ZWFbVQ89u1T8h+/dk4Zp3YK2en22ulKuEaAzgRsAAAAAADNpZfXTzVAtC9uqykK0Zl3+Z/nPowRuQBsCNwAAAAAAZlYMG7l/4d00bIs6/8g/SoO0trVx61q5JoDOBG4AAAAAAMy0tTsbxZOvrKSB26mDf5oGae3q7xc3f36sXAtAZwI3AAAAAADmwovnPtoSuB38wdNJkNa2/t7mf68d/07x2SeXy7UAbCVwAwAAAABgbiy+d6349rHzd4VuZ/7F/Y0grf+68ti9xdrSq+VaAO4mcAMAAAAAYK4sX75VPPTs0heB258cebVY+t4/TIO0TnX5n+U/v3HqL4qN9dvlmgA+J3ADAAAAAGDuXL25Xjz8wm+/CN12HzlTvP7oP0lDtHpd/i/+fsewraqrP/h6ceej98o1AQjcAAAAAACYU2t3Nop/+tw7X4RuUT/8/uG0t9vy9/6o+KtDB4v//C9/XvzNY//JltebdeWRe4pbrz1XrgnY6QRuAAAAAADMrXovt3p966lzxf7/6uRm/cmRs1tej/Dtw31fScO2en3y7/+s2Lh1rVwbsFMJ3AAAAAAAmFvfPnZ+S5jWtv78iYXiP3z/H6dBW71WH/9qsfbuYrlGYCcSuAEAAAAAMLeyIK2fuvTRfyiuv7A/DdqadfOnh8u1AjuNwA0AAAAAgLn13cYz3LL6T/9t/vOo51//cHM5n/5qobjy2L1p0Favj5/aVXy2urI5D7BzCNwAAAAAAJhbT76ykgZp/VSEdm/8/pPNIC0CtSxoq1cEcxHQATuHwA0AAAAAgLm1+N61NERrV397178ff+l3xcrqp5tDR2ZBW7NiKMqNW9fKLQHmmcANAAAAAIC59v3T798VnA1bz772YfHJ0t8Uq49/NQ3a6nX1B18v1t9/s9wSYF4J3AAAAAAAmGtXb64XDz27lIZng9aDz7xd/E9vvF988u//LA3a6nXlkXuKmz8/Vm4NMI8EbgAAAAAAzL1L19aK/QvvpuFZvR569jfF3uffSV/L6uEXflu8/z/++81QLQvb6nXt2P3FZ59cLrcImCcCNwAAAAAAdoyfnb+S9naLHmsvnvuoWLuzsTnd2Xeubv6sOV2nOv6T/6W48q//cRq01evKY/cWa0uvbq4DmB8CNwAAAAAAdpwI1s5fvL5ZMeRkJqZ5/vVLxbePnU9Dtmb98dE3ijf+3YE0aGvWjRcfKzbWb5drAmadwA0AAAAAALqI4Si/f/r9NGTL6vtP/rj46MB/lAZt9br6g68Xdz56r1wLMMsEbgAAAAAA0EL0hotntmUhW7P+5MjZ4v976P+aBm31ime/3XrtuXINwKwSuAEAAAAAQB9e+vXl4v6nL6RBW7P+6tDB4qP9X0nDtnpdO/6dYuPWtXINwKwRuAEAAAAAQJ9u3L5T/OiXf0hDtmb9+RMLxYX/8mtp0Fav1ce/Wqy9u1iuAZglAjcAAAAAABjQyuqnxeMv/S4N2ur1x08uFqcO/mkatDXr5k8Pl0sHZoXADQAAAAAAhrT43rXioWeX0rCtXod+8G+LD/b/gzRoq9fHT+0q7nz0Xrl0YNoJ3AAAAAAAYATW7mwUL577qOfz3XYfOVO8/ug/SYO2el157N7i018tlEsHppnADQAAAAAARujqzfXiiZc/SMO2ev23/2pfGrQ16/oL+4uNW9fKpQPTSOAGAAAAAABj8JsPbxb7F95Nw7aq/vyJhWL5e3+UBm31uvqDrxfr779ZLhmYNgI3AAAAAAAYo7PvXC0efObtNHCL+uMnF4sz/+L+NGhr1s2fHyuXCkwTgRsAAAAAAIzZjdt3imdf+7D49rHzaegW9cPvHy4+3PeVNGir17Vj9xeffXK5XDIwDQRuAAAAAACwTS5dWyu+f/r9NHCL+rO//Fnx5oF/nAZt9bry2L3F2tKr5VKBSRO4AQAAAADANnvj958U333unTR0+9ZT54rn/+XDadDWrBsvPlZsrN8ulwpMisANAAAAAAAm5KVfXy7uf/pCGrw9evhE8cH+f5AGbfW6+oOvF3c+eq9cIjAJAjcAAAAAAJigeL7bsV9cTEO3PzlytvjFP/9WGrTV68oj9xS3zj5TLhHYbgI3AAAAAACYAsuXbxWP/mQ5Dd7+6tDB4sN9X0nDtnpdO/6dYuPWtXKJwHYRuAEAAAAAwBRZfO9a8dCzS1tCtz9/YqE4/8g/SoO2eq0+/tVi7d3FcmnAdhC4AQAAAADAlFm7s1E8//ql4tvHzt8Vuv3xk4vFqYN/mgZtzbr508PFxvrtconAOAncAAAAAABgSl29uV488fIHd4VuUYd+8G+LD/b/gzRoq9fHT+0q7nz0Xrk0YFwEbgAAAAAAMOV+8+HN4uEXfntX6Lb7yJni9Uf/SRq01evKY/cWn/5qoVwSMA4CNwAAAAAAmBE/O3+lePCZt+8K3p75iwNp0Nas6y/sLzZuXSuXBIySwA0AAAAAAGbIjdt3imdf+/Cu57v9+RMLxfL3/igN2uq1euhrxfr7b5ZLAkZF4AYAAAAAADNoZfXT4vGXfvdF6PbHTy4WZ/7F/WnQ1qybPz9WLgUYBYEbAAAAAADMsDd+/0nx3efe+SJ4O/yv/7L4cN9X0qCtXteO3V989snlcinAMARuAAAAAAAwB14891Fx/9MXNkO3P/vLnxVvHvjHadB2Vz12b3H7/MvlEoBBjS1wO3v2bHHy5MmhamFhoVhbWyuXOFqLi4vF0aNHiwMHDnxRJ06cKM6cOVNOMRk3btzY3IaDBw8We/fuLb75zW9+Uffdd9/mdsZ2v/XWW+Ucw5vEOgEAAAAAGL2rN9eLY7+4uBm6feupc8Xz//LhPGhr1I0XHys21m+XSwH6NZbA7dy5c3eFNsNUBGOjFuFStq6qLl26VE65fSJYPH78eLFr1650m7J64IEHiqWlpXIJ/ZvEOgEAAAAAGL/ly7eK/QvvbgZvjx4+USx/74/SoK1elw79n4r1ixfKJQD9GEvgFr2hsrBmkBp1j7MImSI0ytZV1XYHbsvLy8WePXvSbWlT0ROwX5NYJwAAAAAA2+vsO1eLB595u/iTI2eLX/zzb6VBW70+2v+VYvWV4+XcQFtjCdyOHDmShjSDVPSWG6Xo0ZWtp17bGbjFumLYxmw7+qnTp0+XS+xtEusEAAAAAGAy1u5sFM+/fqn49rHzxV8dOlh8uO8radhWr988cX9x+/rH5RKAXrYtcItng9Wfl9amoqfcKJ/htrKysmX4xGw4xe0K3OJ3az4zrap4D+OZafXfP/7dKTCM36PNM9YmsU4AAAAAACYvnu/2/dPvF3/+xEJx/pF/lAZt9frd9/6oeOt//lk5N9DNtgVu0xDMHDx48K5t2rdv32awV/9Z1HYFblmQFT3PYrjHbiI4zHqoRZDWyyTWCQAAAADA9Dh/8XrxXzx/oTh18E/ToK1ZP/vLA8Xyh3q7QTc7JnBbXFzcsk0RMk0qcIteZFnvuqWlpXKK7rLfJ6rb+zyJdQIAAAAAMJ1+dv5K8V89caz4YP8/SIO2er3+6D8pfvw/vLbZSw7YakcEbhE07d69+67tiZ5eYVKB26lTp7ast9qmtg4dOrRlGYcPHy5f3WoS6wQAAAAAYHrduH2neP7lNzYDtSxoq1cEc0f+qyeLl359uZwbqOyIwG1hYeGubXnggQeK1dXVzdcmFbjt2bNny3qrbWrr3LlzW5YRwz52Mol1AgAAAAAw/VZWPy1OP/V4GrQ16/S/eLD4L559o3jj95+UcwNzH7hFoNQcRjF6elUmEbjF8pvrjO3oV/Tcy56rlj2PbRLrBAAAAABgtvzd//o3xfuP/B/SoK1eS9/7h8WfP7FQPP7S74pL19bKuWHnmvvALYY7rG/H3r17y1c+N4nA7cyZM1vWWQ8B+9H8/TotaxLrBAAAAABg9ty+/nHxm7/8z9OgrVl/dehg8e1j54tnX/twc3hK2KnmOnCLdfbajkkEbkePHt2yzkHfn5MnT25ZViy/aRLrBAAAAABgdq3+L/9d8dH+r6RBW73i+W9/cuRs8eAzbxc/O3+lnBt2lrkO3KI3W30bomdW0yQCt2ydN27cKF/tz9mzZ7cs6+DBg+WrX5rEOgEAAAAAmG13PnqvuHT4P06Dtnp9sP8fFAd/8HTxf/mv3yr2L7xb/ObDm+USYGeY28Athjisrz+e4xbPc2uaROC2e/fuLesc1NLS0pZl7dmzp3z1S5NYJwAAAAAAs29j/XZx86eH06CtWS8+/v8ovvXUuc3g7YmXPyiu3lwvlwLzbVsDtwi84r9VjUus54EHHrhr/QsLC+Wrd9vuwG1tbW3L+mJbBxXb2lzefffdV776uUmsEwAAAACA+bK29Gpx5eBX06CtXucf+UfFP/03pzZDt3i+24vnPirW7myUS4H5tG2BW6eKoCZCr5gnng2W9ULr1/Hjx+9aR/TuitAps92BWxZWxfYNKgvTouomsU4AAAAAAObPZ59cLq4d/04atNXrw31fKf7r/9dfbIZuUQ89u1QsvnetXArMn4kHbs2KoR8jeBv0+WLLy8tblrm4uFi+utWsB26hubyoukmsEwAAAACA+XXz58eKK4/ck4Zt9frFP/9W8SdHzn4RvD36k+ViZfXTcikwP8YSuEVglgUy/VQMeXj27Nlyie3t27fvruUcPHiwfCW33YFbFgjGNgwjQsrmMusmsU4AAAAAAObb+sULxdUffD0N2uq1/L0/Kh49fOKL0C3qR7/8Q3Hj9p1ySTD7xhK4LS0tbfagihAm/hvhTrOaYU1WEerEstqKgK45/8rKSvlqLtuWcQZu8ey65vpiG4ZRvdf1qpvEOgEAAAAAmH8b67eL6y/sT4O2Zv23/2pf8a2nzn0Rut3/9IXipV9fLpcEs20sgVs/ovdVtyEo9+zZ0/H5a3UxTfSKq88bz3LrReA2GIFbe9VnSymllFJKKaWUUkoppea13vsf/qq4fOB/nwZt9Xr90X9S/Nlf/uyu3m5/+t+cL3762oV0uUqNusalWv7EArfK6upqcejQoS0hTtTRo0fLqTo7ceLEXfNE+NYmqJuGwG3v3r3lq4Nphl/xu9dNYp18qfpsKaWUUkoppZRSSiml1DzXb954rfjw8H+cBm31+nDfV4rD//ov7wrdog78d+eLv3kjX7ZSo6pxqZY/8cAtREAWPdrqQU5V3cKzCMiazxQ7c+ZM+Wp32x24xbKb64vwahjN5cV7WDeJdQIAAAAAsDPdfPlIGrQ16/S/eLD44ycX7wrdvn3sfPHsax8Wa3c2yqXBbJiqwC3EM9eaYU5UDD3ZSbNnXD+9t+YxcGsOFzmJdQIAAAAAsHOtv/9msfr4V9OgrV5L3/uHxZ8/sXBX6Bb14DNvF2ffuVouDabf1AVuIevldvbs2fLVuy0uLm6Ztls417TdgduNGze2rC9qUDEUZ3NZhw8fLl/93CTWCQAAAADAzrZx61px/cd706CtWc/8xYEtoVvU/oV3i998eLNcIkyvqQzcsme5HT9+vHz1bgcPHrxrugjQ4pllbSt6w9Xnj4pwrz5N9Lobpfvuu2/LOts8by6ztLS0ZVnZM+8msU4AAAAAAPj0VwvFlUfuSYO2er3+6D8p/uTI2TR4e/KVleLqzfVyiTB9pjJwO3ny5JZA58iRI+Wrd8uCpHHUKEO3LOQbdPnxrLrmsuL9a5rEOgEAAAAAINz56L3i4x9+Iw3a6vXB/n9QHPzB02nodv/TF4oXz33k+W5MpakM3KI3WzPQ6dSDarsCtwiZRiXrwRdDYw7ixIkTW5aVbesk1gkAAAAAAJWN9dvFzZ8eToO2Zp06+KfFt546lwZvDz27VLzx+0/KpcJ0mMrAbd++fVsCnU49qLLnvY2jYmjJUcl68HUaMrOXrOda9gy6SawTAAAAAACa1pZeLVYf/2oatNXr/CP/qPin/+ZUGrpFPf7S74qV1U/LpcJkTWXgtmvXri2BTqfeWNGzKp7bNmhlPeQi8KtPE8HUoM87y0R411xnhFj9ipCruZzdu3eXr95tEusEAAAAAIDMZ59cLq4d/04atNXrw31fKf7q0ME0cKvqR7/8Q3Hj9p1yyTAZUxe4nTt3bkugEwHcKAOvugjUmusbd2+t+F2yUHFpaamcop1Tp05tWUanXmuTWCcAAAAAAHRz6+wzxZVH7knDtnr94p9/q/iTI2fTwC3qwWfeLn52/kq5VNh+UxW4ra6uFg888MCWQCeePzYuowrcogdZP8NOZs9UO3jwYPlqb/FeNQO0+Hf8vJNJrBMAAAAAALpZv3ihuPqDr6dBW72Wv/dHxaOHT6SBW1UPv/Db4vzF6+WSYfuMNHCL4CWeFba8vFz+pL3ogZWFX1GDLK+tYQO3s2fP3jUsZQRQMcxlL/E71ddZ1enTp8spOov3KoKy5ry9eppNYp0AAAAAANDLxvrt4voL+9OgrVn/7b/aV3zrqXNp4FbV90+/X1y9uV4uHcZvpIFbBE1VEBO9qeK5axHU9BLDFGY926KOHj1aTjUewwZue/bs2TJ//C5txLPimvNGLSwslFNstbKysvnsteY8Efq16Wk2iXUCAAAAAEAbt8+/XFx57N40aKvXmwf+cfFnf/mzNGyr6tvHzhfPv36pWLuzUS4dxmekgVuENs1QJipCrSNHjmz2fqvqxIkTmz/fvXt3Ok9U9KhqE9gNY9jArTnEYlVtxHrqvePqFaFd9B6r3q/4/9jWTuuLcLONSawTAAAAAADa+uyTy8XHT+1Kg7Z6fbjvK8Xhf/2XadhWr3i+29l3rpZLh/EYaeBW7+E2bEUPuXGHbWHYwK05b1VtxXPfsvn7qQjH+jGJdQIAAAAAQD9uvnwkDdqadfpfPFj88ZOLadhWr0d/slwsX75VLh1Ga6SB240bNzoOWdi2ovdVm2eKjcqwgVs2pGT8rB9LS0tde/p1qnivzp07Vy6lP5NYJwAAAAAA9GP9/TeL1UNfS4O2ev3ue39U/PkTC2nQ1qxjv7jo+W6M3EgDt0r0oIohJDs9ly2reEZYBG0R2m2n2M7mtvTzXLKsV1/8rF/xe8cwm21CsJgmph32+WmTWCcAAAAAAPRj49a14vqP96ZBW7Oe+YsDacjWrPufvlC8eO6jcg0wvLEEbnUR0MSzvqrngjUrXtvukK0pentFSBg1yLZEj7hq/n56x3WyvLy8Gdo136tTp05tbus4TGKdAAAAAADQ1qe/WiiuPHJPGrTV6+/+5f+5+JMjZ9OgrVnffe6d4o3ff1KuAQY39sANAAAAAABgFO589F7x8VO70qCtXh8d+I+Kp578d2nIltXjL/2uWFn9tFwL9E/gBgAAAAAAzIyN9dvFzZ8eToO2Zv3dv/1/Fg/8u1+nIVuzvn3sfPHsax8WN27fKdcE7QncAAAAAACAmbO29Gqx+vhX06CtXlf+9T8uTp76RRqyZfXgM28XPzt/pVwLtCNwAwAAAAAAZtJnn1wurh3/Thq01Sue/fb7U08W+xfeTUO2rGLa33x4s1wTdCdwAwAAAAAAZtqts89shmpZ2FavCOf+5tfvbvZiy0K2rJ54+YPi6s31ck2QE7gBAAAAAAAzb/3iheLqD76eBm31imEob174xebz2uK5bVnI1qyY7vnXLxVrdzbKtcHdBG4AAAAAAMBc2Fi/XVx/YX8atDXrxqm/KC5duV58//T7aciW1UPPLhWL710r1wZfErgBAAAAAABz5fb5l4srj92bBm31+viH3yjufPRecf7i9eLhF36bhmxZPfqT5WL58q1ybSBwAwAAAAAA5tBnn1wuPn5qVxq01Sue/fbprxY253np15eL+5++kIZsWf3ol38obty+szkvO5vADQAAAAAAmFs3f34sDdqa9cm//7Ni49a1zQAtgrQsYMsqAroI6tjZBG4AAAAAAMBcW3//zWL10NfSoK1eq49/dXPasLL66ebQkVnIltV3n3uneOP3n2zOy84jcAMAAAAAAOZe9F67/uO9adDWrJsvHynnKorF964VDz27lIZsWX3/9PvFpWtr5dzsFAI3AAAAAABgx4jntV157N40aKtXPP/ts9WVzXnW7mwUL577qPj2sfNpyNasmO7Z1z70fLcdROAGAAAAAADsKHc+em8zUMuCtnpFMPfpm39dzlUUV2+uF0+8/EEasmX14DNvF2ffuVrOzTwTuAEAAAAAADvOxvrt4uZPD6dBW7Ouv7B/c/rKbz68WexfeDcN2bKKaWMe5pfADQAAAAAA2LHWll4tVh//ahq01evqD75erL//ZjnX5155e3WzF1sWsmX15Csrm73kmD8CNwAAAAAAYEfbuHWtuHb8O2nQVq8rj9xT3Pz5sXKuz8Vz2uJ5bW2f73b/0xc2nwcXz4VjfgjcAAAAAAAA/je3zj6zGaplYVu9Ipz77JPL5Vyfu3RtrXj8pd+lIVtWDz27VCy+d62cm1kncAMAAAAAACitX7ywOXxkFrTV68pj924OR9n0xu8/Kb773DtpyJZVhHQrq5+WcxebQ04+//ql4tGfLH/Ray7+/0e//EOxfPlWORXTRuAGAAAAAABQs7F+u7jx4mNp0NasG6f+YnP6ppd+fXlz+MhmwNapIlA79eblnkNTHvvFRcNRTiGBGwAAAAAAQOL2+Zc3e7JlQVu9Pv7hN4o7H71XzvWleL5bBGRZcDZMPfzCbzeXzfQQuAEAAAAAAHQQz2r7+KldadBWr3j2263XnivnulsMBRnDQmbh2ef1t8nPutcTL39QLp1pIHADAAAAAADo4ebPj6VBW7M++fd/VmzculbOdbfF964VDz7zdhqgDVKxPKaDwA0AAAAAAKCF9fffLFYPfS0N2uq1+vhXN6fNxPPXnn/9Us9ntbWp6DXHdBC4AQAAAAAAtBS9167/eG8atDXr5k8Pl3NtdfXm+uawkFmQ9mV1D+UitGM6CNwAAAAAAAD69OmvFoorj92bBm31iue/fba6Us611beODtfT7dK1tXJJTJLADQAAAAAAYAB3PnpvM1DLgrZ6RTD36Zt/Xc51tyxE66cEbtNB4AYAAAAAADCgjfXbm0NHZkFbs66/sH9zSMq67z73Thqk1es//bf5z6Nu3L5TLolJErgBAAAAAAAMae3dxWL18a+mQVu9rv7g68X6+2+WcxXFk6+spEFam4qwjukgcAMAAAAAABiB6L127fh30qCtXlceuae4+fNjm/MsvnctDdPa1Eu/vry5DCZP4AYAAAAAADBCt84+sxmqZWFbvSKc++yTy8X3T7+fBmrdKnq3rd3ZKNfIpAncAAAAAAAARuzOR+9tDh+ZBW31uvLYvcXq3/68eOjZpTRYy+r+py8Uy5dvlWtiGgjcAAAAAAAAxmBj/XZx48XH0qCtWZf/3/+y+C//u7eLPzlytnjmLw4Uf/PYf1J8uO8rm6/F/z//Lx8u/um/ObXZs03YNn0EbgAAAAAAAGN0+/zLmz3ZmiFbs648/tXi8v7PQ7ZO9cnCY5tBHtNF4AYAAAAAADBm8ay2a8fuT0O0fuvjH36j2Lh1rVwy00DgBgAAAAAAsE1u/vxYEqL9veRn3ev6j/eWS2QaCNwAAAAAAAC20fr7bxarh76WBmn9VAxVyXQQuAEAAAAAAGyzGBLy+gv7iytJkNa2YohKpoPADQAAAAAAYEKuHvo/pmHa5/X3i8vpzz+vK4/cUy6FSRO4AQAAAAAATEiEZlmY1i1oq9dnqyvlkpgkgRsAAAAAAMCEZCFasy7/s/znUQK36SBwAwAAAAAAmJCrP/h6GqS1rXgWHJMncAMAAAAAAJiQ6y/sT4O0NhVhHdNB4AYAAAAAADAht8+/nIZpberW2WfKpTBpAjcAAAAAAIAJ+uTf/1kaqHWr6N22sX67XAKTJnADAAAAAACYoM8+uVysHvpaGqxldeWxe4v1ixfKuZkGAjcAAAAAAIAJ+2x1pfj4qV1pwFav6NkmbJs+AjcAAAAAAIApceu159LebquPf7W4+fNjhpGcUgI3AAAAAACAKRPB2tq7i5sVQ04y3cYSuK2trRVnz54tTp48OVQtLCxsLmtQy8vLm8s4cOBAsXv37uKb3/zmF7Vv377i0KFDm+tZWloq55i81dXV4tSpU5vbvGvXrru2OWrPnj3FkSNHinPnzpVzDG8S6wQAAAAAAJgXYwncImxrhjaD1uLiYrnU9s6cObMlYOtVR48eLW7cuFEuYfvFumMbsm3rVA888EDx1ltvlUvo3yTWCQAAAAAAMG/GErj1G+J0qwjP2oqeatEbK1tOm4owaRK9uKIn3jDbfeLEiXJJ7U1inQAAAAAAAPNoLIFbDD+YhTSDVNsA7NKlS+lwiP1WLCOWtV1iXffdd1+6Lf1UDAnZ1iTWCQAAAAAAMK+2LXDbu3fv5jPC+qnoKdf2GW7RE665zqjoxXX8+PHNcCiGQoyK57YdPnw4nT4q1r0d4nfLeplF6BfbHL3Q6qIHX/y8OX1VbYZ6nMQ6AQAAAAAA5tm2BW7jDmaagVtsQ4RF3XQbgvL06dPlVOOTBVnR86wZejWtrKykPdQi1OxlEusEAAAAAACYZ3MTuEV4FuuJ3mm9wqO61dXVdCjKQ4cOlVOMR6f19goJK4uLi1vmjer2Pk9inQAAAAAAAPNubgK30E/QVhfDTTa3N3q+jVPW0yx+1o8IBZvLiKEyO5nEOgEAAAAAAObdXAVug4qeX83tjWr7/LhB7N69e8v6bty4Ub7azrlz57YsI4Z97GQS6wQAAAAAAJh3ArdS9nyyS5cula+OViy3ua5BnoUWgWC23VlPv0msEwAAAAAAYCcQuJWy3l/R820czpw5s2Vd/Q7tWInhHJvLiiEymyaxTgAAAAAAgJ1A4FbKem2NS/b+LC4ulq/25+TJk1uWdfTo0fLVL01inQAAAAAAADuBwO1/E8MkNrf3gQceKF8dvQMHDmxZX7/PUqucPXt2y7IOHjxYvvqlSawTAAAAAABgJxC4/W/OnTu3ZXtj2MRxyYavHNTS0tKWZe3Zs6d89UuTWCcAAAAAAMBOsK2BW7MuXbpUzjFZ2TPJBh1usZdR96aL97C5vBges24S6wQAAAAAANgpti1w61Z79+7dHPIwng22srJSLmV7RBi1a9euu7YnwqP4+ThkYVX0PhtUFqZF1U1inQAAAAAAADvFVARuzTp+/PjAzxfr14kTJ7asP7Z/XEYdfoXm8qLqJrFOAAAAAACAnWIsgVv0VMsCmX4qepmdOXOmXOJ4LC8vb+ndFv9eXV0tpxi9WGd9fVHRu28Yzd8hqm4S6wQAAAAAANgpxhK4LS0tbfagihAm/hvhTrP27NmzJbDJKp71Ni779u3bsr4IC8cpfp/mOuP9GEb1XterbhLrBAAAAAAA2CnGErj1I4Y7jCEko0dbM8CJimBnHMNLnjp1asu64lly43p2W0XgtvNUny2llFJKKaWUUkoppZRSSk22xqVa/sQCt0qEaocPH94S4kSN+plqEUBlQ0nG0IvjloVfEfQNoxl+PfDAA+Urn5vEOvlS9dlSSimllFJKKaWUUkoppdRka1yq5U88cAvRu6zTUJOj6nkWPeqy3nTR4207xPqb647wahjN5cV7WDeJdQIAAAAAAOwUUxW4hZWVlS1hTtQoep9FL7psKMSjR4+WU4zfdoRfzeEiJ7FOAAAAAACAnWLqAreQ9XI7c+ZM+epgoodcDKPYXO7BgwfH/ty2ugj9mtsQNajV1dUty4qhOesmsU4AAAAAAICdYioDt+xZbsePHy9f7V8EahGsNZcZAVyEUdstG9Jy0NBvaWlpy7KyHnuTWCcAAAAAAMBOMJWB28mTJ7cEOkeOHClf7c+0hW0h62kXQ2kOInr+NZcV71/TJNYJAAAAAACwE0xl4Ba92ZqBzqA9qLKwLZ5fFs81m5RDhw5t2aazZ8+Wr/bnxIkTW5aVDb85iXUCAAAAAADsBFMZuO3bt29LoDNID6roFddczqTDtnDq1Kkt2zXokJlZz7Xs95vEOgEAAAAAAHaCqQzcdu3atSXQOXfuXPlqO1nYFs8xm4ZgaHl5ecu27dmzp3y1vfhdmsuJQDEziXUCAAAAAADsBFMXuEWw1gx0IoCLZ7G11Slsi9BpWsT2NLfxrbfeKl9tZ2FhYcsyuvVam8Q6AQAAAAAA5t1UBW7Re+qBBx7YEugcPny4nKK3SYRtsd0RXEW17UGXbWc8b66tWE+zJ2D8e3V1tZxiq0msEwAAAAAAYN6NNHCL4OXo0aMDhVs3btxIn90Wgc7Kyko5VXdZoBTzLy0tlVOM3pkzZ7aEUPGzXrIhHqNOnz5dTtFZ9PY7cODAlnl79TSbxDoBAAAAAADm3UgDtwiaqiAmwpn4d6/eTxHknDx5Mh3uMOrEiRPllN1FaNScN4Kwfp/91q94DlpzvdFLr41Dhw5tmTcqhm3sJEKzbJ3x/rXpaTaJdQIAAAAAAMyzkQZu2fO9oqLnWgRwEZ5FuBYVw0TGz7IhJKuKcKitbssZpnoFfs3ebVW10WkIzaj4efQeq96v+P94vzqtr22wOIl1AgAAAAAAzLORBm71Hm7DVoQ90futjQiRsmWMonbv3l2uJZfNE9VWPPctm7+fOnXqVLm0diaxTgAAAAAAgHk10sAtnsMWPaKygKZtHTx4sPUz2+qyZY2iYijFbrKhFnvN0xTPmMuW06uiR1qEZ4OYxDoBAAAAAADm0UgDt0o88yt6qPUT6MSwk8MMUThs0Nepeg0pmfXqi5/1q3qWXZv3LKaJaYd9ftok1gkAAAAAADBvxhK41UWvt8XFxc2wJqt4LaaZZTGkZfT6ior/H1b08IvQLnuvIswch0msEwAAAAAAYB6MPXADAAAAAACAeSZwAwAAAAAAgCEI3AAAAAAAAGAIAjcAAAAAAAAYgsANAAAAAAAAhiBwAwAAAAAAgCEI3AAAAAAAAGAIAjcAAAAAAAAYgsANAAAAAAAAhiBwAwAAAAAAgCEI3AAAAAAAAGAIAjcAAAAAAAAYgsANAAAAAAAAhiBwAwAAAAAAgCEI3AAAAAAAAGAIAjcAAAAAAAAYgsANAAAAAAAAhiBwAwAAAAAAgCEI3AAAAAAAAGAIAjcAAAAAAAAYgsANAAAAAAAAhiBwAwAAAAAAgCEI3AAAAAAAAGAIAjcAAAAAAAAYgsANAAAAAAAAhiBwAwAAAAAAgCEI3AAAAAAAAGAIAjcAAAAAAAAYgsANAAAAAAAAhiBwAwAAAAAAgCEI3AAAAAAAAGAIAjcAAAAAAAAYgsANAAAAAAAAhiBwAwAAAAAAgCEI3AAAAAAAAGAIAjcAAAAAAAAYgsANAAAAAAAAhiBwA3aElZWV4q233tosyKytrU10H6nWHfsqZC5durS5jywvL5c/2T6rq6tf7KM3btwofwrTY2lpaWKfD+gljpvVMTSOp9BG/folapxcKzHN6tdpcT4MndT3lajt+s6trtOiYhsgU33XxnXLdqv2T+1N20PgBmyrM2fOFHv27Cm++c1vblb8/zhOmqPB7ejRo8V99933xbqadeDAgeL06dMaPnao2O9OnTpV7N27N90/du/evbmPnDhxYuQnJXESHp+FgwcPpuuOin33yJEjxeLiYjkXO0nsI2fPni0OHz7c8ThW7aMLCwsjv7CLz0fs+7GObN1R8dmJz5CGD5pin4jjV3V8jf/Gvlp9745CHBvj89HcL6vatWvX5uvxOdLwsXPE3zu+W6v9bdAatiEkzi3j2Fw/521WHF+PHz8uJOYLcXyM49YDDzyQ7jNRcTyNa5xz586Vcw0m9vE4TsexMltP1KFDhzbPV91oM//ifC47Fo6iBrmWiX0uPg/79u1L982o+JzEZyEakNmZ4vwu9pPqez/bT6Li+zaOd6MMOaJ9IPa/Xsdr10o7W3xXx37S6Zo69p/Yd2M/GaWqLUF70+QI3IBtEScknU6CRnmSHCcz3U7Ms4oLzVE1ADL9Yn+LBoRsX+hUsY+MKtSIE59uQXBWcbLuTqSdIRoYTp482fc+EifxozhZjvV3CzE6VYRzUOl2cRf76jDiGN6tcSOrmH4Sd5KyveL41S086KfiODiIOE+IEC1bZreK9Qk1dq5okOsWznaqQb5743yyuhmibcU5iQa5+dbveWc/FftbP6Lhud9jebQzuIl2Z4ljUqcQo1vFvjJMABb7Wbdwr1NFWwI7R1yv9NsuGecBo/iuHaS9KdatvWm0BG7A2MXJRbeT5lEFboN8sdQrQhjmVzRkxR082d++bQ1zIhKNcMOsP/btYe9mZroNEiQ0K/axQUUvi0EuXKuKiwoNxsSFYrZ/VDVM4BaNy9ky29ao7x5lusQxNPu7D1IRGvcrGvD6DTLqFecY7oLfWeKcstsNCr2q3+NpXCsNE0pHmMx8GtXNClm13U/jHHKYz0NcK42qXYHpFdfU/QYZzYp9ZZDe5bF/DdveNIobeJlu0f6Z/f3b1qDh7LDtTfE9EOcJjIbADRibuJu8zd2aozgxjnV1u1Coumr3akx2ITm/Bum1k1Wc4A8ihhLIlldVLLfX3XKxj7vzaD616ZkR+0ebY2oM/9SvaOTtFvbFxWWb9Q/SSM38iAu9Xt+zgwZuEZZly6sq9s3YR3s1hOilMb9GGbj1ez4Yx/Bux8c4vsf+2SuQi2VojNsZ4nyu2/GqunapV/N7up/jaZubIbJ1NMuNC/NpmJsFelXba6deI5DEcnoFLfGZcuPCfOsUKFTHzHg9RguJ/Sn+nU0bFftKP70iI6AbRXvTMDdHMv1i38v+7lXFsTb2k17ft4MEX71GWKjW3W0/jteMCjIaAjdg5KLRoZ+70IcN3OJEKfuyipOduCjMGi5iCMlOX3CDNFYz/bIT7thHYl+NRojYD2Nfif/2er5av40Nsb9ly4l1ZPt/7NOdAsLYZo1x8ydObJt/62h4jX0xaziI3o6dGh36vYCM/SlbViwnPh/ZsroNfxUXGuxMzYvMTt/N/eoUpMR+mwVo1XlIdkEZP3PjwnzK9pNoXIj9sp+KO4tjH+pH1lAc+1rcbJMdw+OY3+kYPuhwlsyOTgFttc90O0bFa7GPxr7dtuG2U7hXnWc0xXlBrCObJyo7d2W2xTEpOx72W9n1U+zTvcS8zfmi4niY9USKfbrTtVocW5lP2Y0DcdyMc75O39vxHdwppGt7c00sOwvS4jy30zlDBCad2ps8zmQ+dbpeiX2n00hF8fNs34r9up9emPFd3lxGVLf2pk43hMd+209bAjmBGzBS8YXR6cQiDvbZifGwF23ZnRxxEdqrsaTTxe4gjYFMv3rg1qmRtilOXLLGhjgB6rV/VeJkJaZvLiMuLHvpdDeyu4vnT/0EPY5fbY+LnS4g48KzraznUOz3bU7ys2N67O9C4Z0nO9Zlx7BBvmPjM9FcTpuG5k53I+vNPp+yho7tuJO8UwNgp8aVuk6NHf00sjB7su/OuCYZ180AWSAc29Dru7pT7/c4p4ZM9n3d65w2jnfNeaKyMLgpO4eNanOdx+zJrsvb9gTKQt1YXhtZe1Ocz/bqTRnH2OwzEcdV10rzJwvOot1p0HbJ+O5uI/al7Lu6TXtTnKs252s7L90J3ICRiYvE7GAdXzxVo0PWODxM4JY18MW/296R0WkoSifp8ycateJEpN87yjr1TmvTkBayE/R+7l7P5neSPn/i7xmNX20aF+o6nWAPe4LediiJONZm8wuFd55mg27VIFv/WVS/gVsWZvRz93rWGNfPeQKzY1KBW9aY1vZYHsfgYRpZmD3RG6L59459oO2NXP3Kwox+ziOzz1WUUJimbLSGOD72kgXC/dw4ls3fZr3MluxY1s81dafv217ng53am3qFbZVoI8vamzwra75k1yv9fNfG/pTtZ22uV7JrnX7OI7U3jYfADRiZZjfm+IKIOyPqB+pRB27Zl0NcyPYju7vYnZvUZY1pbQKFaDwZ9MSpEp+f7G4+oTCVaJRo7h9xQdlGFij329DbPPZHDdKLidmVNchWjbHNn/e7b2TH334berMGFqHw/JlE4JbdGdxvQ2+nQGNcAQyTE+d0zZtU4hyvbcPtILIwot/jXzbM+XaE2cyWQfa17Ibdfht647qquYwoofB8ya43+r2RNmv36XVNnV1nRRtUP7Leddqb5kv2PdnvfpK1bfbqaZadV0R7Uz/nFZ3am/q9EZi7CdyAkamfBEVPjewgP+rALeu23W8DRdbQEV9S/ZzoM9+yu5HjhL2X7E6nfsOMkH1u+tk7SfYAAGN8SURBVD2BY37FHZLN/SOqjWxYq36PyVmwHDXOBkSmSzMUqx+f6j+P6idwi32oOf8gd61nDR2DHIuZbpMI3LLGkUEaKJqNJVFurJk/2XnhOM/n4lomu/Gr32uc7DzDjTXUDRqcZT0zBvlM1B8dUJUba+ZLFpb1e82S3WjY6zs7u2mr32uc7POhvWm+ZDcI9nOTdch6cfa67snOfUfV3uTGmuEI3ICRiS+UOBHqNtTeKAO37MRlkIa4kAV3g24X8ydrIGlzV1q2vw9y8ZedSA26rzN/sv2jzTMJRtUQF7Lgzl1xO0OzsSwa2OoXmPXXovpppM0aRgZpiMuCu7bP7WB2ZMfCcTcWZOePg9xskDUkjjOIYTKyUGCcN6dkPTAH6VWRnS9EjXPbmS3ZzQdtjmHZZ2KQmw3qN/5W5caa+TJI77SmrLdat2H0s/PHQW82yII77U3zo/kd2Xa0maasp1m3a/Nsnx5Ve5Mba4YjcAO21SgDt1HdEReyE7h+h6Zkfg3aiJc1xA06vElzOVGGmyJkoUSbZ1yNqiEuZMfjOK4y3yJYa14YNi/y6q9F9XPxlg1PNWivn1Eej5lO2x24jbIhLruxx4018yW7UXDcgUAWgvQanqqT7MYazyAixLlAdgNXr94dnYLcQa5vsuOxG2vmS3at0c+z/kJ2HOu2n2bXWIOeV2THY+1N8yH7fo99bRDZtU+365WsZ90o25t6HcfpTOAGbKtRBm7ZsgZtiMtO4MbZSMNsyYbS6RUmxEVkc55hLvyyu+I0FhOyC7g2DxHPhtkbtCFulOEds6N5s0oWENRfj+onkMhCskFvNMgaWQY9Z2A6bXfgloVkg64va6zRWDxfsh443UYFGYWs99Cg112jDO+YL9l1dJsweZSj1YRRhXdMp+iJ1vz7xvdk20Agrpub8/e6QTFrbxp0BI9RhndMl1GeD2bftbHvdNKcdtTtTYOeMyBwA7ZZdtIy6EE8u/tj0JPq7EtSYzGV7EKyVyNDdqflMHcyZ43F426oYfrFMS8LJdoECdkJfbdhVbrJGk1iaEHmV9ZwkX2fN6dpG7hlNy0M0xCX9WRv9sZjtm134JadG3RrFOkm29+jug0jxGzJvnPH/fdt3vkeDXGDrtPNiWRif8qeQdnmfDI7ZsfnZFBuTpx/WW+eaLPpdVyL17N5e+0fWXvToD1+spsT24xIwvTL/raDtvtk37Wdjouj7jmftTd5RMTgBG7Athpl4BYnKM1lDSr7shp03GXmT3aHcK8Lyewicpgh9vq924mdIbsQbBtKRC+45rzDPI+luayocTcmMjnN7+BOF3j1aaLaBm7Z9/Kgw7OE7ALWsKfzZbsDtyzEHWaIvezmifgcMB+ax8ztuCmlGYS0Pf5msgbFYY7JzIdsFJC256FZr89hhtjLzokNezpfsl5uUXF87RSExc2J2bV8m3PAbL5BZTfjujlxPmTXLG2Pg03Zd22nc9l+pm0ja28y7OngBG7Athpl4JY1TAyjuawYlgKyk+M2YWzWa3KYoXdGOfwfsy8uHrOT4jhutT2mZheRwwRu2TF5mOUxvZoNbN2e1VKfLqptg++oLyKzhj2NxfMlC9zibxw/j79/fGdGw0H8exRBVnYn8KDntCE7Jg+zPKZLc7i7+Hs3xX4ZN1PFvlqvuGFgkH22vr6oYQK3Qc+HmW9Zr6G2IVd2I8wwvSmydgaNxfMnjonNv3NUhFfN/Sd6sGX7aNvzyXG3Nw27PKZD3GDa/LsO2qM8O5fttL+OepjS7LPl5sTBCdyAbZWdCA/amNC8cB3mIjLUl1UVxIVac7+Ik5FessbdNvN1kl2U9vugaGZfXDjGvpAN3xPHxAgp2sqG3hmGwG1niIvH5v7X7dhWny6q7Xd1dgwd5iLS0NHzL2uk6FVxHIz9II6r/TaMjDogE7jNryysqo5n8b0eDVrZ93qzYpo43rYZQj9ugmjOP8wxL/sdhr32YrZlN8bEPtr2WJo17g4TuGU3og1z7cX0yvadqiJgi3O+bH+I6idAiNCkPq/2JjrJvsMHGY0oO5ftNIpI9jkY5pg36gBvpxO4AdtqVIFbXGg2l+MEiFHLGpa79eSoG/VF5Kgbn5le0agVPSeiYayq5gVfs+List9jabbMYWSBm2dnzJ9mA0avxrX6tFHDBG7DXERmF7DDND4zfbK/cT8V+2ab519WsmPeMDcZZMOh9bM9TK9sGLT4e8cxqPnzNhXf3732jfj+bc43zDFP4EZTdszqp0fZqNoFKqNufGa6xY0yzRuwu1Wcr/ZzY2JoLmPYY15zeVFtbqBg+mXHw0GGlcyufzp9d4/6mKe9abQEbsC2GtWJdXbRN+xDZ7O7UtjZsjvj4mdtZM92EbjRRtarslPFifygQ6M1lxXHwGE0n08TNUzDCdMn9rVm40avRt/6tFFtGysG7V3cicBt/sX+2fwbD1KxX7RpABt14JadIw9z3sD0GDYM7lTdhu7L1hnPbh1U3FjRXF4UO1MW6La9KbEy6mF5BW47T+xv2X7UrLhG6TfYynoJj6O9aZjzBqZH/B2zADjOKdscF+PYF9M256+Wkcnam4Z5xn/2TE7tTYMTuAHbalSBW3YROWzDWdZwws6V7WNxR3HbC8lRN5wJ3HaOrMGgW8V+GftCPz0hxnGnenaRMEzDCdOnefdmm+/d+vRRbfezUTecjeO8gekTjQ/xd42K42LsM/WKm2bitV69htt8vwrcaCsbeq9ZsT9V+2z83aPhK/4/GpOzRtqo+HmnHsbjOG9sLi+KnSm7KbHf/SuOxc1lDHPeGJ+X5vLiZ8y32Gd6fadHxQ0H/QTC2bXSsOeNoz5vYLpkx8Wo2D/jWBTf69HjPcLf2G+rZ7ZmzxmsV6ebZUZ93phdKw173rCTCdyAbZV9KQxyYp19GYzjBIidKU6Csv2h7UPAw6hPgMbRcMJ0iruG+xkipV7RMNfmYnK7ArdBe98xfSLQbf592wwZ2pyn7X426oazcZw3MNtin86OW1X1+s4fdcNZdt7Q7/BXTKfsHK6q+LtHA1w3cV6a7R9RMaxaZjsCt2F7xjOb4jwzO0/tdxjx7Pg7SLtAZdTnDUy3+L7NhvHrVrHfxj7R5jmDAjf6FcfGNuFvv9Xpuzs7LxC4TQ+BG7Ctsi+FQU6ss2chxIPvh9G8e3TYxmdmV3YB2O/JxqhPgLKGExeRO0d1J1w0EMffPdu/qopjWa/Gu9CcLy5Ch5ENKdnv8C1Mp2iYiO/Y+t+27fC69Xmi2n63bseQki4iCbFvZI3H0WjS7QaG7Qjc2hzLmX7ZOdwgQ0Jnd8936uWWDQ0VN+UMKhtScpDn0zD74ru4uS8MEkRsR+A2zLUX0yt6BnX63o6bEOLvnn1HVxX7Xq9rlCxwG3V7U5RrpfkS+023fa9XZUOkxugNmWxIyX6eo9mU9cbX3jQ4gRuwrbLGhEFOrLMToGEDsubyXETuTFljRuwLbe6Eq9uOwG2YMbqZfXEcjP01u+CMC7peF3DNeaKGkV1cMB+a4VfsX22H5anPF9X2uzo75o06cGsbGjL/ooGuuX9Edevllh3zRh24DbM8pkfWiDVI4N+pZ1F2LZUd84bpnZFdew2zPGZTXA9loUE/w5pXst5Jow7c9BKePydOnNjyd47jYpzTNa994lwy21+j4ju8200P29HeFMX8ieNkXDu17e0W08V+Hftc9t3d6fonO+YNc62UXXt16kVPbwI3YFvNUuDmInLnyRrc4iR9kAavbF8f5o6jCNeay+tniEvmVxxDswa4TuO9V5rTR/UbLNc1G5+HPSYzHbIG3n4uvurzRbXdL7KLvk53eLbhrk16yXpbdAtlm8e8qGF6pMUxu7m8YY7JTI+sAW2QwC1kd7TH8bIpW2f0RB9Udu016O/A7MquRwY938uulYa5tsmCGL2E50u2z0RY0a09KUK47Ps1Kq7zO33PZse8mH4YzeVFMd/iGBTXG/VnDFcVP2/uu9n1T/YdH7YjcOu0bnoTuAHbKjtJ6naC1EmcODWXEzWoaFBsLstF5M6SnWBEI/Mg+2fIToCG6U0R8zaXN+i2MX+yoaOiuj1PI2ssHiRcrjRDGb2E50Pz2NPv37U+b1TbhrnsmXFxN/ygskZCF5HUZd/b3YbgywK6YXpTxGeruTzmQzS4Nf+2g15ntB1uN77/m9MNGoyE7HcY5ryW2ZQdpwbtAZFd2wzTmyILVYY5r2W6ZNc6cUxr+zfOzgOjIqjtJJt+UFl707BDVDJ/snPRTtfz2c3iw7RhZucX2psGJ3ADttWoAreQDQ8w6BjYsQ3NZQ1zJz2zJev5EDVMw1l2UdCrx1E32bArLiKpy56h1i1QyBqLBz0eZxeRwzwrhukQ36nNIDX+rnEx2Lbq80bFncjNabI70LPG4mF6Z2R3vuslTF0W8na7m71tT6O2mkMPDROOMF2ynhLxHTyI7AaxrIEtem00p4saVLbeYUZuYPZkx8g4Rxi0J27WWNwt/OglOw9mPsQ+lrX99NuDMTsvjX2409CSo7w5MbtpYZgbyZhPzfbSODfsJGvDGmafytpq+/2M8SWBG7CtRhm4ZSfV3XpzdJPd8RQnZMy/OFFpNihHDdvzITupHqaxOO6Aay5v0ICZ+ZTdKdzt7vPseDxoAJHt71kDILMl+7uOo+IY3JT1ZO920dlLdue7uzapiwa35j6S7ZuV7E7gQQOI7KYFvYTnRxZ+DdqzoZ+bBLMG6tjXBpHdtDDsuTKzJbv5b5hejqPuyd7c34c5Z2C6jDKc7ecGxezmxEEDiOxmXL2EaWrun91uzsnOW4c5d8w+G27wHpzADdhWowzcssazQS/8soZqF5Hzr1PYFgHssLLGs24Nd91EQ01zO11E0pQ1XHQ7Sc8azwa98IvjZXNZblqYfVkvs3FVdkGXHZ8HvfDLblpwEUlddgzt1sssazwbtLE4C1Hc+T5fmsegQc8Js+/bTsPwZY1ng47ekIUtblrYOTqdD3TqGdRGdlPPoD173bQw37Ie5YMey7KbZTpd/2TtTYMOe5r1rtPeRF12nO12PZ3dzBPnFoP2Om6OtDDMshC4AdtslIFbdqfToMNAZsMFDHoHKLOhU9g2ypAg268G6YWZNQLqPURT1gjXbT+Jz0Bz+kF7YcYwg81lDXoHKNOj0/NSR12dGp6z/WqQXpijvgOU+ZQ1hnU7JkZg25y+2xCU3bjxa/5lgdUg54TZftqp4Tnbrwbphdnpxi8NcTtHdg0/7E0Bsf80G3ijBrkGN1rNfMtuHhh0pJfs+qfTMPjZfjXoIyKyG7+0N1GXnSf0ujkwe67mINfg2Y1fHg8xHIEbsK1GGbhld4AM0tChIW7n2Y6wLWT7+yANHdlyNMTRlDWsdRtuJWtAi+r34i97zpcemPMjjjVxbBy06vtFtW80p+l0YZjdWDNIQ0d2N/Mwz4lhPmUNHb1u5MpurBmkoSNbjh6Y8yU7HsbP+pXdiNCpl1F2w9YgN9ZkDdTDhi3MjjgvzM4XOwW9/ciOu4Nc42SfCz0w50c2PO6g35HZ8azTuWV2Y80gNxtob6KXOM4295E237P9Xv93ko18M2hvTj4ncAO21SgDt5DdFRcXl/0Y1ZcUsyGC2uyicRx/86zHUb9DpcTJ1ygvMphf2R1uvY6H2bMJ+j25HlUownxq7hv9HAOzG2vi+N1PKByNItldxRriqIvv1OzcoNd+kp3Xxs/6EetoLkND3PwZxd+50zGxk069lPvtWZeFIqMYfp3ZkDXEjuoYlZ1DdhsOPRNhRvP4Hf/WA3N+ZOdx/bb5VLKbsLrdXJPdENNvKKy9iV4GHTY1u7Em2o76Of7FtFl7U6ebeWhH4AZsq1EHbtnJS1wAtP2CGUVjHrMj/t5ZSNtv41hbsR9m6+unkSL7zLireP7ECfWgQ6OEbMiTNo0NWSgcJ9xtt6XTXc/9NuYxv5r7Rr83HWRBcj/DR2cNK8IM6uI4mQ1X1abBIgtR4pjY9hgYyx9lQyLTbdi/dRZ89Ro5IZunn2GiRtGYx+yKv3PWEDuqwLXTeWQ/veeym8eijYD5kR3HBr25L/u+7zZcedY7OY7lbY+B2pvoJvajrL2n7bVKp2N0P6MqZW2q2puGJ3ADttWoA7dOJ+ltTrJj3uzC1wn6fNrusK2SncC0bYzLGjmihBnzJY5F8XeN/TMu6voN3mL4skGPg51O0uMitteFZGxn1sjhBJ265v7Rb+CWhcJRbRrjOn02hBnzJ447gxw/4ziXfU9Htb2DPQuF4/yyzbZk6xYIz6/sBoA4JrZpeM32lTbBV9bYG9WmN3vc3Z6dIxhmaufIeqC12e/6kbUPxDrajOaRbZ8wY/50Ohfst6dZFp7F/tJtf+7U3tTm5i/tTXQT54nZcLixv/XT3tNpv9beNFkCN2BbjTpwC1n366hofOl0oh5fLFn4Ehe9/TbWMP3iJDobDiIatWL/G7TadLOPE+1sX4uToE4XCbEPZp+VKCfo8yf2pfrfOPaNCLy63W0Z4viW3fEZFftc28aGrAEwKu4A7bSPR5CRNcLFtht+grrmPtJv4Nbp+B0VDW3Zd3bMkw2BFSUQnj9xrKv+vnHsi/PCXqFq7COx/2THsah+nnMVx+psGbHfdnqeWxwns7vso+I7gfnUqeE2GmQ77StxjOv0Xd/rPKGSNehFxWel07lC9GDqtK3dGqeZL9kNBaMeCi8adrN9LY7nnW6uif22034tEJ4/nc4FY7+JsKHXNU9cM3W6tm7TE2iU7U1x3tFre5k98TeNG1HbnIOG+P7Ojq9Rbeavi3V3a2/KvrPjZ532a+1NoyFwA0aqU6PYoNWm91F8WWR3DlUVDRrReB1fKPElmJ3QR8XPO13sMts63RU3ihrmzqGoOOmO/TJObOKkvdu+HNMxf2Ifyv7eVcU+EX/7OB7GsazbcSwqXutnKJ7QqdEiKi4G4vVoYIl1Zyf0VfV7gcD8a+4j/QZuoVNjXFT8PPbL+I6Pz0eni9eoWLebauZPNHZlf++o2B9i/6ifB3b7no2KefrdTzo1WkRVx/BoFIz/dgr5ovoZAojZ1O2csDqexfdt7C+x33Y69vUTCkdjXLf9LtYZ5xhR8f/ZNFHx/d+pcZn5k+2rsT+OIyzIhkavKr67q89FnI92a29o03bAbIobVTpdg8R+GdfRcdyMihtXqv/vdo0Tr7W5gSCm6XZ+GcfjWH9cz8e+2um4HT93U818at5AGxX7QnyPV/titX+M4zwwrv2z5UXF5ybWW7U39dqX23wm6E3gBoxMr0bjQaptw1xc/HX74upVcfKjoXh+xQlO9ncfRbUdymLYbYiTHw3F86tb40E/FcfBQS7kYt/qdvLdptxRTKa5n7T9Xm+KO0E7NWC0qViv3pfzKRoGhtk36hWNb4N818Y2dGvUa1MR2rEzdOpZ3rYG2U/jpsJuN8z0qphXQ/HOEg20zf0gGmvHJRqDm+vrp2LbNBTPt26hQr/VNmyrRHvTMNdrcZ7S7xCYzI4scOun4js22ouGkQ2x209FW4Del6MjcANGZpKBW6i6cWfL6VbxxaIRbr51u2ty2OrnxDlC3UEaO0Y9dAvTJxrOorF10Ebj2K+iAW+YhoaYN+4MzpbfreI4rXcwnWT7y6BiPxuksSPuLnXDwnyL7+JhbryKeUfRuyy+r7Pld6s4frcdGpD5EQ1j/Z4TxjlCNMgN+l3fbSjTbhXXVxrhdpZO1/Xx83GKY3m/58IxvZu+do4INiJczfaFNhVtP4PeaB3nkoPcXBM93cf92WGy4jtykHaeqGgDGNV3bITSg2xH3PDghoXRErgBIzVI4NWtBrnLIxotug3BUlWcLGng2BniBGaQBoZeFQ10/Z4cxfSxX/ca0iqWHSc+wuCdJS7kIiCOC8k2J8vV8BCjOkkPcSEbwVuv9cdnKhpGnJzTTbPnZHz3DiM+I9Gw1qtHZuy/sR8Lg3eW6hyw13dsVJwnxv446jvOo1EtGk96BYCxjXG8H+Xxm9kSx7M4J+x1zRL7Skw3qn0l9vk2DdbxWep3iGrmQ5wLNvfL7eqFGz2J4ty21w028Xp8LgxzujPFNXI/NwrG9/2oRjSK5fTT3uRaaWeI7+g2x66oOEeMfWgcQWxsR5trpdiGOK5rbxoPgRswt+LEJi4WoqJBI750qn9r3GAaxMlNtU/GBWOcvFf/hhAn4fV9JC7a4v+368KtWnc0zkXvj+rfGjeYBrEfVvtk7J/V5yNK4wb188A4htW/Z7frTvMIfGN9sd5Yf7U9GjfIZPvKOL9vI/Cr1hPXSXG9VP07XoNJq86DI/iNz0X8N/7tZhqaqn0lvu+rY9m4v+u1N9FJ9f1aHbvqx6/tPAesXyvFNmhv2j4CNwAAAAAAABiCwA0AAAAAAACGIHADAAAAAACAIQjcAAAAAAAAYAgCNwAAAAAAABiCwA0AAAAAAACGIHADAAAAAACAIQjcAAAAAAAAYAgCNwAAAAAAABiCwA0AAAAAAACGIHADAAAAAACAIQjcAAAAAAAAYAgCNwAAAAAAABiCwA0AAAAAAACGIHADAAAAAACAIQjcAAAAAAAAYAgCNwAAAAAAABiCwA0AAAAAAACGIHADAAAAAACAIQjcAAAAAAAAYAgCNwAAAAAAABiCwA0AAAAAAACGIHADAAAAAACAIQjcAAAAAAAAYAgCNwAAAAAAABiCwA0AAAAAAACGIHADAAAAAACAIQjcAAAAAAAAYAgCNwAAAAAAABiCwA0AAAAAAACGIHADAAAAAACAIQjcAAAAAAAAYAgCNwAAAAAAABiCwA0AAAAAAACGIHADAAAAAACAIQjcAAAAAAAAYAgCNwAAAAAAABiCwA0AAAAAAACGIHADAAAAAACAIQjcAAAAAAAAYAgCNwAAAAAAABiCwA0AAAAAAACGIHADAAAAAACAIQjcAAAAAAAAYAgCNwAAAAAAABiCwA0AAAAAAACGIHADAAAAAACAIQjcAAAAAAAAYAgCNwAAAAAAABiCwA0AAAAAAACGIHADAAAAAACAIQjcAAAAAAb01ltvFSdPntyshYWF4saNG+Urs2ltba04derUF7/TuXPnylcAAOhG4AYAAAAwgAinHnjggeKb3/zmFzXrAdWlS5fu+n2i4mcAAHQncAMAAAAYwOnTp+8KpiJ8ixBu2iwvLxcrKyvlv3o7cODAXb/X8ePHy1cAAOhE4AYAwEQtLS0Vu3fv/qJRb+/evX01Cm6nWdpWtsdO2ifs/7BVfA6qz0TUiRMnylfai95ji4uLm8NRxvCUowzs4jN63333fbF9EaS1cfbs2bt+r127dk1lkAgAME0EbgAAY7C6unpXA9c4a8+ePeVaZ9O+ffu2/E6HDx8uX50us7StbI+dtE/Y/+FuEZI1PxPx/d9GhFfRa6zTuUJ8t585c6acejCxjlhOfbnxTLY2Yt7mUJnxXDcAADoTuAEAjEHcoV5vpBp3zfKzVeo9Zqpqewf+dpulbWV77KR9wv4Pdzt06NBdn4f4dxs3btzY/OzU5+1UbQOyTAR69WVFaN6P5vyzfoMPAMC4CdwAAMZA4NaewI1ZJnCz/+9kMVxhfN9F7bThReOZaM3Pw7lz58pXu2sOQxkVn6WoZq+yqEFCt+Z5SAwJ2e+5QvxN68uIil59AADkBG4AAGNgSMn2jhw5suV3GuaO/nGapW1le+ykfcL+T10806+5P8Rzv3aKeFZb/XePQLqN5jCUEb5Fj7e6+FzVp4kQrp/np8XymsHdoMNTRghYX45hZAEAOhO4AQBMgXpjVlTbhrt5EI2Ip0+f3mxgjJrmu+dnaVvZHjtpn7D/U5f15B72mWOzpPlstAik22j2buvU6+zgwYN3TRefvbYiFKvP23aoy0x81uvLip5y/YR/AAA7icANAGAK1BuzonZS4AbA7NnJgVs21GKb3n3NXoHdnqkW72V92gjg2mjOFz3dotf9oLKhM3dST0YAgH4I3AAApkCzMUvgBsA028mBW7PXV1RzWMhMBFX1eWJYyk6iF1l92jbnBdFbrjmcddvnynXTHJ7SsJIAADmBGwDAFKg3ZEUJ3ACYZjs5cGsOCxn/bmNhYeGu+U6dOlW+kqtPG0M59tJ83trRo0fLV4bTfH6jYSUBAHICNwCAKVBvyIoSuAEwzXZq4Ba9yJq/d/R4ayMCsPp8vd6vZs+ybr3ommFePGNuVKFYs2delGc4AgBsJXADAJgCzYasfgO3aFQ7ffr0ZqNfVDxzpSka9uLu97gTPxrx4nkwcXd9rwa5eD2GpIqhr2L+ZsVyoqEvW2cbsfzYtmrb2zwbps3vG2K7jx8/vmWb4/eORtN+zdK2ZuL5QdW21Ndx6NChL7avU8XfuM2QaYNq+z7Fex69LerbH9NH438b8V5Go3d9/moZ8Vymfg2yTzTF7xp/5+wz1s/vlhnlsu3/o9//27w/03LsjueAxfTVtjZ7PUV1ei9jvn6eIxbvdfZZr7Y7fv9BPq+jEH+P5u8d73MbMRRjfb5YVjdxLlCfvtM+GO9F9Dqrpov/j/19VOJvV9+OqPi8AgBwN4EbAMAUaDZk9Ru4NRsAo1GyEo3VzeGv6hUNl5lorGs2Dvaqffv29R0OZI2XvZbR7fcN8XqzoTKrTr97J7O0rXXRoB7rzZbbTzW3fZR6vU/RYN/s7dGs2M87/T2iwTjCgGy+esV6+jHIPlHp5+8S+0jbRv0wjmXb/0e//3d7f6bt2J0FbP1U2/cvAsJs/qxiu0cZLLURQVNzO9qGic3fLf7+3dSnjWezZSJYbe4nEXKOWvPZcOP4PAAAzDqBGwDAFKg3YkVFA3Q/OjXaRkNzr5Ci2TAXDYfRgyCbtm310zje3PaoQRvx4+7/frc9GpF79RSpzNK2hph22EbyevW7X/aj0/sUoUM0qtdf61bRs6MZHsW/e30O6jXufSLE5645X5tq06tnXMu2/49+/+/0/kzjsTu2LZunbfV6//r9rNdrHAFTJ81t7BSEZeL9rc/bLeCP/bc+bYRqmWaIF9s3DsP83gAAO4XADQBgCtQbsaJGEbhFg3Ysp/7zrJoNlf32jMgqQo+2d/yPqhE/ft9uvUG6VfzObczStoZuPUVi3+i3cTsa88cle5+iAb7NPtys+v6X/c3aVNvh0gbZJyIAbM5TVTx3KX73TmHLJJdt/x/9/t/p/ZnGY3fz+WP9Vrf3L96HZg+qesW+G5W9VlVs33aI96i+3n4CrnjuWX3e6HXbSXy2ek3bnCa2LY6b45D9/ce1LgCAWSVwAwCYAs1GrGhs7UfWaBtV/1n182ikjYazqkE3nh9U12zUjMb5mD4a8puNazGUV6dG7W4NiXWjaMSPxvtmA340PFbbHcuLeeLfzcbSqto0HM7StsbfpjlfLC/+3s1eQtGbJgsfYhtie6pqG6IOovk+xX7YDB2iQT7232p7ondIp+AmArPs7xWfgXg2VMwf/+30PsfP2vy+/e4TEaY0A6/4vaLnS9Z7Kxro6720JrXs0O/vGprz2P/v1nx/pvnYHb9/bENVWe/BmLc+Tb069aCM97a5nKgIEOO15t8rtr1TT774W45TLL+5zniP24r3sLlfd9qvYrn16eLzWpcFs7E/jUuzd15Uc5sAAHY6gRsAwBRoNmING7g1K5YXjZRN0XjYbMysGsOjsbZt410sO2scbzP8Xbbt0cjaTa/fNxrPOzXKx7KznhRtejTN0rY2G9/j79Pr79FsQI99IBp1t0Ov9yka2LNtif23U+N7veL3j4AtE/tv9j63eZ5bv/tEs4dLVJtG69jGaIDPgrPKOJcd7P+j1+v9meZjd/x9mvO1XW8lfodmaBTVbWjLSoR4zfna3ugxqOzv1WZb65r7WRy/mn/LCEnrf5f42zY1lzPu3z22qb6+qAhtAQD4ksANAGAKNBuxRhm4xbLa9AipRCNqBBO9Gt+bohG8ue42ja/Ztg/TiB+9InptexZMRONmr8b1WdnW+Hs352nTKBw9LZoBR5twYxS6vU/RsNxNvIcRMmTzRsX7FY3F3WTvcyyzl373iebnpN/PejfjXHaw/49et/dn2o/dsb5B5qvLek31E2BFyNScf5y93LKQr9expSnrJRd/6zjORYAVvRnrYVtUMziPv3P99ThWdeopNyrZ56rXsRkAYKcRuAEATIFmI1a/DeWdGm2j0a6fBtthZI1xbe5+z7Z90Eb8fu7wbw5rFzXIeqdxW7OQom0jfPM5UFnPinHo9D7F9rSRNYRHtQnbKllo16sRu999ojlcYPTwGpVxLjvY/0ev0/szC8fu+Bs054vfpx/Nz1z8u5/AMAuv2h4zBtHsVRbV6zOQieFAm6Fap4pjW10WDPcb+g0iQu76OqPimAMAwJcEbgAAU6DZiDWqwK35jJ9xazYgtmn4HFUjfoQL/TTUxnCBzWX0er9mZVub4VM/+1NzXdGwux2y9ykac9u+TzEEXnP+qFhuW1lPn169ZfrdJ5qBTnxm+tkXuhnnsoP9f/Sy9ydqFo7d8bevzxPVz+ctG6JwkN+7OaRsv9+f/Wh+xqKyIT/biPliW5vLqyr2vezz1QzWez1DLgK6UR0H6uuNGnWoDwAw6wRuAABToNmINYrAbRJ3njcbD9tsw6ga8XvN05Q19jZ7EjTNyrY2e2H00ygaDd71eaO2wyjep+b8/X6OsuHtmkO5NfW73dk6RvUcpHEuO9j/Ry97f2bl2B1/x/o8UfH7tNUMRqPaPDuuKQvKRxk01zXDrqhheyJGqB/vW/weEZ7F/3cK+puf8XhWYfN3jX/HdNGLtN6DMKaNwDBeG1QzmO33GAsAMO8EbgAAU6DegDVII9YoGrVHYZYCt2wYtWkN3Prd1ghZ6tP200sna7zeDqN4n5rD0/X7OWo+Fykqtqubfrc7erU0p4+KkKjXMwR7Geeyg/1/9Ebx/ozCJAK3Zng1aG/CLGgeJLhrIxvedNjAra34neqBV/x/s3dd9GaLgLm+fVlFGDdIKNncT8bdAxQAYNYI3AAApkC9AStqVgK3aNyL9VTVDDwEbpPZ1iw4atso3GxQ7ndfHNQo3qdmY3C/2x7rq88fFdvVzSDbnT0HKioar+Pv2uu5cd2Mc9n2/9EbxfsziFEcu2O++jxRvT4vdc3Pa2xD/F37rQiP6suJGtczzZrbHLUdIhxr7pvxu9dFINf8O3arWF6/odukfn8AgFkhcAMAmALNBqx+G3nH2WgbPWOiATt6jUQjbFQ03jfXl5XAbTLbGsORNaePIKaXGD6xOV/0+NkOo3ifmo3B/X6OYn31+aNiu7oZZLvjMxXDuzXnq1cM/TZIaDDOZdv/R28U708n4z52D/J5qWsOTzjK6mc7+pEFWtuh2WszGya1GbZHoFb1gIvPUAyX2nzP+x1eUuAGANCdwA0AYAo0G7CmIXCLBrpOvWXalsBtctua9fro1rgaDbPNxuRonB3X0GxNo3ifZiVwCxGGtPl8RXgWoUk/xrVs+//ojeL9adquY/cgn5e65ryjrE7PQBtWFjjF522cmu9z7JfxN66LHov1MC325Wy7mqFyhHL9ELgBAHQncAMAmALNBqxJB27RCN+8E36QErhNbltjnuxvGD0jFhYWNrchKkKIo0ePbpkuKnpEbJdRvE+zFLhVogE8PifNZTTr4MGDfQ8HOepl2/9HbxTvT912HrtjO5vz9fq81DXnHVVF2DguzWEdo2JfG5cIzZrHtew9bvaA6/b5aC6v+Ry4bpqhtGe4AQDcTeAGADAF6g1YUZMM3KLBtrmsqqLXSDTk1Rus69VsjBO4TW5boxF1mIb3CGG20yjep1kM3CrRIyeCgm5/s/h9BulNM6pl2/9Hb1T7T9juY3fMV58nqtfnpa45b7+9rSYhC7DHGbg1eyrG3zET+2t9um49M2OY1Pq0w/zN+j3GAgDMO4EbAMAUGLYRa1SNttFIlzVSxzOf2jQqxnbX5xO4TWZb19bWej7Hq1PF3z+WHcvYTqN4n5r7X7+fo1hfff6o2K5uRrHddRF6Ra+rZgBSVXwWBzXssu3/ozeq/WcSx+5BPi91zefJxX457bKhSof5vHfTDFDj/enUE7W5v3cLz6PnZn3aXt97dfX5omYhJAUA2E4CNwCAKdBsxJpU4Na88z2qn+G5BG5bTWJbm8OLRSNx9HKKxvf6z+sVjfXxer/DFo7KKN6neQjcKhH4NHu3VDXsc8UGXbb9f/RGtf9M4tg9yOelLgtFtzvo71f2uRnF570p9sNmIHnu3Lny1a2aYWs3zSCv7X6SfQ7b7CcAADuJwA0AYAo0G7EmFbg1G12j+mkAHaTRdlYa8cOsbGvzOUMRNtTFcHvxfK/o6RDbMsgwhaM2ivepuf/1+zmK9dXnj4rt6mYU291N1qMmGsxHod9l2/9Hb1T7zySO3bGd9Xmien1e6rIANP7W0yx73t+oPo91zSEiY73d1KeN6qb5d2sbuEUYX58varuHHgYAmHYCNwCAKdBsxOo3KBhFo200zjaX0e9wUYM02s5KI36YhW1t/h2j58MsGMX71Nz/+v0cxfrq80fFdnUziu3uJtum6M00Cv0u2/4/eqN4fyZ17M72nxiytK2Ydpj5J6E5HGNU9KgcpeY6oidgr/C02Ruum2YPt7bHkwip6/NFjfp3BwCYdQI3AIAp0GzEmkTgFkNYNZfR73BRzWdDCdy2f1ujN09z2mGHINwOo3if5jFwi95XzeX32k/b6nfZ9v/RG8X7M6lj9yDH0Lqsx1RsR69waZKid2Rzm6On6KjEe1IfHjL+P9bZS3N4zvjbdNLc59qGnAsLC3fNFzWO3n0AALNM4AYAMAWajViTCNxCs9E17ppvK3u2jcBt+7c1GqubvR3i7xrTt2m4nZRRvE/zGLhl2xQ9TUah32Xb/0dvVPvPJI7dWc+6focYzIY1jWBnWmW/c4RdoxDL3rdv313L7vWdVGkOQdltX28+47BtaJYNAToLN3MAAGwngRsAwBRoNmJNKnBrNtpFxbK7iV4yWaNplMBtMtuaNYxmFY308TeqKv6OsdwIXba7IXUU79O0B27RCB49VmIIt+iV1Eb2mcyeOTbOZVfs/6M3ivcnTOLYHZrhZlQ/7925c+e2zB8VoVAEUP2Iv1v8/fqdr1/NZwRGjWKdse31ZUb41lYzROs2TGSzN1zbv1fz9+4n1AUA2CkEbgAAU6DeiBU1qcCt2eAXFY1qne6Aj583e1bUq02j7aw04odZ2dZoSI/3vjlPvxWN8TFE33YYxfs07YFb/dlM8bk6evRox8bu+HkWhnRqhB/nsiv2/9EbxfsTJnHsDs0eWVHxuav/DrG/RQDUqeda1sMuKpYdgVynADn+zhGyxbLrv8sg718/skB32P0kAvP68iI8j/2+rXiP6/PH+5HN39zfYh9vqz7UZVQ/gSAAwE4hcAMAmAL1RqyoSQVucZd+8+73quLn0Ysi7qSPxtissbZ5B7zAbXLb2u1v2W/1WtcojOJ9mvbALUKO5rRREYzEZ6WqLMSI6tSIHsa57Ir9f/RG8f6ESRy7QwRe9fm6VWxHpu3fqr4fZ69XNcj714945llznb2OE93E7988dg2yvGaIHn/nWE68H1ERTNZfj2obFGbPRuzWiw4AYKcSuAEATIFmQ9akArcQd8o372RvU9EoHeus/6xNo+0g2z6K33feA7d4vTlPNKrXG62zodE6VaeeMqMyivdp2gO36KkzyGcrKubr9n6Mc9kV+//ojeL9qWz3sbvS9n3sFLiFCJ2awyIOUvH79wqOh9XsTRYVvfQG1ezh10+vs7rYrgjY68vqVv08Ky8LGaP3IQAAdxO4AQBMgWZD1iQDtxB3s2fPBMoqGlGrhrdBGm1nqRF/VrY1GlKb00djdi/xd495m8FVVDRkd3u+17BG8T5Ne+AW4rPST9ATFQ3ybUKEcS472P9Hv/+P4v2p285jdyXel07DQtYrhmLsJYZWbNPbLavtGAK00tzGCLoG0ewhGL3S2j6DMROflV7HgNjWWG8/Yn9oLiNCUgAA7iZwAwCYAvH8pWjQiopGw34bw6KRLRo8q2XE85tG0TgcjbDVcus9J+L/o/G02esjGuDq29Hm9xhk20f1+0ajfbWM+H16NdbOwrY2G86j+h36K7Yva7QdJgjoZRTvU+xvETbE/PHffj9Hsb54r6ptiO2J7epm0O2O97Ia4q/5Pkdjfvw8tqXX+jPjWvYgv+ug70/TvO7/o3p/mmJbq+WO69jdFOFdtYz6+uLf8fdr+3vFtsT2xd+tU3hU7cex3NjWUbxn/ch640VY2K/m8J5VADqMeP8iOK7/LeL9ir97/Lzfz30sr74PRcWyAADYSuAGAABzpPkcn+itEw2m/cqCi2ishWlm/2c7RLjW3D8i/OtX3GwT80WNImwbhwg0m7/ruIcYBgCYVQI3AACYExEsNBtG2wyll4leEM1l9dtTCLaT/Z/t1Bx6dN++feUr8yV6XdZ/z+jtNkiIDQCwEwjcAABgTmQhQfSgGET0tmgua5Bh5mC72P/ZThHANveRYZ6/Nq2awaLhJAEAOhO4AQDAnIjnGNUbRodpHI3n/zSXNY+NycwP+z/bKZ4j2NxH5m3YUcEzAEB/BG4AADBHmr0RYvivfp8NFI3G9WVE7d27t3wVppf9n+2UPTNwnjR/P58DAIDuBG4AADBHsp45UTH82VtvvVVOlYueC9Gg2pz3vvvu2xyuD6ad/Z/tlPVy67WfzYro0RmBdf13O3v2bPkqAAAZgRsAAMyRCAaajaTNilDhwIEDX1QECtl0VfXbQwgmxf7Pdjt48OBd+8u8POPs1KlTd/1eDzzwQLG2tla+CgBARuAGAABzZmlpabNxtN5YOkhFEKFHA7PG/s92ip6R9f0mAt94nuCs27Nnz12/VwRwAAB0J3ADAIA5FA2+J0+eHCh4iHlOnDixOaQYzCL7P9upORRphHCzbGVl5a7fJz4TercBAPQmcAMAgDkXzxmK8CGGOosh9OqNw9XweocOHSoWFhY2ewfBPLH/M24RRsWz26qaB/FZqH4f4TMAQDsCNwAAAAAAABiCwA0AAAAAAACGIHADAAAAAACAIQjcAAAAAAAAYAgCNwAAAAAAABiCwA0AAAAAAACGIHADAAAAAACAIQjcAAAAAAAAYAgCNwAAAAAAABiCwA0AAAAAAACGIHADAAAAAACAIQjcAAAAAAAAYAgCNwAAAAAAABiCwA0AAAAAAACGIHADAAAAAACAIQjcAAAAAAAAYAgCNwAAAAAAABiCwA0AAAAAAACGIHADAAAAAACAIQjcAAAAAAAAYAgCNwAAAAAAABiCwA0AAAAAAACGIHADAAAAAACAIQjc4P/f3vm+XHZd9/1vat/kXV71Xf+BOi0iIPRCKZhSvxkKlQl2YAIVgSEUx60EUUMVUtUwxTjQKUbuCwUiGgSNRSyoq5aMaVVX0ygaO5YdPeU782xrz5q191n7x7n73Hs/H1hIc+85Z/9Ye6+1zlrn3AcAAAAAAAAAAAAAAGAACm4AAAAAAAAAAAAAAAAAA1BwAwAAAAAAAAAAAAAAABiAghsAAAAAAAAAAAAAAADAABTcAAAAAAAAAAAAAAAAAAag4AYAAAAAAAAAAAAAAAAwAAU3AAAAAAAAAAAAAAAAgAEouAEAAAAAAAAAAAAAAAAMQMENAAAAAAAAAAAAAAAAYAAKbgAAAAAAAAAAAAAAAAADUHADgMPywQcf3Hz/+99/Io8ePbr9FC6Jx48f/1LHAOcIdgoAACDGZ5999kufKdG/4fL46KOPnuj3ww8/vP0E4HzATgEAwCgU3ADgkLzxxhs3X/rSl34pL7zwwu03cCm8/fbbz+j4xRdfvHn48OHttwDHBzsFAAAQ55VXXnnGb969e/f2G7gUXnvttWd0/OUvf/n2G4DzADsFAACjUHADgEPyjW9845lAVwKXxVtvvfWcjvUUIUCE9PSp1tE777zz5GnqU4OdAgAAiKPiS+4zv/a1r91+A5eCdJrrWAIQRb8W8e677z6J7/Vf/RrKqcFOAQDAKBTcAOCQkMi+fCi4wQh37tx5bv2c+qeLsFMAAABxSGRfPhTcoBcV2/RrEfnaefnll09edMNOAQDAKBTcAOCQkMi+fCi4QS96m82uHcmbb755e8RpwE4BAADEIZF9+VBwg170RptdO5L33nvv9ojTgJ0CAIBRKLgBwCEhkX35UHCDXvS3/uzakejvhpwS7BQAAEAcEtmXDwU36OXBgwfPrR2J/u73KcFOAQDAKBTcAOCQnFMiWz9jd+/evSfBuERv2ejvS0Gdcym4od/joZ+csWtHcv/+/dsjyszUJwU3gDjYUgA4p0S23qp59dVXf2mzTp30P1c0V7mOJUcE/R4P3QfatSP54IMPbo8oM1OfFNxOD/sRrhXW/uVCwQ0ADsk5JbK9wpF+8g7qnEvBDf0eE6sX/U03FeK2mKlPCm4AcbClAHBOiWz1Le+r+g7b2HmTHBH0e0zu3r37jF70oE6Emfqk4HZ62I9wrbD2LxcKbgBwSCi4XT7evFFwg1b01kzLWzIU3ADWgC0FgHNKZJME68POm+SIoN9jE3mrLWemPs/JTl0K7Ee4Vlj7lwsFNwA4JBTcLh8KbrACCm4Aa8CWAsA5JbJJgvVh501yRNDvZTFTn+dkpy4F9iNcK6z9y4WCGwAcEgpulw8FN1gBBTeANWBLAeCcEtkkwfqw8yY5Iuj3spipz3OyU5cC+xGuFdb+5ULBDQAOCQW3y4eCG6yAghvAGrClAHBOiWySYH3YeZMcEfR7WczU5znZqUuB/QjXCmv/cqHgBmfBo0ePniTikzx+/Pj2m7k8fPjwmXZafzt8lHycPWPU3zHK+6/xnAr1N297NIm2RyLbzo9kBqdMIu41hpnYPmpde8wuuNn9W2u7hVPpd6/+w7OsKrhZP3b0QsNsm75F1G60gE/vZw/9U3ADi92je6G9n7dzyr0k8nH2sNJ/qK287R5blrNHItvOj/626wxOmQTbawwzsX2Uj/Kw8yYZId+/M+flVPrdq//wLDP12WKnZtvILVb7s704pb0d4dT6FlHbG+UIa4i46AvOZe1DOxTc4LC8++67N6+++urNiy+++IwBSvLyyy8/SXbKyPUiQ33//v2bV155xW0jyZ07d27efPPNLkP+9ttvP+mrriPj+c4779x+8xQZaPXBBnaSF1544ea1117bbFdO8969e8+dL/nKV77y5Po95H3Xdd57773bb56ivj948ODJd7Zdic594403uuZtVsFNzlx9KPVRou9a+qm1IMeYxNOd1lR+TC6ta3aPMcxGa0HJ1FIfNUf6Pg9IvORry9zoplW62Nq/R9XvXv3vQX1Oe12iPrUG37JtSf+yXbLfrTcE+TUkd+/evf3meXRs0o3akw302FOfW3ZK4//Od75T3Bf6XN+filU2fcsPykfl6y+J9JLbjC3w6XVOrf9T2VI4H2QTtcakX7sWkmj9jfo8+Vddo7SWk6gf2k+yHa1ofad7FNkU6zPVf+137z5Ge0ntbtk32ZeSPVObulfqIe+7rm/nWvOhYzy7LNG8yne12OeEtQPSQQ+yX/LBpT5KNLZoP7U2Fbck+yOxupMNz7/PRfFK6zqaPYY90NrQXvLsd+qf9nSO5sMe14LmZWv/as7UTmQfiVPqd4/+96K1o3GpTf23Z53mtkD/1b9bsfZE94Al9F3ennfs3vrcslM6VzrOx2SPtzFWL6fwZ0K2KM2hxm/3dQSdk+ZO19I1PVbY2xorfWLeto0ldD3FEWkP51KaW49TraHaWARx0fHWPuwLBTe4+ewXn9/8p/c/vvm97z28+fq3P3wiv/vdv7z54//645v/95Of3x51OuQQZCxzo7MlrYZHhk4G3XNeWyLn1tKWjrfnJxSIlYy2FSXKLBqHnKd3vBUZdh3fgu17HvAqIVi6+bKiefb6X8O2LWlBzi46N0nUTznSrXnqWTe5KNCIsOcYZiLdeoGTJ1rvKYnaW3DTvikFWltSu8FL7K3fvfvfg4JT21ZuqyIoCLTXaL3ZtDZF66pE1Ebsqc9aH1rse4997mGVTbftprWlMXtzmEvEJug6+PRtbN/31v/ethTqfP7zn9389E//3c2n3/rqzSevv/REPv2jOzc/fecPbv72r398e9TpUJIkuj+StMYz2stbNsUTrVXth5a27H7J90TUHsnHae9ZNA7Pp3qiOWrF9j23s60x3aif1zhbaLGTSdTPLZslPXjntkjELoq9xjAT9bHFryquTclVb+1GULIy6odyUR/twy+WU+h3z/734q2zlkKK1oFdA/r3VlI5R8faayiGKRGxEXvrs9YHnRe1kSP3baf0Z8JeJ49vo0T3/intbQSr75U+MY1L+2YrJ7rFqddQaSyCuOgpR1v7sC8U3K6c93/06c1v/MEPbv7hv/q+K7/++vtPinGnQknfiCH2REZShniLiPPaEhlSFQYjWCeXghclkvLPI5IbVz11sfWUihWNuyVAtn1PQaMcZv55VHReFC84iKK5GdGxCri1ACPqcEuim58t9h7DLHrXgtay1pP9fCu57p3TKltB2J76PUX/e5BdsO3IpkbxzpdE1npCa96eX3prTURtxJ76LPWhR8/a7/Zputmssum2Xf1bKOGSf+7Jlk3Apx/Xp5/CV4LPZz989+bRb/+9m//7z/+OKx//5q88KcadCvktT8cRUSI/Es9oD4+uObUV3VNeYknntj5Qo/ue3M4pUdM6DvnKlpjPSyzp/IhN9qQlwWjb9pLpJVTQGbH3yeZ5aP1457RIJAm25xhmYv1FRLRutZaiSfecaCK1JrV1uLd+9+5/L94DdbpHjOKdL2l5i8S7Rq3oF7ERe+vT64NsZOnXB2rS84DUqf2ZsOen+LaF6N4/lb2NciSfmGKJiJ+osWINlcZCXPQFR1v7sC8U3K6Y//De/3GLbJ7o7be9kVHzDEoSJaLkxGsGe+smRAkta0xzkXFXG0oMKBittSWjb1+T9vCSc95NTGq7lnDTMSoqylB749BnuoaOs98lqSWwLbafmt9S0iSiH0n0CT5vjiJofko6Vt+UwFMfNBa1UQpm5FxL9DreJFs3KacYwwzUB69dSVrPklKA5I0xD64sCnrs8UnUjsarOUnzUlqL6lutsLGXfk/V/17UB9uWbE2E0g25dBxFTwbb82sBZdRG7LlfvT6UbKT2qTfHueh6e2L7q7V2Cptu29W/o0Wemk3Apx/bp++596DMT/7z626RzRO9/bY3WmeefpNojW3tla3k1VZiSd/JBmi9b7UlWx1J0tg9Kx/mxWMq6KtN/dd+l0TnCY3T2+8R/xGxxQnbd+01zU/+WZKkH29sSaL2U9i2de0I8gXe3CRbq3WWYmPZHs+mSqQnD+m8pqMticzB3mOYRckvSDRO9VXifa+xePNYo5QDSG3Jd2lO0ryU1qI+L+3dPfV7iv73ouvZNad/R9vRPWd+bhKNKYoXI9XuYyI2Yk99CtsH6aZkI9W/kk6TtOzZFf5M2HNbdJxQf+x1PPbWXytW3yt9ou59o/FziVVryI6FuOj5NXC0tQ/7QsHtStGbbV5hrSb//r/s9+S9nnzwDI+Ma3oywqLg1hrZrcCgZJT1ZHopsayAsPQ0k4ztlgOyQaZ1GDKaNghTAs4LTiVywNaBaly2/5of6ziSlMZqsX2w7Up0jA2apS/dVNhjJcl5buGNP4LnGBVE1BxTKfEbfXrEG+tIQWTFGHrwgjOtbz21aPeFt1890XElNKf5sWpfbWm/lFCQ5tkW7aMos/S7qv9RZIdsOxp7hNrbPdG5sutea6n2VF2vjZi5X0t2OonGoJsZOw7p1bPPOr62HkZZZdNtu57t0DHa/2pL/1V7shm1NYBPfyrn4NPFzL0HPnqzzSus1eQn392v0F/66RytZdlBDyVIbBKjFstofZb2hvZiaY2pb9rz3nmRtyttm9YWyM7ZMSqOKyVwZJfsNfSZ9QmaC3ucRGOJYvtubYH+rf1q7W/NfkbfSLVty95toX6UYqGSj5At9+yu5i6arLI+Rn3vZdUYWtF689aXxu7tWa1Hq1NPasi/5cdqj8gO1Pyx2vV8mPW/NWbpd1X/o2iN2XZK9tdSSii3zJVdH1txgz0+YiPEzP1q+2BFe9m+pSd9l+yz/EEE2YJS23v6M2HPk+1pxepAEmWm/lqxc77SJ9p7JK0n5XkU68s+a+/qPkfteqxcQ7ZduxeIi3xWrn3YFwpuV4j+ZlvtZyRLop+X/PDHP729ylxkjHIjI1EgE0kiyWinG5hakKqgyLYhscFSiVJCeSsw9m6UksiYlpyeqD1hmET9KiFn5CU25Swi1Poup6MbjBpeck0ih76F1/YWehLFnqObjNoNT8LeLEmizs4bZ02vNVaNoRWvnwp0tm7gtt5q2VpTGo/WdMsTS6XkgQ3WSszU74r+R9GYbBvRQFXjsucmiSQPtL7tGLdusHtshJipz5qN3PJhJfscDc57WGXTa+1K77InreDTvxDpJcIq/Sdm7j14Hv3NttrPSJZEPy/58x/9xe1V5uIla/VZxH9pLye/UFtj3rqOrOeEdw8i2boHqfk9JY9KcZs+LyWXclECqYT65sUFkfsmUeu7bMxWMcdL4Ks/kVjVtr3l64WnI8WTETy7ozUTYWYSbNUYWvH6ueXbpPdSwjFJDV1b60f7IupPhHcvovUbZZZ+V/U/imyJbScSa8pO2/NyidgbHWPP24pZemyEmLlfbR9y0b1RqUguNGb5IHteJNZd5c+EPafHxlgdSKLM1F8rNX2f2ifmou9aH65YuYZqYyEuKrNy7cO+UHC7QvQ32byCWkT2+GlJBXMjxlHoGrppqd3Ae0a0JektvGTZVmDsOT2JEg61YE3IQHsBW5KtgFV4QXY0iV7qu+YymiTzkpqRAM5rewub2FHCe2uOczxHGXkCcGYScdUYWvGSaNFEt7cmk0SDwVa84PGcksQj/W9B9sy2s7X+NBf2nFwiN8pao/a8rfXUYyPETH2O2kgv2aI9vxerbHqpXUmrH07g07+Qc/Dp4gi29JLR32TzCmoR2eOnJeXPrb5bYxrdCyi+LyUstH5sG7qnaF1XXqKnVvwWng2S1JJKCY3LO1ei/kfiNm8vyqZFGOm70DFeHBh5wMa2vRUjePeJ6mcU9VXrLj9f14usw1lJsJVjaMHrp/4dvSevPVSyF946jHKEJOdI/6NIr7aNyFhr92uSSMzi+f2t9dRqIxIz9Wn7kCRqI737Nt2j11jpz4Q9Jxrb5VgdSKKs3I+j+p7pE5PofqG12LZ6DY3M4zXHRUfwRbAPFNzOnO/94NHN17/9oVscK8k/+tf+50/lz29+7Zve52OiPupvxnl4gZgM20y8ZO5WUs3DuxGR1IoEXoJLN01Rx1d6yiQaBMn42z5HjbjXdzn/6I2XKDn+rZtEr+0aXuI64uByPEev+d9iVhJx5RhaUKHHttG6n0pvp+xVcPPmNpqcP0KSeKT/LXhjrT1NJuwNuS0oaL9vBaqendua41YbkZipz5KNjF5P82KTaJLZSbTEKpvutSuJ3gRZ8Onn59PFEWzpufA3f3b/5pPXX3KLYz3yY+ezGaI+6m/GeXhvvPTu+RJegj+SFLJ4NmXLd3nJGRW/t/xdQsfa8yVbPjfhxXtRO+L1XYmiFt/jJeN1jS1s21vJdM9mttgsoVjaXkNx1RazkmArx9CC10Z0TSU8PyPZi574MXGEJOdI/1uwY5VsJfOtLm18v7V3Rc8ct9qIxEx92j5IWuy75taevxWnrvRnwp7TuveFt86izNRfK56+V/nEJJECk2X1GhrdN9caF61c+7AvFNzOGBXbvOJWv/y589lc8f4OnPdGzuwbCC/4by1kJLwEQu1aXtstN1leor3FcYne4Mfre4/z95zn1nW8tmvYG5ZIUOBhne3W02hiVhJx5Rha8G4Ooz+Lk+PpeK+CmxeAjfyUz6mTxCP9b8Erpsrm1bA23JuvLZtu12wkOG21EYm9C26tSTTvabzWa0RZZdO9dpV46LFvwrsePn2bVfpPUHCLoWKbV9zqlb2Kbbl4fwfOe/hCRe6ZeAmSXvvpXasWk9jj9e+WxIy3HxRftaA5zc+XbYhg+97y0EBCY7XtS7auY9ve6rPigfx42Z9W1Kf8GpJIDDUrCbZyDC3Yfkp64nLvOnvhFQmjfm2WfkcY6X8LWiu2na24ye5Vz2bVbJ6+s8dHbFyrjUjM1Kftg/7dYt+F4tz8GpIatk3JqfyZsMcrZmzF6kASZeV+tPO10idKeuZerF5D9hz9u2XfXGtctHLtw75QcDtj/tm3/ptb1DqyvPT7z/+NCHtDLuM2G2tA1WZvok+OJr+WpOYIvARXC14CvNUJewnFSNJjtO8Jz3nO/rk4e3Onf/dgHV7kOrOSiCvH0IJXJO9Jonnz1nNjH0H6sG2p/Qiz9DvCSP9bkQ3O29myl9aGK9i0Nrf2dJ33FGhkbL32aaY+Z9hI723PvfbBKpvutTvyk6j49PPz6WLm3rtk/upf/gO3qHVk+fi3fvW290/xfNbWwxuteG2M/EKGtz71WQlrh6JJnYRn+6NPcSdsH6Jv+o72PWHjTcmWbW9pW/FEfqyk52l90XMdOz71vZXVY4giH2qv33tP7q2LvfDeKIjuoxn6HWWk/y14sXZt79njNTfeWq792oa+s8dH4tte+zRTn719yPFitVKsutqfCXt8a2wqrA4kUWbqr5UZ+hbe+Ft9ouyu9lorR1hDo/N4rXGRPUd9gcuAgtsZ80/+8AO3qDVH3nc+G5dff/39294/RQmi3LhIZhcHvOBwpA3verU3iEYTXJ7zbA2AvNfLdd0tZiXnvITmlsNuadvTSU+QKGy7ekplCy8gicxvzuoxtGALg71BgTdvFNx8RvrfihI4tq2SXvTUXH5cemrbXqO2RryneyNP47XYiJyZ+uztQ46XbNlrH8zor2i16bPaFfj08/Tp4gi29Bx49Orfd4tac+TvOp+Ny8e/+Su3vX+Kl2htfUp5C+9t0ZE2vOvVbMFockZvseTnS1oTS/Zt02g8Ntr3hLenW99or7XtzdHWWzklesY8Iwm2egxRbDwnqa3/GnbeJHsxUrCaod9RRvrfin3jSveHioE8bGyeirvW5tTiFxtzRB+O6l3nM/U5Y695MVcp5lntz4Q9vjU2FSN7f+V+nKFvsbdPrHGENTQ6lmuNi1aufdgXCm5nzL/5k//lFrWOLL/73b+87f1TvCe9Z//9Ni8x1HsDkbCvCteSfaMJrhnJud4k12jfE95N3NYYWtr2ntqTo5LzahX7do9k682BGUnE1WNowb7R1PPTOMKbt5FCg9aZzleiT9fORQGnbUufR9Bx9tw9ksR79b8VL9hVgt9DfciPS33ygnStcQ+t2fy4aJDZa59snyW9+pxhI71ky8g+qLHKps9qV+DT+9fwKv0nZu69S+bxd/6FW9Q6snz6R8/uGe/ny2b//J23nnoLGcK7J5F/KjGanPFsWWtiqdd/jvY94T0ws6WDlrY9/6iigc5pFWvnI3Ol81rPsaweQxRvPfa+Qae+2muNoL5J9PaD9n0u8v+2reg+sv2cOZ85e/W/Fe9hnVIi2PYrHac+55/X3oK096PRWKfFRuTM1GdvH3K8mKsU89h5lZzSnwl7fGtsKqwOJFFm6q+VGfoWe/vEGkdYQ6Nj8fzQNcRFvX2G40PB7Yz57Bef3/ze9x66ha295Ne+6X8ekd/+4/9x8/hnv7jt/VM8o9rj3Gt4bYw87SGsQVYBooQXbLVwCck5bwxbhdWWtj0dz5RTFNxWjyGK9zZIb5HcmzfNQxQlfbWX7RObUVH7EWbo1+NU/W9FT5/apI766GEDxKQ/7xpesOkdF7XPvfZppj5n2EgvGdeyD1pYZdNntSs8W4lPP75PF3vZ0kvj85//7ObTb33VLWwdUT554x/ffP7TT257/xRP17OTyF4bW08R1/DWda34Ppqc8WzZuSWWPP9VekAn0dK2V7idJZG56p3fnNVjiOLpUnusBztvkha0j+WvvAcIIxLdRzP063Gq/rfi2Rwv/lBsbh+uTG/CeUl43c9YvAdzaj8/mdNiI3Jm6rO3DzlezFWKeVb7M2GP99bGFiN7f6/9GGGGvsXePrHGEdbQ6FiuNS7q7TMcHwpuV8of/un/dotiNfn6t/v+4GYNzyD1BvclvDZGn7K1RlFSwgu2WvCcXWsA5DngUsCXM9r3HHudLSfW0rbnnGdJ5O2t3vnNWT2GKL1vNnh486Z52ELFQ++J0FaJ2poZ+s05df978Ppnx2yLZfp/fZZQAj4/39vzuhHIj5FE1oDotU8z9TnDRno+KjoHrayy6TPbxaefp08Xs20pPM9P/uM9tyhWk09ef+n27Hl4a222XfPaUDJ4BHu9WtKDxJI/hq23olra9mzGLIm8vdU7vzmrxxDF862t6zFh500SQftXCV17bqtE+z1Dvzmn7n8PtpDmvaFm97VNsttraI1b7LrXPULp5ystvfZppj57+5Dj+ahSzLPanwl7vPrUSu/eF7P3Ywsz9C329ok1jrCGRsdyrXFRb5/h+FBwu1L0dtxX7//QLax5or8X99En27+53YqXbJ158yC8NrzAsAXvjZQSnvNr4RKSc61/I0e0tO05NjkujXtElMSNzJOOte23JhFXjyGKV3A75Rtuat8GRJ7o5lDzl8T+nrdE7Ufw+tk7pyv634OXeNFP4eTYn56068D+pIJ3sy17nx9Te7PI0mufZupzho305nprH/SyyqbPalfg08/Tp4uZew989HbcX33zBbew5on+XtzfPvJ/7ncEvXVqdR19uyGK14b8Ui96GMZer/bA0mhyxov7zi2x5NnjrQcgWtr2bMa9e/eefD4iik8iv/zQO785ai+/huSUY4jixSK9D7PYeZNsIftgf/HAE+1JXT+J57+j+2iGfhMr+t+DFwfo3iRH6yv/Xv/Osdfw7KS9b2m5V+y1TzP12duHHG+uSzHPan8m7PGtsamwOpBEmam/VmboW+ztE2scYQ2NjuVa46LePsPxoeB2xejnHSM/SanC3B7FNuEl7yNJmxa8NnoCiJzI02EJL9hq4RKSc54Otn4CrKVtzznPLtzW6J3fnNVjiNITfJXw5q1WaFCS1wZDEt3gaq5KfyNMePvI3kCWmKFfsar/PXgJdXuzbAN7+5ORXp8VhObY+Wixbb32aZY+xQwb6SW5avtghFU2fVa7Ap9+nj5dzNx7UEY/7xj5SUoV5vYotgn7wIXE+ohRvDZGEtXeuq4lXEaTM5eQWPJ0sFVYbWnbu759+GdPeuc3Z/UYorT8/d4t7LxJaugtDK9YJV+sRGWtsOjFUNF9NEO/YlX/e4g8tGTnxcakXp9135Dw7iFa1nyvfZqlT9Hbhxwv5irFPKv9mbDH68GAVqwOJFFm6q+VGfoWe/vEGkdYQ6Njuda4qLfPcHwouMHN+z/69OZ3HvzPm5d+/y+eKbTpb6597wfznpzz8AKy3uR9Cf3EmW2j940c4fW59PeNBMk5/yZOzqhGS9veHI3ouJUZScTVY2jB9rM3KPDmrVZo8J7c0ptg+U1eCW9+7Q1miRn6Fav634sN/pRMyH8yUn3Pv1dgbrHBa267VGDMv5PYglyNXvs0S59iho30EhdHL7i12vRZ7Qp8+nn6dDFz78E2n/3w3Zu//rf/9Obj3/rVZwpt+ptrf/NnYz/DuoWX1O1N3pfw1uGIX/T6XEs4jiZnLiGxJJ3m15Fs/YRVS9uef5y9jmr0zm/O6jFE8WKyVt+UsPMmqWHfhpJE2/bmN7qPZuhXrOp/D/bn4CX5HlRMlH9vY3/hxU15n70x1YqOll77NEuforcPOV7MVYp5VvszYY/vGbPVgSTKTP21MkPfYm+fWOMIa2h0LNcaF/X2GY4PBTdYjn2yfA8DoyfM8jZqybQtWm9IvGCrhUtIzvU86dHStpeAHdFxKzOSiKvH0IINSLybsQjevJUKDbq+3ceyHdF59vZRNAidpd9V/e9FT+XaNlNBzPZHY/GwRcbcvtvrt66jXvs0Q5+JGTbSS0wcveDWatNntZvAp5+fTxcz9x4cG+/J6NZ1voW3d3ueyE/oDQx7vVoheTQ5cwmJJe/vvW4l1lvaVpIqP1Yyex3VmJEEWz2GKF4RpXdd2HmTlPD2sQpY0XjQi6Gi+2iGflf2vxc9pGTbTA//2SR7aQ3YImO+pm2soWNb6LVPM/SZ6O1Djp0HSSnmWe3PhC3EtupNWB1IoszUXysz9C329ok1jrCGRsdyrXFRb5/h+FBwg+XYgE0yOwHjteG9jRHBe0ul5gi8YKuFoyXnWhLiCW/+t570aJ03+7aNCgA9fe3Bm9+t8XmsHEMLNiiQpEJMC94TQKVCg5e8a/n5WW8fSW8RZuh3Zf978dpMP3NqEwQlm+QFzsn22nXUMh+i17bO2q+itw85XrLllAW3U9j0GfOUg08/P58uZu49ODZaV1bXsxMIXhu9DwAJG4NJanblkhJL2tOt2DdhJPr3Fi3z5un4lA+j2fmNjM+yegwtWH1KUiGmBc9HlPBioK2kbo53fnQfzdDvyv73UmvTxkSlsVh/nj94p//Pv2u9X+m1rTP0mRi178KLuUqx2mp/JuyYSw9T1rA6kESZqb9WzsUn1jjiGmody7XGRSvXPuwLBTdYjp68yA2MRMHeTLyAp+fvY8lh2SfrJbWnFi4tOdeaFPeetpET2bqBa503L2nacsMzgvcmkF7rb2XlGFrw+tm6JhVQ2YBEUio0eAFYyw2ct4+i58/Q78r+j6CkUN5mClrt/iwFw7KZVs+aTy8gbQ2oW21EYtZ+Fb19yPESH6V9MIrX31PY9BnzlONdD59+bJ8uZu49OD7e3up5OKeGTZBIWn2JUBLJXkf9r3FJiSWJ9mcLnu+KJKha581L+u3lIy2yj7btnuTlyjG04BXKWtek91aEpITnz1rmxluH0T7P0O/K/veiGMe2meIQu1ZLCXY9LJMfJ9Fn3ueKG1rota2z9qsYte/Ci7lqsZpnl3vWQo8/E97+33ozJ8dby5IoM/XXyjn5xBqr19DoWK41Llq59mFfKLjBcvQzRNbARJM3OTJwpSelvd8gVhstQYRQ8cNeRwayxqUl5yQtiU0da8+PFFRb560UGJzCWXnOteWPQydWjqEFr596Ci66Z7X27NOPSUo3qV6bLYV5LwEQLVjN0O/K/o/gvYWosWhd5p/V7IkNIhUIeza51eb32tZZ+1WM2nfh9WevRNwqmz5jnnLw6efn08XMvQfHx1srkcRDjvyC9mlpb2vt2TaUMG7FS3ZsPfB0aYklSUv7tm1JpKDaOm89dnoW3hpuLR6IlWNowfMtLeva881JSnhzE1lHCe/B3eg6nqHflf0fwRZXdF9m45OtN5zsvYDWj11DUZuU02tbZ+1X0duHHC/mqsVqK/2ZGInvvL8fliTKTP21ck4+scbqNTQ6lmuNi1aufdgXCm6wHBUTbMAmUQAaKTToJjwZt1rSymtDDiiSpBIqDCqhZ6+xlRi9xOScJKIfr0gQTYr2zJt9Kk8iB7Y3XnCg+elh1Rha8QIKfba1JlQU9/ZiktJ+0nXtsdEAUoGSPVeifRFhhn5X9n8Eb+w2CN8KZG3/ZQPsNbR2Wum1rTP366h9F55+S/tglFU2fcY8WfDpz17j6D5dzNx7cHy8B00kkaSNULyQEiClc7T27PUl8jFb6znhJaiUaN5a15eYWJJEnuj2bEk0pmmdN+nBs9Wtc9WD91Zuz0MCK8fQghJ8to+SSNJd8+KNMUkJL1EfTfKXfFp0Xmfod2X/R/DiCNufLf9sj1cRzxby9OBeK722ddZ+FaP2XXj6rcVqK/2Z8ArmkRhP67Vn71tm6q+Vc/KJNVavodGxXGtctHLtw75QcIND4AV9klryTE5DxkkOIB0vQ1dCxjq/dhIZ161ElfeWhyRSCPGMbwtHTc5JpJ+Wtwol0eJRz7x5Tlqi4D8yXqGnqeXg9FN60b+x4N2gKvBUssmi69fe5Fk1hlZK+i2tzbRfawG5ROMvofVmj68FI2rTCxqTRAtWs/S7qv+j1Aqkkq3EgmfDrEQTsDm9tnXmfu3tQ47nm2r7YIRVNn3GPFnw6c9eI+IfVuk/MXPvwXlgEx9JagVeJXW0rvLja/7OHptEbdfWkL67e/eue64K8ltcamJJouRcyaaU7GdkzkTPvHk2TyKbFrUTGo/6rvajhX7vV1h0vjc3WzZ41RhasQ9EJakVvbd8i6SExu4dX4uD1GbJtkii+2iGflf2f4SSP87/vdUPb/6s9MSzPTZCzNyvvX3I8fbFVrur/FnCu+fTXGi9WNRmqb+5RJmpv1asvq0czSfWWLmGRsdyrXHRyrUP+0LBDQ6Bbrq9ZHQSFRvkPHSzIpEh9QICBTY1dHNiz0kiI6qCgAy9nlZTO3I6eUEvF/W3lCzI8YKtFmRU7flb47R4N3kRY+313SuYSB9JNxL7dFsuXmLNo3feSgUK6VE6Vv+UOJSek8iRy1F6/Y7irV+1ma9brT/Nn/6/xqoxtKC1XwpM9Ln6oj6poKT/L+1X+5nGUsJ7+keiOdF5KYhUwljHbgVOW3rImaHflf0fwdNTLlqLW9Tsu6QneOy1EWLWfh3pQ0L7xF6jtg9G8Pp7Cps+Y5488OlfyNF9emKmr4Tjo3XprTGJPtdaU4wgXSv20b+947ceTin5S11L617nyxYoqaH21I53vERrMYJtU9dsQf3Jz5esSiyVdKS9mPal5q00z4rxIvZT9Mybrl2yQ2pbOlYfZes1r0lUJJI+7d+jjepK7Xrxqz5L61aS9FCLh1aNoRXZ9NJ6kP1WH7WP5F/VL+9Yz9fUkL+2x+u6mmPNgdD86f/1WcmPJ4nuo1n6XdX/UUr7OclWXKH7Fu+8JBpnDz02Qszcr719yPH2wdacagwlvWhN7eXPErI33nWkS8XQaQ7VD7uO05rPP5NEmam/Vuyce3ZNchSfWGPlGhodi/qUny+5hrho5dqHfaHgBodBT86UDFZUdJNSQ8as9ORGi+iGo/aESE7rTYflaMk5FQO2bhRK0uIwe+dNOq4lYVtEjjaKHJ93DU+29LdqDK3oprx3LWhNCvt5ujEtUQsIa6I9a9dU6kOEWfpd1f8RtsYesYUKFr1zJRpbD702QszS50gfErKL9hpb+6AXr7+nsOkz5skDn/6FHN2nJ2b6SjgPpPNS4iIiWp9bP2Wk9W8LEj3SsuYuKbGk6ygBl38WFemnpfDeO29aAzPsvaRFV6UEtCdb+ls1hlZa7LQVzYG3tmvI//bmAHS/ZAuZLftohn5X9n+E2q9oRG2JtUG59PrwXhshZu3XkT4kvJgrEqut8GcJxdU9bcvHp4cF7HctzLS3LXj6PrpPrLFqDY2O5VrjIrFq7cO+UHCDQ9HrHFT9b0lQ1gLMLdFTHtHEnPCCrRY0J/b8Vuc3MzknWvUkp6MnaFoYnTc9eTmS4JGoSNCC94SjJ9HrrhhDK9p33hM5JdFayIME+/3WPlaywgZEWyK9aM/afdBasJqh35X970U3X6V1qCRBBC+ATtI7jlEbMUOfo30Q2g/2Gi3+rIVVNn3GPNXApx/fp+fM9pVwfJSIa4kVksjHeD9l5aF93FvM0JpWzNXCpSWWhPSkuci/q4nsRmtSaXTeNEctfbSieKbFfrUkoKPXPfUYelAfW+5BNEd6gEN4a3sLndtqI5KPsPugZR/N0u+q/o9Qi82jb7V48UgSFW57GLERs/Q5aqeEF3NFYjVxan+Wo7ajcZpkdO/n7GFvI5yzTyyxYg2NjuVa4yKxau3DvlBwg0OiCr81ep7IKOlYGahWdAPf8haRAo8e42kTgbp5aUHO0t7wtCahvCcmtp4WFrXEouZc/di6GdMcR9qyjM6bULu6TquT1LiiCR7L1k20vmtZRyvG0IrWqG7MamtB3+kYuxbszWm0z3riaOvGVok6BUkJ+5RSTyA5S7+r+t+LdJe3nUS2JYoXRGpd9K7TGTZiVJ8z+iAd59eQpBvX2ayy6TPmaQt8+rF9umW2r4Tjo7WvNVbTexL5v95krRI2NuFSEvXFi00iqI/5tZTYakF2Pj9f0ppEsUlR+dkItaSY5mIr2ap5ky577r9G502ojy32XqJ2ZTt7dJ3so3fdJJr7lvk49Rh6kF/dStgqllU8mo9d59ljIshGqICz5YfUpzx2tPOYx84RZul3Vf9H0Bv+edtJonGoxuHZdOm8ZT/kjNqIGfqcYadsH7QutEZaOJU/89hay9Kxjsnn0fq16N7PmaG/Vs7dJ9Y45RoaHcu1xkWJFWsf9oWCGxwaBXEK4uXMZeQUkOr/dbORB6qjKLDVdSVqQ84h/VtGftSoyXnI2Ul6HJjOSedHA2CLElfpGtGnq2rJuYTmRokzzZV0JCet/9dnrUGlZXTecjR+rRv1TQlTOVE5NP1bn6uNWc5L19H1VCDR9ZNonY20ccox9CB9pzFr7aT9qs9Ka0GfJx1H12UizXNaf2nfymaU7EO+pnqZpd9V/e9FfUptS3qS4Xn/Ja06t8ywEaP6nNGHfG5n+jbLSps+Y56i4NN9Vvt0y+jeg/NFek/61v7M19ks+6D1qqJd3k6KSyTqwwhp/SbpWbMzbH/eh+gerSWWEtJDijnzeLO3EJqYMW85ukbSqWxcbu9lW3ptrEey3eneVKL/H23jlGPoQT4mvx9P+7WWCNU5ScetezrNs9af1p3aTHPhXStfUz2xaWKWflf1vxeNL7Uv6b0fy2UkXphlI0b0OasP+dx6uo+ytz8roXFrn6uN/N5evro0J7lfGxnziP5auSSfWOIUa2jGWK4xLrKccu3DvlBwA4AikeQcAACcB9j06wb9A4CIJJYAAACuAXwisAZgDyi4AUARknMAAJcDNv26Qf8AIEgsAQAAPAWfCKwB2AMKbgBQhOQcAMDlgE2/btA/AAgSSwAAAE/BJwJrAPaAghsAFCE5BwBwOWDTrxv0DwCCxBIAAMBT8InAGoA9oOAGAEVIzgEAXA7Y9OsG/QOAILEEAADwFHwisAZgDyi4AUARknMAAJcDNv26Qf8AIEgsAQAAPAWfCKwB2AMKbgBQhOQcAMDlgE2/btA/AAgSSwAAAE/BJwJrAPaAghsAFCE5BwBwOWDTrxv0DwCCxBIAAMBT8InAGoA9oOAGAEVee+21ZxyPBAAAzhNs+nWD/gFA3Llz5xk7QGIJAACuFXwisAZgDyi4AUCRx48f37z99ts3b7311s39+/dvHj58ePsNAACcG9j06wb9A4D46KOPbh48ePDEFui/+jcAAMA1gk8E1gDsAQU3AAAAAAAAAAAAAAAAgAEouAEAAAAAAAAAAAAAAAAMQMENAAAAAAAAAAAAAAAAYAAKbgAAAAAAAAAAAAAAAAADUHADAAAAAAAAAAAAAAAAGICCGwAAAAAAAAAAAAAAAMAAFNwAAAAAAAAAAAAAAAAABqDgBgAAAAAAAAAAAAAAADAABTcAAAAAAAAAAAAAAACAASi4AQAAAAAAAAAAAAAAAAxAwQ0AAAAAAAAAAAAAAABgAApuAAAAAAAAAAAAAAAAAANQcAMAAAAAAAAAAAAAAAAYgIIbAAAAAAAAAAAAAAAAwAAU3AAAAAAAAAAAAAAAAAAGoOAGAAAAAAAAAAAAAAAAMAAFNwAAAAAAAAAAAAAAAIABKLgBAAAAAAAAAAAAAAAADEDBDQAAAAAAAAAAAAAAAGAACm4AAAAAAAAAAAAAAAAAA1BwAwAAAAAAAAAAAAAAABiAghsAAAAAAAAAAAAAAADAABTcAAAAAAAAAAAAAAAAAAag4AYAAAAAAAAAAAAAAAAwAAU3AAAAAAAAAAAAAAAAgAEouAEAAAAAAAAAAAAAAAAM8FzBDUEQBEEQBEEQBEEQBEEQBEEQBEGQdlHB7U/shwiCIAiCIAiCIAiCIAiCIAiCIAiCROQH//3/Aw9RqUKVYadRAAAAAElFTkSuQmCC;" vertex="1" parent="1">
          <mxGeometry x="5" y="4" width="1159.36" height="820" as="geometry" />
        </mxCell>
      </root>
    </mxGraphModel>
  </diagram>
</mxfile>
